<?xml version="1.0" encoding="UTF-8"?>
<!DOCTYPE svg PUBLIC "-//W3C//DTD SVG 1.1//EN" "http://www.w3.org/Graphics/SVG/1.1/DTD/svg11.dtd">
<!-- Creator: CorelDRAW Home & Student X8 -->
<svg xmlns="http://www.w3.org/2000/svg" xml:space="preserve" width="1189mm" height="841mm" version="1.1" style="shape-rendering:geometricPrecision; text-rendering:geometricPrecision; image-rendering:optimizeQuality; fill-rule:evenodd; clip-rule:evenodd"
viewBox="0 0 118900 84100"
 xmlns:xlink="http://www.w3.org/1999/xlink">
 <defs>
  <style type="text/css">
   <![CDATA[
    .str0 {stroke:black;stroke-width:20}
    .str1 {stroke:#94E43A;stroke-width:7.62}
    .fil0 {fill:black}
    .fil2 {fill:#94E43A}
    .fil1 {fill:#EB4AB4}
    .fil3 {fill:white}
    .fil4 {fill:white;fill-rule:nonzero}
   ]]>
  </style>
 </defs>
 <g id="Layer_x0020_1">
  <metadata id="CorelCorpID_0Corel-Layer"/>
  <rect class="fil0 str0" x="1164" y="1120" width="116573" height="81861"/>
  <g id="_764599896">
   <path class="fil1" d="M74724 45901c879,-207 1788,-753 2669,-856 60,732 -1996,11811 -2296,13831 -123,828 -122,622 -327,643 -133,-276 -106,-12335 -46,-13618zm9594 -1349c38,-286 192,-375 331,-583 557,-833 352,-411 2065,-406l2027 -23c11,198 -6,764 -243,870l-4180 142zm-8208 16068l1220 -7443c247,-1195 915,-6515 1194,-7128 7761,-542 18222,-337 25466,-1251 310,-49 688,-35 705,218 135,2038 89,21734 91,24833 1,1103 61,929 -586,1508l-2191 1998c-150,141 -848,862 -1024,964 -75,156 -6326,-1293 -6964,-1479l75 -2526c-429,65 -970,863 -1274,1222 -1010,1011 -626,955 -2031,733 -2144,-339 -4226,-550 -6430,-858 -3559,-496 -7302,-545 -10865,-905l-6481 -336c-1922,-39 -2072,261 -3088,-1429 -469,-41 -899,82 -1397,129 218,248 380,613 572,856 1238,1575 3146,4342 3412,6334 136,1017 -167,1601 -822,1996 -1915,1154 -5316,723 -7320,335 -4262,-824 -8204,-2943 -11174,-5709 -953,-888 -1941,-1847 -2685,-2889l-2724 54c-35,465 -19,837 -91,1279 -3298,274 -7261,869 -10756,1426 -299,-473 -804,-946 -1188,-1433 -1823,-2315 -1778,-1440 -1806,-3287 -11,-709 -21,-1417 -24,-2126 -3,-746 -478,-481 -1192,-335 -1655,341 -1352,-160 -1348,2229 1,620 -1,1241 0,1861 4,1250 14,2510 -4,3759l-7461 1804c-401,-444 -1845,-1598 -2351,-1971 -1626,-1199 -1387,-751 -1389,-2894l28 -25666c3694,-195 8338,346 12034,795 -63,-1804 -206,-3406 83,-5199 662,-4109 5008,-10953 5026,-11273l-1786 -19c8,-800 1229,-3145 1546,-3774 538,-1070 1412,-2417 2063,-3287 3479,-4646 6312,-6689 10994,-10252 262,-199 534,-390 785,-618 648,-586 1476,-1175 2141,-1810 1506,-1435 1280,-1718 2160,-3120 1595,-116 4569,2113 5497,2959 759,693 1362,1390 2069,2122 662,685 1226,1500 1896,2258 1434,101 2899,-8 4345,126 3380,312 7420,1385 10291,2955 999,547 1768,1079 2624,1798l7474 5790c2041,1549 2991,2346 4582,4257 702,843 1079,1830 2058,2373 1857,1030 1908,2223 2662,2758 672,476 1231,1059 1260,2000 38,1218 -455,2553 -1053,3378 -382,527 83,2077 -654,3764 -406,928 -1355,1925 -2442,1887 100,-790 517,-1564 -45,-2600 -300,6 -918,305 -1457,395 -2131,360 -3653,-720 -4484,741 -1129,1984 -2478,2132 -5164,1912 768,-664 1290,-874 1378,-2144 -1294,78 -5033,1589 -6553,2171 -459,175 -1557,707 -1813,1119l1636 14c103,1907 -78,13887 144,14434 189,230 2400,236 2606,217zm-39456 -44921c-48,42 -118,118 -300,300 -160,161 -262,238 -436,417 -265,271 -624,606 -880,902 -1379,1589 -1958,2148 -3236,3900 -781,1069 -2724,4393 -3042,5440 -115,414 -576,1340 -783,2304 -100,462 -265,948 355,1023 157,19 372,19 713,41 -584,1540 -4797,7248 -4114,13722 -3115,-357 -8384,-752 -12073,-526l47 29419 2734 2127c2127,1614 1566,1790 3074,1406 1271,-324 2679,-655 3940,-970l3958 -921c77,-2529 -61,-5137 88,-7606 269,659 38,1755 108,2558 35,413 292,597 501,838l1867 2245c396,479 821,1088 1231,1494 395,-358 12494,-1938 12667,-1689l24 -759c1135,-123 769,-36 1745,880l1387 1403c1799,1658 4461,3443 6688,4337 1497,600 2481,941 4147,1369 2708,696 7199,1169 9470,-209 2517,-1528 1028,-4794 -69,-6879 -146,-276 -403,-628 -496,-833 6533,194 17433,980 23774,1903 540,73 1099,127 1619,253 1051,257 762,-88 1392,-310 333,902 -479,286 2017,910 2012,502 3985,904 6003,1454 589,161 622,-9 996,-355 1120,-1036 1968,-1846 3108,-2866 1203,-1077 1146,-936 1141,-1873l-3 -20942c1,-1974 64,-4067 -10,-6027l-13177 594c124,-611 737,-1010 1097,-2718 307,-1450 677,-2622 996,-4002 666,-3046 -178,-3447 -1672,-5551 -1270,-1790 -1897,-1860 -2909,-2756 -2100,-3153 -3932,-5080 -8473,-8042 -4298,-3168 -6052,-5490 -11270,-7426 -681,-253 -1387,-433 -2086,-631 -2037,-759 -4827,-993 -7034,-1166 -4025,-315 -829,565 -5321,-3538 -1512,-1382 -1621,-1416 -3361,-2538 -810,-521 -3237,-1577 -4385,-1470 -292,385 -403,982 -675,1489 -250,466 -517,931 -877,1366 -729,883 -1455,1431 -2269,2153 -860,764 -1660,1324 -2493,1930l-2524 1960 -2919 2466z"/>
   <path class="fil2" d="M61146 29983c1,3618 1754,6502 4827,7806 623,265 2420,875 3201,862 -92,-191 -755,-772 -1023,-1117 -3881,-5000 -193,-10719 844,-11114 -221,901 -645,1396 -986,3158 -712,3686 99,6851 4009,8198 3692,1272 6798,96 9674,-1955 535,-381 2031,-1588 2473,-1813 -61,298 -342,803 -477,1112 -138,318 -355,848 -417,1260 223,-122 44,9 207,-167 25,-27 95,-127 136,-185 107,-152 190,-273 298,-395 1621,-1850 3532,-3131 6265,-3074 -176,-414 -2068,-1420 -2225,-1435 -1296,-126 -3297,955 -5746,-1126 -682,-580 -466,-138 -1383,-223 -2266,-213 -1314,-471 -2283,330 -1700,1406 -3981,323 -4524,-1924 -682,-36 -1429,-190 -2116,-118 -711,75 -952,532 -1307,898 -122,-1540 1269,-4185 2857,-4801 944,-366 1541,141 2228,67 -1416,-1293 -4482,-1650 -6350,-310 -256,184 -453,434 -685,536 -438,-409 -276,-620 -1161,-644 -1487,-39 -2627,1140 -3415,2165 -285,-499 1274,-2987 2675,-4012 78,-56 167,-123 277,-196 188,-125 176,-92 310,-241 -1264,2 -3318,2077 -4119,3185 -873,1207 -2064,3396 -2064,5273z"/>
   <path class="fil3" d="M21355 50791c703,-158 2239,17 2594,385 440,455 252,2059 252,2773 0,2279 468,3419 -2831,3123l-15 -6281zm-4023 3779l-5 15023 4097 -695 -25 -7110c2620,-257 3522,175 5291,-1474 1551,-1445 1490,-2860 1490,-5357l0 -3490c-1,-3378 -576,-4151 -3689,-4478l-7856 -377c93,268 12,107 184,378 329,520 506,547 517,1137l-4 6443z"/>
   <path class="fil3" d="M82033 60337l1036 -8534 990 8559 -2026 -25zm-898 6103l340 -3022 2968 170 299 3126 3877 387 -719 -4851 -2086 -14698 -5382 44 -3176 18529 3879 315z"/>
   <polygon class="fil3" points="33856,63213 33841,58785 37667,58794 38278,55104 33931,55109 33943,51128 38970,51110 38971,47487 29945,47267 29943,67662 38931,66671 38931,62953 "/>
   <path class="fil3" d="M59801 65181c-15300,163 19937,-218 0,0zm6400 -1590c241,-576 188,-4862 -37,-5522 -267,-784 -665,-1211 -1374,-1581 -757,-395 -1193,-667 -1906,-1041 -2779,-1458 -2911,-1185 -2878,-3053 24,-1373 556,-1196 1818,-1174 1019,18 780,771 826,2208l3600 -601c-22,-2040 446,-4718 -3036,-5013 -928,-78 -3111,-62 -3966,73 -3132,495 -2935,2998 -2938,5054 -2,1603 -244,2420 719,3320 449,420 1894,1101 2551,1484 304,177 1507,777 2156,1176l679 418c280,171 298,163 275,1591 -15,965 -43,1376 -1022,1371 -669,11 -1484,125 -1710,-497 -46,-127 -72,-262 -73,-405l-13 -1671 -3603 537 -30 2671c-5,440 134,842 304,1173 515,1004 1456,1593 2870,1583l4333 -105c1228,-30 2194,-654 2455,-1996z"/>
   <polygon class="fil3" points="67936,65791 76070,66127 76068,62560 71702,62371 71681,47823 67928,47807 "/>
   <polygon class="fil2" points="77851,65661 80689,65914 81098,62912 84878,63157 85200,66312 88060,66585 86977,59356 84415,59236 84600,60835 81476,60743 81681,59120 78948,59016 "/>
   <path class="fil2" d="M62522 58852c378,175 499,352 589,779 74,348 44,925 43,1299 -2,831 -66,1607 -909,1748 -598,100 -1903,134 -2362,-208 -321,-240 -430,-577 -441,-957l-36 -1197 -2711 402 27 2445c93,665 451,1202 924,1551 1025,756 3329,464 4637,461 1835,2 2875,-32 3471,-1633 95,-254 173,-789 173,-1423l0 -3398 -3741 -40 336 171z"/>
   <path class="fil2" d="M61898 74658c58,69 156,251 -355,50l-995 -492c-2279,-1214 -4128,-2036 -6475,-3529l-2411 -1516c78,358 1385,1578 1679,1863 1603,1552 4137,3383 6095,4477 -389,224 -4296,-1857 -4931,-2224 -821,-474 -1466,-954 -2241,-1487 -542,-373 -1875,-1504 -2046,-1531 49,366 1743,2111 2072,2436 382,377 1954,1836 2442,2030 -46,100 195,89 -204,72 -89,-69 -1702,-734 -1940,-849 -4022,-1939 -4514,-3422 -4972,-3659 321,1001 2086,2372 2972,3026 1055,779 2867,1614 4007,2050 2048,785 5261,1587 7534,1569 1400,94 2598,-62 2568,-491 -38,-478 -526,-1345 -755,-1749 -1071,-1894 -9958,-6404 -11121,-6622 230,404 1801,1367 2280,1736l6797 4840z"/>
   <path class="fil2" d="M20945 64420l-8 -3059 775 -43c1011,-114 2639,-141 3370,-426 417,-163 1337,-743 1476,-1206 -2911,175 -5818,403 -8720,710l0 160 0 8395 3100 -487 7 -4044z"/>
   <path class="fil2" d="M70108 19047c214,104 907,227 1265,375 2730,1133 4444,3012 7211,4727 2303,1428 4010,2396 5894,4272 387,385 1301,1343 1558,1844l1021 -13c16,-957 -2525,-3398 -3179,-3949 -1867,-1572 -5797,-3744 -8411,-5704 -1117,-837 -2192,-1471 -3652,-1602 -384,-35 -1359,-160 -1707,50z"/>
   <path class="fil2" d="M27155 33642c-882,-42 -2464,389 -3300,472l-9629 878c319,184 7181,1722 8716,2071l2536 898c441,-1474 997,-2925 1677,-4319z"/>
   <path class="fil2" d="M86979 25014c137,133 2313,2559 2528,2929 388,-137 3559,-2309 4116,-2686 592,-402 3686,-2292 3948,-2648 -473,-7 -2081,424 -2636,544 -2418,526 -5687,1418 -7956,1861z"/>
   <path class="fil2" d="M76683 17008l3336 2673c227,-114 2415,-3582 2794,-4152l2709 -4106c-430,12 -783,359 -1162,584l-6565 4216c-470,270 -720,367 -1112,785z"/>
   <path class="fil3" d="M44632 51633c240,-192 -60,-455 973,-442 383,4 1168,-91 1425,102 519,389 353,2060 338,2767l3869 -964c47,-1271 170,-2726 -342,-3808 -472,-996 -1431,-1539 -2647,-1609 -1371,-78 -2811,-116 -4195,-87 -1263,26 -2258,448 -2882,1375 -747,1108 -595,2133 -594,3664 3,2843 0,5687 -2,8531 -5,5321 625,5272 6043,4960 2485,-54 4369,-662 4637,-3579l3 -3325 -2 -878 -4585 19c-260,449 -239,1009 409,1051 179,12 115,7 290,2l0 168 -1 2241c-104,741 -350,694 -1218,704 -1856,22 -1551,279 -1551,-2526 1,-931 1,-1862 1,-2792 -1,-1686 -128,-3957 31,-5574z"/>
   <path class="fil2" d="M69054 4071c-21,16 -48,37 -62,49l-119 97c-359,314 -381,461 -612,856 -1214,2081 -2874,4352 -4209,6449 -60,106 -380,553 -356,555 318,20 4372,808 4553,876l805 -8882z"/>
   <path class="fil2" d="M84507 37817c-530,1955 504,2765 2292,2930 3177,293 3399,-1654 2863,-2208 -501,355 -157,922 -1276,1254 -1646,488 -4733,-490 -1676,-3067 1732,-1461 5072,-2391 4751,-73 -128,928 -844,1245 -963,1646 812,-231 2909,-2938 1053,-4237 -1557,-1090 -4006,-27 -5145,728 -1194,792 -2571,2258 -3453,3301 -814,962 -956,2632 -1180,3924 -88,507 -264,954 -358,1423 1253,-179 1247,-2121 1591,-3213 504,-1602 621,-2010 1671,-3139l227 -129 -397 860z"/>
   <g>
    <path class="fil2" d="M38549 21235c-505,-69 -1570,-157 -1947,-326 200,-228 1434,-587 1729,-672 741,-214 1370,-293 2201,-326 -215,-257 -665,-360 -1110,-512 -388,-133 -660,-370 -1100,-408 602,-79 1384,-210 1985,-228 737,-21 1343,14 2062,-68 -14,-19 -38,-68 -46,-53 -9,14 -35,-40 -47,-51l-430 -278c-408,-229 -1226,-842 -1613,-861 -494,-24 271,-255 459,-289 920,50 1303,-108 2192,110 594,145 1303,471 1807,548 -324,-752 -2477,-2050 -2479,-2052 -163,-163 -66,6 -146,-230 1061,-29 1502,5 2437,262l2082 729c-170,-449 -1886,-2132 -2276,-2275l5 -194c1478,291 1279,-209 3626,1030 381,201 687,484 998,614 -125,-346 -1617,-2129 -2070,-2570 -257,-250 -625,-511 -833,-758 92,-67 25,-49 198,-93 458,-116 1137,141 1566,302 1090,407 3903,2243 4010,2271 -118,-353 -1377,-1996 -1786,-2475 -192,-225 -282,-339 -457,-550 -265,-319 -793,-862 -900,-1200 1062,97 2174,824 2959,1393l2364 1914c-143,-497 -3031,-4327 -3520,-4804l-105 -429c1144,395 3714,2793 4700,3833l1398 1457c-129,-953 -2931,-4069 -4029,-4791 -454,-416 -1838,-1238 -2637,-1307l-454 688c-2079,2904 -7932,6661 -11053,9581 -1339,1254 -2983,3120 -4065,4624 -346,481 -1594,2138 -1758,2663 685,-205 1936,-1603 3298,-2137l986 -327c154,-58 425,-114 115,-165 -3485,-729 1148,-550 1684,-1590zm-1686 1590l1606 -4010 -1606 4010z"/>
   </g>
   <path class="fil2" d="M57827 32122c169,-142 75,4 177,-222l390 -1884c664,-2916 2450,-6237 4567,-8350 451,-450 827,-784 1338,-1221l1110 -821c287,-174 268,-121 422,-404 -2378,415 -4586,2921 -5772,4660 -1454,2134 -2380,4949 -2232,8242z"/>
   <path class="fil3" d="M93193 55395l2171 8816 1666 139c218,-696 369,-1568 549,-2266l1193 -4364c151,-564 416,-1722 641,-2124l-7 13010 3389 673 6 -22339 -4643 243 -1981 9375c-85,-131 -1606,-8262 -1804,-9192l-4942 133 2 19681 3708 492 52 -12277z"/>
   <path class="fil2" d="M47800 59223c113,283 99,2433 14,2844 -207,1007 -1025,964 -2051,976 -661,2 -1010,47 -1369,-352 -397,-441 -286,-1180 -287,-1917l-6 -1928 -3049 98 27 3925c-64,3393 2508,2814 5534,2752 1492,-30 2382,-117 3256,-1052 981,-1050 878,-1887 878,-3562 0,-578 83,-2329 69,-2308l-3745 71c-271,480 402,345 729,453z"/>
   <path class="fil2 str1" d="M45316 40973c185,-81 1806,-640 2222,-768 822,-254 1531,-422 2496,-598 962,-176 1673,-213 2701,-323 591,-63 2600,43 2958,-147 -1262,-347 -5315,-206 -6754,-6 -1438,201 -4467,801 -5239,1866 -250,814 3601,2998 5741,3279 1249,164 2872,-166 3927,-569 620,-237 2633,-1213 2934,-1623l-2955 674c-1428,288 -2573,295 -3282,431 -319,-3 -299,-62 -232,-98l5311 -1871c-250,-161 -3458,504 -4002,593 -1115,183 -3068,530 -4214,492 329,-243 3741,-1185 4498,-1364l4949 -935c-1754,-187 -7813,623 -9871,959l-987 148c-186,31 -235,-5 -201,-140z"/>
   <polygon class="fil2" points="97585,59954 94790,59781 95752,63769 96565,63852 "/>
   <path class="fil2" d="M94243 40108c1942,-117 5325,-937 7436,-1267 -2,-108 -6233,-1055 -6811,-1158l-625 2425z"/>
   <path class="fil2" d="M61785 18919c484,-214 1002,-2336 3757,-2481 867,-46 1983,137 2796,294l2574 529c-317,-278 -794,-391 -1199,-530 -1290,-439 -2862,-978 -4247,-1102 -1288,-115 -1978,140 -2722,775 -590,502 -1218,1560 -959,2515z"/>
   <path class="fil2" d="M64604 40303c907,386 3646,1103 4840,694 -333,-142 -1854,-225 -3704,-1212 -2914,-1555 -4809,-3411 -5736,-6748 -100,-360 -184,-682 -218,-1037 -36,-371 69,-927 -62,-1221 -375,590 -251,3169 -67,3916 717,2907 2184,4433 4947,5608z"/>
   <polygon class="fil2" points="38522,66229 38522,63466 33523,63812 33500,59272 30426,59442 30402,67119 "/>
   <path class="fil2" d="M47446 22669c-1144,322 -2003,1154 -2594,2147 -1383,2324 20,4784 479,3882 219,-429 -363,-1317 268,-3071 721,-2003 1705,-2424 1847,-2958z"/>
   <path class="fil2" d="M49020 26627c1167,-418 -584,-2596 2347,-5468 192,-188 492,-315 610,-564 -612,55 -1300,467 -1730,767 -444,309 -896,878 -1186,1376 -725,1244 -951,3246 -41,3889z"/>
   <path class="fil2" d="M28760 26658c82,-242 1822,-3510 1986,-3803 -1296,37 -8174,-2768 -10740,-2967 118,217 8521,6688 8754,6770z"/>
   <path class="fil2" d="M41771 31331c91,-280 -224,-1309 -218,-1892 27,-2518 1781,-4280 1899,-4660 -1041,299 -2179,1673 -2559,2749 -410,1160 -415,2771 387,3685 72,82 73,107 176,144 180,63 262,0 315,-26z"/>
   <polygon class="fil2" points="71222,62834 71222,58784 68437,58735 68424,65257 75607,65600 75603,63010 "/>
   <path class="fil2" d="M38112 33740c164,-597 -535,-1671 185,-3720 599,-1706 1389,-2259 1548,-2666 -933,89 -2122,1657 -2519,2665 -393,999 -429,2329 106,3332 205,385 240,559 680,389z"/>
   <path class="fil2" d="M58173 18780c454,-752 358,-1538 1917,-2537 1484,-950 2817,-907 3152,-1028 191,-69 137,-45 248,-139 -1833,-44 -2837,-324 -4336,537 -1387,796 -1808,3022 -981,3167z"/>
   <path class="fil2" d="M73068 42555c-171,-106 -863,68 -1245,125 -482,71 -918,95 -1425,153 -998,116 -2048,13 -2961,-140 -1343,-223 -2480,-493 -3615,-1136 -352,-199 -725,-489 -1017,-620 164,429 1280,1236 1813,1522 2695,1448 5775,1107 8450,96z"/>
   <path class="fil2" d="M53922 23859c293,-651 -296,-2122 1395,-4256 252,-318 773,-783 923,-1017 -1644,115 -3782,2722 -2924,4848 141,349 228,519 606,425z"/>
   <path class="fil2" d="M74577 27303c325,-1064 2280,-1488 3556,-680 1034,655 1584,2210 3099,1971 -263,-224 -839,-264 -1608,-1290 -967,-1292 -2110,-2275 -3858,-1593 -501,196 -968,557 -1194,980 -313,584 5,612 5,612z"/>
   <path class="fil2" d="M73398 40686c135,213 1626,554 1928,603 828,135 1523,134 2359,-21 920,-170 3100,-1079 3431,-1667 -153,-65 -1262,367 -1599,471 -1269,394 -2587,618 -3971,632 -382,4 -2018,-77 -2148,-18z"/>
   <path class="fil2" d="M35008 36136c216,-671 -706,-1711 142,-4207 148,-435 564,-1198 642,-1579 -785,309 -1566,1694 -1775,2569 -246,1037 -46,3226 991,3217z"/>
   <path class="fil2" d="M40898 24709c-63,602 -44,937 108,844 280,-2 393,-75 618,-223 570,-3440 1956,-3571 2485,-4706 -1197,319 -2419,1501 -2876,2564 -129,299 -388,1172 -335,1521z"/>
   <path class="fil2" d="M36777 15596c94,-3 2766,-2304 2777,-2347 -890,-532 -5783,-3978 -6088,-4023l3311 6370z"/>
   <path class="fil2" d="M43015 37014c-337,-138 -1110,-633 -1285,-646 -228,335 -468,1460 -551,1908 -1677,-829 -1994,-2767 -1368,-4559 224,-642 501,-975 730,-1467 -716,177 -1633,1337 -1946,2039 -521,1169 -468,2290 8,3397 206,562 695,1084 1099,1348 -530,-11 -770,-354 -1152,-358l-467 1666c-796,-388 -1393,-1317 -1580,-2336 -117,-637 -14,-1228 144,-1795 146,-522 448,-1078 570,-1561 -566,173 -1031,882 -1337,1354 -1146,1769 -638,4515 1532,5367 -123,148 17,47 -217,95 -271,-77 -538,-163 -775,-275 -253,-120 -483,-308 -740,-363 -218,334 -261,952 -360,1260l-105 237c-713,-388 -1266,-1095 -1499,-2066 -395,-1647 247,-2427 297,-3029 -584,246 -1356,1712 -1337,2992 17,1207 974,2493 1743,2715 97,147 70,64 20,148 -702,-49 -1010,-521 -1551,-730l-118 319c-28,109 -53,265 -69,416 -27,249 -17,504 -46,751 -687,94 -1338,-851 -1580,-1341 -573,-1158 -220,-1517 -337,-2696 -817,358 -1383,3111 394,4193l400 230c114,86 45,18 128,121l-1168 -175 21 1167c242,92 4755,203 5400,208 1638,13 3751,39 5351,213l117 341c9,20 22,49 39,71 1490,-332 3374,-451 4966,-378 815,38 1667,69 2462,195 651,103 1651,239 2319,87 1383,-314 2750,-751 3892,-1359 996,-531 1578,-916 2376,-1590 117,-99 637,-591 689,-612 -177,16 -1373,892 -1630,1067 -1738,1181 -3966,2013 -6124,2278 -2567,315 -6428,-1700 -7881,-3301 -1350,-1489 -207,-2630 1022,-3335 1169,-671 2751,-1145 4290,-1398 1729,-284 3343,-352 5175,-348 2953,7 2984,309 5094,468 -23,-851 -1991,-3415 -1292,-9137 -481,118 -810,805 -1243,945 -408,-262 -812,-978 -942,-1477 -721,-2772 1607,-4730 1862,-5199 -2065,219 -4932,4292 -2261,6539 223,188 736,468 843,720 -788,61 -1166,-443 -1782,-535 -475,826 -791,1339 -764,2663 31,1559 537,1715 940,2457 -722,-79 -1428,-900 -1718,-1578 -497,-1159 33,-1642 -423,-2139 -1041,-1137 -1023,-3163 -132,-4521 155,-236 636,-735 636,-1015 -1328,1 -3846,2874 -2357,5371 578,969 1097,1146 1383,1589 -942,-17 -1484,-750 -2032,-787 -290,592 -456,1884 -621,2169 -1625,-898 -2099,-3078 -1294,-4856 173,-383 858,-1258 905,-1489 -1149,219 -2322,1835 -2610,3141 -185,839 -59,1838 276,2513 544,1095 1178,1219 1404,1556 -689,-65 -1254,-610 -1628,-623l-596 1957c-1089,-143 -2403,-2478 -1347,-4842 190,-425 795,-1296 829,-1431 -1235,173 -3532,3190 -2237,5571 304,557 879,1281 1395,1481l-249 24z"/>
   <path class="fil2" d="M56499 67936c130,91 -49,103 454,348 176,86 285,137 455,240 1348,816 3915,2621 4914,3764l400 299c-73,-381 -344,-599 -572,-899 -611,-806 -1070,-1334 -1945,-2012 -771,-597 -2658,-1593 -3706,-1740z"/>
   <path class="fil2" d="M37946 28164c116,-42 331,62 417,-577 163,-1210 479,-2197 1075,-3237 227,-396 569,-756 710,-1163 -712,235 -1516,1274 -1872,1953 -418,799 -790,2903 -330,3024z"/>
   <path class="fil2" d="M35178 30646c274,-400 -151,-934 456,-2662 366,-1041 826,-1524 1037,-2027 -642,107 -2131,1894 -2154,3483 -9,601 -76,1448 661,1206z"/>
   <path class="fil2" d="M33407 29251c-576,234 -1237,1232 -1480,1797 -759,1768 -39,3517 415,2883 130,-183 40,-548 18,-768 -93,-929 212,-1860 524,-2713 139,-379 408,-796 523,-1199z"/>
   <path class="fil2" d="M31843 39020c122,-576 -582,-1271 -69,-3345 88,-353 281,-686 292,-1069 -1600,761 -1552,4731 -223,4414z"/>
   <path class="fil2" d="M49613 21160l115 -331c962,-2724 3513,-3342 3763,-3763 -1626,-227 -3686,993 -4421,2587 -436,943 -299,1112 -235,2074 331,-91 570,-323 778,-567z"/>
   <path class="fil2" d="M58070 23912c132,-328 93,-1236 201,-1743 313,-1475 1192,-2509 2363,-3432 -475,-304 -2147,692 -2859,1775 -1026,1561 -392,3375 295,3400z"/>
   <path class="fil2" d="M45142 23383c503,-535 95,-2223 3217,-4525l296 -294c-1403,-15 -3412,1380 -3922,3095 -188,632 -374,1691 409,1724z"/>
   <path class="fil2" d="M53503 19448c370,-112 716,-691 949,-1022 556,-794 1155,-1395 1951,-1922 333,-221 950,-476 1277,-714 -1202,-707 -4800,1641 -4177,3658z"/>
   <path class="fil3" d="M76045 29236c-104,-886 346,-1587 1238,-1454 -3,510 -228,48 -247,572 331,178 353,14 549,-236 14,-19 35,-43 47,-58 12,-16 30,-41 49,-59 69,212 1,222 164,346 88,-984 -752,-1321 -1479,-945 -436,225 -786,847 -705,1427 43,307 91,314 384,407z"/>
   <path class="fil2" d="M61972 42766c-536,-388 -1600,-580 -2289,-1798 -173,-307 -279,-680 -425,-958 -406,616 1087,2943 2714,2756z"/>
   <path class="fil2" d="M82615 28288l-27 143c19,443 553,992 1269,1085 -56,-264 -786,-1202 -1102,-1241l-140 13z"/>
   <path class="fil2" d="M91135 42151c242,-706 247,-1866 -155,-2400 -82,106 -82,15 -87,223l149 868c56,601 -97,1070 93,1309z"/>
   <polygon class="fil2" points="89950,66746 92570,67064 92585,59652 89957,59507 "/>
   <polygon class="fil2" points="99881,60104 99904,68097 102311,68534 102288,60269 "/>
   <path class="fil4" d="M20737 76227c-50,515 -102,1028 -150,1536 -47,504 -97,1005 -145,1502 -276,2 -552,3 -826,5 -37,-214 -76,-441 -108,-681 -31,-239 -63,-493 -92,-759 -16,118 -39,298 -68,540 -29,240 -71,541 -119,902 -273,0 -547,2 -821,3 -50,-416 -102,-830 -150,-1239 -47,-405 -97,-808 -142,-1206 211,-50 424,-100 640,-150 10,149 23,297 34,446 10,149 23,299 37,449 10,145 21,291 31,437 11,146 21,293 34,439 14,-231 35,-499 64,-804 29,-307 71,-655 121,-1042 229,-52 457,-106 686,-158 3,41 14,137 24,291 11,153 29,363 48,630 12,178 23,357 34,536 10,180 26,359 39,539 19,-348 45,-693 74,-1037 29,-345 68,-690 110,-1034 213,-49 429,-97 645,-145zm2624 -567c-50,607 -102,1212 -150,1812 -49,597 -100,1192 -148,1782 -276,0 -552,2 -826,3 -37,-257 -75,-531 -105,-821 -30,-290 -66,-596 -95,-920 -13,143 -37,360 -66,651 -29,291 -73,655 -121,1092 -273,1 -544,2 -818,4 -50,-515 -103,-1026 -150,-1533 -47,-505 -100,-1005 -148,-1503 214,-47 429,-95 645,-142 11,182 24,365 34,548 11,183 24,368 37,551 11,178 21,356 32,535 10,179 21,359 34,538 13,-282 34,-607 63,-980 29,-372 71,-794 121,-1263 229,-50 458,-99 687,-148 3,49 11,167 21,351 11,185 30,438 47,759 12,214 27,429 37,645 11,214 24,430 37,646 21,-416 48,-829 76,-1239 29,-413 69,-824 111,-1233 213,-45 429,-90 645,-135zm2623 -527c-50,693 -104,1384 -152,2069 -49,683 -100,1364 -148,2041 -276,0 -552,2 -826,2 -37,-297 -74,-615 -105,-953 -32,-336 -66,-692 -92,-1068 -16,164 -40,416 -69,755 -29,337 -71,761 -118,1269 -274,1 -548,2 -821,3 -50,-607 -102,-1210 -148,-1810 -46,-596 -100,-1190 -147,-1781 213,-44 429,-88 645,-133 10,215 23,430 34,645 10,215 24,430 37,646 10,209 20,418 29,627 9,210 21,420 34,630 13,-329 37,-709 66,-1143 29,-435 71,-925 121,-1470 229,-47 458,-93 687,-138 2,58 10,193 21,406 10,214 31,508 47,880 11,248 24,497 34,745 11,249 27,499 40,748 18,-480 46,-957 76,-1430 30,-473 68,-945 111,-1414 213,-42 428,-84 644,-126zm424 3254c0,284 0,569 0,852 -161,1 -321,2 -479,2 0,-278 0,-555 0,-834 158,-6 318,-13 479,-20zm195 -3371c221,-41 442,-82 665,-124 182,-33 319,-34 416,-2 97,33 170,91 219,176 49,86 81,194 100,324 18,131 25,336 23,617 0,130 0,260 0,390 0,285 -17,496 -50,628 -33,134 -95,239 -184,315 -89,77 -208,120 -353,131 -60,4 -118,9 -176,14 -2,292 -2,583 -2,875 0,292 0,585 0,876 -222,1 -443,2 -664,3 0,-704 2,-1408 3,-2111 1,-704 3,-1409 3,-2112zm663 618c-3,369 -3,737 -3,1106 19,0 34,-1 47,-2 61,-7 103,-37 127,-91 23,-53 34,-161 34,-324 0,-119 -1,-240 0,-360 1,-150 -11,-247 -37,-288 -26,-40 -84,-54 -168,-41zm952 -913c369,-65 737,-128 1106,-190 0,312 0,625 0,938 -148,19 -295,39 -442,60 -3,295 -3,589 -3,883 137,-15 273,-29 413,-44 0,297 -3,594 -3,891 -139,9 -276,20 -413,30 0,339 0,679 0,1018 161,-7 324,-13 487,-18 0,313 -3,626 -3,939 -384,2 -768,3 -1150,4 3,-751 5,-1504 6,-2255 1,-751 2,-1504 2,-2256zm2853 1362c-221,23 -442,45 -663,68 0,-147 -1,-294 0,-442 1,-280 -3,-454 -16,-522 -13,-68 -42,-99 -87,-93 -42,6 -67,39 -81,101 -15,61 -26,216 -27,463 -1,387 -1,774 -2,1161 -2,387 1,773 0,1160 -1,216 6,359 21,427 14,67 42,102 84,101 47,-1 80,-41 97,-120 17,-78 25,-232 27,-459 1,-191 0,-384 0,-577 -45,3 -87,6 -129,9 0,-246 0,-491 2,-737 258,-23 516,-45 774,-68 -3,446 -2,890 -3,1334 -1,445 -2,889 -2,1334 -140,0 -279,0 -416,1 -21,-117 -42,-234 -63,-351 -45,152 -100,266 -169,343 -68,76 -150,113 -244,113 -111,0 -213,-50 -311,-152 -97,-101 -171,-224 -221,-373 -50,-147 -83,-302 -95,-464 -12,-163 -16,-407 -16,-731 0,-235 -1,-470 0,-704 2,-234 3,-468 3,-703 0,-452 16,-782 42,-990 27,-210 103,-409 227,-601 123,-192 286,-305 484,-337 192,-31 350,19 479,153 129,136 210,308 250,516 39,208 55,517 55,926 0,71 0,143 0,214zm1660 -514c-205,23 -410,47 -615,70 0,-127 0,-254 0,-380 0,-177 -8,-290 -24,-336 -16,-46 -42,-67 -79,-62 -39,6 -68,42 -90,111 -20,67 -28,165 -28,297 0,170 11,297 34,381 22,82 85,179 187,292 292,326 476,605 552,829 76,224 113,594 113,1108 0,373 -24,648 -68,827 -43,177 -124,326 -245,445 -121,119 -263,178 -423,178 -179,0 -330,-67 -456,-200 -124,-132 -204,-299 -242,-503 -38,-204 -58,-493 -58,-868 0,-109 0,-219 0,-329 206,-11 411,-24 616,-36 0,207 0,414 0,621 0,191 7,315 24,368 17,55 50,80 92,79 45,-1 79,-36 100,-107 21,-70 31,-174 31,-311 0,-303 -20,-501 -60,-590 -41,-91 -145,-239 -308,-445 -163,-205 -274,-354 -326,-447 -53,-93 -98,-224 -132,-390 -34,-169 -50,-386 -50,-651 0,-383 25,-667 76,-852 52,-184 131,-335 243,-455 111,-119 247,-192 402,-217 174,-29 316,3 437,97 121,94 201,226 240,394 37,167 57,459 57,875 0,69 0,138 0,207zm932 -1738c-3,719 -4,1436 -5,2154 -2,718 -3,1436 -6,2155 132,-5 263,-9 398,-14 0,361 0,724 0,1086 -356,2 -711,3 -1063,4 2,-879 2,-1760 5,-2639 2,-879 2,-1759 5,-2639 221,-36 442,-71 666,-107zm1784 -283c61,935 125,1874 184,2815 59,945 121,1893 182,2844 -227,0 -453,1 -676,2 -14,-336 -24,-671 -35,-1007 -81,3 -160,5 -239,7 -13,334 -29,668 -40,1001 -229,1 -455,2 -681,2 55,-911 113,-1826 171,-2743 58,-920 116,-1843 176,-2770 319,-50 637,-100 958,-151zm-360 3662c-16,-316 -33,-670 -48,-1062 -14,-391 -29,-820 -47,-1287 -34,542 -65,1009 -84,1402 -20,392 -37,713 -45,961 74,-5 147,-9 224,-14zm2894 -4036c-2,1005 -5,2010 -8,3013 -2,1004 -5,2009 -8,3013 -192,1 -384,1 -576,2 -3,-670 -3,-1338 0,-2007 3,-669 5,-1338 5,-2007 -39,672 -81,1343 -121,2013 -39,669 -79,1336 -115,2002 -137,0 -274,0 -408,0 -40,-642 -83,-1285 -121,-1924 -39,-640 -74,-1279 -114,-1915 -2,640 -6,1280 -7,1921 -2,639 0,1280 -3,1920 -195,0 -387,0 -579,1 3,-955 5,-1911 8,-2867 2,-955 2,-1911 5,-2867 284,-43 569,-85 855,-128 27,350 50,765 77,1239 28,495 60,988 92,1483 23,-460 51,-920 76,-1382 25,-462 53,-924 79,-1388 287,-41 574,-82 863,-122zm661 4779c0,416 -3,831 -3,1245 -161,1 -321,1 -482,1 0,-410 3,-821 3,-1231 161,-5 321,-10 482,-15zm1739 -2325c-221,14 -442,29 -663,44 0,-361 1,-722 3,-1084 1,-317 -5,-512 -19,-589 -14,-77 -47,-113 -95,-108 -52,5 -88,55 -102,152 -15,97 -23,302 -24,618 -1,480 -4,962 -5,1444 -1,479 1,961 0,1441 -1,303 4,499 18,592 15,92 48,136 98,136 50,-1 81,-48 97,-142 16,-92 25,-311 26,-655 1,-262 0,-523 0,-786 221,-11 442,-22 663,-31 0,82 -2,164 -2,247 -2,655 -19,1119 -58,1393 -40,276 -120,516 -247,722 -128,207 -285,307 -472,307 -194,0 -354,-84 -481,-255 -126,-169 -208,-403 -247,-702 -40,-299 -60,-750 -58,-1351 0,-299 2,-597 2,-896 0,-298 2,-596 3,-896 1,-442 8,-774 21,-996 13,-223 51,-440 116,-653 64,-212 147,-385 258,-518 110,-133 242,-209 384,-226 195,-24 355,50 481,222 127,171 210,395 248,670 38,276 60,710 58,1299 -1,201 -3,401 -3,601zm1745 876c-2,652 -10,1113 -24,1384 -14,272 -51,520 -116,745 -64,224 -150,397 -258,516 -108,120 -231,180 -376,180 -137,0 -255,-56 -363,-167 -108,-112 -195,-278 -261,-500 -65,-221 -102,-462 -115,-723 -13,-262 -18,-719 -16,-1372 1,-361 2,-724 3,-1086 1,-638 8,-1088 21,-1355 13,-268 51,-513 115,-739 65,-226 150,-405 258,-534 108,-130 237,-203 379,-216 137,-14 256,32 366,135 109,102 196,264 260,486 65,221 104,466 116,732 12,267 15,735 13,1403 0,370 -1,741 -2,1111zm-658 -2089c1,-298 -7,-488 -19,-571 -11,-82 -36,-121 -78,-118 -32,2 -58,38 -77,107 -18,67 -28,267 -29,596 -1,500 -1,1000 -2,1498 -2,499 -4,999 -6,1497 -1,372 2,602 13,687 12,89 40,131 85,130 42,-1 71,-51 84,-151 13,-101 20,-341 21,-719 1,-492 4,-985 5,-1478 1,-492 1,-985 3,-1478zm2960 -1854c-2,1104 -4,2209 -8,3313 -4,1104 -7,2209 -10,3313 -195,0 -390,0 -582,0 3,-742 3,-1485 6,-2228 2,-742 5,-1485 7,-2229 -42,744 -86,1488 -126,2231 -39,742 -79,1485 -118,2227 -137,0 -271,0 -405,0 -40,-721 -82,-1443 -119,-2164 -37,-720 -76,-1441 -113,-2161 -3,721 -5,1443 -8,2163 -3,721 -3,1442 -5,2163 -195,0 -387,1 -579,1 2,-1085 6,-2171 10,-3256 4,-1084 6,-2171 8,-3256 284,-22 569,-43 855,-60 24,395 48,863 77,1396 29,555 58,1110 89,1666 24,-513 54,-1026 79,-1540 25,-513 53,-1028 79,-1542 287,-13 574,-26 863,-37z"/>
  </g>
 </g>
</svg>
