<?xml version="1.0" encoding="UTF-8"?>
<svg xmlns="http://www.w3.org/2000/svg" xmlns:xlink="http://www.w3.org/1999/xlink" width="180px" height="100px" viewBox="0 0 180 100" version="1.1">
<g id="surface1">
<path style="fill-rule:evenodd;fill:rgb(0%,0%,0%);fill-opacity:1;stroke-width:20;stroke-linecap:butt;stroke-linejoin:miter;stroke:rgb(0%,0%,0%);stroke-opacity:1;stroke-miterlimit:4;" d="M 1163.713108 1119.23327 L 117736.286892 1119.23327 L 117736.286892 82980.76673 L 1163.713108 82980.76673 Z M 1163.713108 1119.23327 " transform="matrix(0.00151388,0,0,0.00118903,0,0.0012277)"/>
<path style=" stroke:none;fill-rule:evenodd;fill:rgb(92.156863%,29.019609%,70.588237%);fill-opacity:1;" d="M 113.121094 54.578125 C 114.453125 54.332031 115.828125 53.683594 117.164062 53.5625 C 117.253906 54.429688 114.140625 67.605469 113.6875 70.007812 C 113.5 70.992188 113.503906 70.746094 113.191406 70.769531 C 112.992188 70.441406 113.03125 56.105469 113.121094 54.578125 Z M 127.648438 52.976562 C 127.703125 52.636719 127.9375 52.527344 128.148438 52.28125 C 128.992188 51.292969 128.679688 51.792969 131.273438 51.800781 L 134.34375 51.773438 C 134.359375 52.007812 134.332031 52.679688 133.976562 52.804688 Z M 115.222656 72.082031 L 117.066406 63.230469 C 117.441406 61.808594 118.453125 55.484375 118.875 54.753906 C 130.625 54.109375 146.460938 54.355469 157.429688 53.265625 C 157.898438 53.210938 158.46875 53.226562 158.496094 53.527344 C 158.699219 55.949219 158.628906 79.367188 158.632812 83.054688 C 158.632812 84.367188 158.726562 84.160156 157.746094 84.847656 L 154.429688 87.222656 C 154.203125 87.390625 153.144531 88.246094 152.878906 88.367188 C 152.765625 88.554688 143.300781 86.832031 142.335938 86.609375 L 142.449219 83.605469 C 141.800781 83.683594 140.980469 84.632812 140.519531 85.058594 C 138.992188 86.261719 139.574219 86.195312 137.445312 85.929688 C 134.199219 85.527344 131.046875 85.277344 127.710938 84.910156 C 122.324219 84.320312 116.65625 84.261719 111.265625 83.835938 L 101.453125 83.4375 C 98.542969 83.390625 98.316406 83.746094 96.777344 81.738281 C 96.066406 81.6875 95.417969 81.832031 94.664062 81.890625 C 94.992188 82.183594 95.238281 82.617188 95.527344 82.90625 C 97.402344 84.78125 100.292969 88.070312 100.695312 90.4375 C 100.898438 91.648438 100.441406 92.34375 99.449219 92.8125 C 96.550781 94.183594 91.402344 93.671875 88.367188 93.210938 C 81.914062 92.230469 75.949219 89.710938 71.453125 86.421875 C 70.007812 85.367188 68.511719 84.226562 67.386719 82.988281 L 63.261719 83.050781 C 63.210938 83.605469 63.234375 84.046875 63.125 84.574219 C 58.132812 84.898438 52.132812 85.605469 46.84375 86.269531 C 46.390625 85.707031 45.625 85.144531 45.042969 84.5625 C 42.285156 81.8125 42.351562 82.851562 42.308594 80.65625 C 42.292969 79.8125 42.277344 78.972656 42.273438 78.128906 C 42.269531 77.242188 41.550781 77.554688 40.46875 77.730469 C 37.964844 78.136719 38.421875 77.539062 38.429688 80.378906 C 38.429688 81.117188 38.425781 81.855469 38.429688 82.59375 C 38.433594 84.078125 38.449219 85.578125 38.421875 87.0625 L 27.128906 89.207031 C 26.519531 88.679688 24.335938 87.308594 23.566406 86.863281 C 21.105469 85.4375 21.46875 85.96875 21.464844 83.421875 L 21.507812 52.90625 C 27.101562 52.671875 34.128906 53.316406 39.726562 53.851562 C 39.628906 51.703125 39.414062 49.800781 39.851562 47.667969 C 40.851562 42.78125 47.433594 34.644531 47.460938 34.265625 L 44.757812 34.242188 C 44.769531 33.289062 46.617188 30.503906 47.097656 29.753906 C 47.910156 28.480469 49.234375 26.878906 50.21875 25.847656 C 55.488281 20.320312 59.777344 17.894531 66.863281 13.65625 C 67.261719 13.417969 67.671875 13.191406 68.050781 12.921875 C 69.03125 12.222656 70.285156 11.523438 71.292969 10.769531 C 73.574219 9.0625 73.230469 8.726562 74.5625 7.058594 C 76.976562 6.921875 81.480469 9.570312 82.886719 10.578125 C 84.035156 11.402344 84.945312 12.230469 86.015625 13.101562 C 87.019531 13.914062 87.871094 14.882812 88.886719 15.785156 C 91.058594 15.90625 93.277344 15.777344 95.464844 15.933594 C 100.582031 16.304688 106.699219 17.582031 111.042969 19.449219 C 112.558594 20.097656 113.722656 20.730469 115.015625 21.585938 L 126.332031 28.472656 C 129.421875 30.3125 130.859375 31.261719 133.269531 33.53125 C 134.332031 34.535156 134.902344 35.710938 136.382812 36.355469 C 139.195312 37.578125 139.273438 38.996094 140.414062 39.632812 C 141.429688 40.199219 142.277344 40.894531 142.320312 42.011719 C 142.378906 43.460938 141.632812 45.046875 140.726562 46.027344 C 140.148438 46.65625 140.851562 48.5 139.738281 50.503906 C 139.121094 51.609375 137.6875 52.792969 136.039062 52.746094 C 136.191406 51.808594 136.824219 50.886719 135.972656 49.65625 C 135.519531 49.664062 134.582031 50.019531 133.765625 50.125 C 130.539062 50.554688 128.234375 49.269531 126.976562 51.007812 C 125.269531 53.367188 123.226562 53.542969 119.160156 53.28125 C 120.324219 52.492188 121.113281 52.242188 121.246094 50.730469 C 119.289062 50.824219 113.628906 52.621094 111.324219 53.3125 C 110.632812 53.519531 108.96875 54.152344 108.582031 54.644531 L 111.058594 54.660156 C 111.214844 56.925781 110.941406 71.171875 111.277344 71.824219 C 111.5625 72.097656 114.910156 72.101562 115.222656 72.082031 Z M 55.488281 18.667969 C 55.417969 18.71875 55.3125 18.808594 55.035156 19.023438 C 54.792969 19.214844 54.640625 19.308594 54.375 19.519531 C 53.972656 19.84375 53.429688 20.242188 53.042969 20.59375 C 50.957031 22.480469 50.078125 23.148438 48.144531 25.230469 C 46.960938 26.5 44.019531 30.453125 43.539062 31.699219 C 43.363281 32.191406 42.667969 33.292969 42.355469 34.4375 C 42.203125 34.988281 41.953125 35.566406 42.890625 35.65625 C 43.128906 35.675781 43.453125 35.675781 43.96875 35.703125 C 43.085938 37.535156 36.707031 44.320312 37.742188 52.019531 C 33.027344 51.59375 25.050781 51.125 19.464844 51.394531 L 19.535156 86.375 L 23.675781 88.902344 C 26.894531 90.820312 26.046875 91.03125 28.328125 90.574219 C 30.253906 90.1875 32.386719 89.796875 34.292969 89.421875 L 40.285156 88.324219 C 40.402344 85.320312 40.195312 82.21875 40.417969 79.28125 C 40.828125 80.066406 40.476562 81.367188 40.582031 82.324219 C 40.636719 82.816406 41.023438 83.035156 41.339844 83.320312 L 44.167969 85.988281 C 44.765625 86.558594 45.410156 87.285156 46.03125 87.765625 C 46.628906 87.339844 64.945312 85.460938 65.207031 85.757812 L 65.242188 84.855469 C 66.960938 84.710938 66.40625 84.8125 67.886719 85.902344 L 69.984375 87.570312 C 72.707031 89.542969 76.738281 91.664062 80.109375 92.726562 C 82.375 93.441406 83.867188 93.84375 86.386719 94.355469 C 90.488281 95.183594 97.285156 95.746094 100.722656 94.105469 C 104.535156 92.289062 102.28125 88.40625 100.621094 85.925781 C 100.398438 85.597656 100.007812 85.179688 99.867188 84.9375 C 109.757812 85.167969 126.261719 86.101562 135.859375 87.199219 C 136.675781 87.285156 137.523438 87.351562 138.3125 87.5 C 139.902344 87.804688 139.464844 87.394531 140.417969 87.132812 C 140.921875 88.203125 139.691406 87.472656 143.472656 88.214844 C 146.515625 88.808594 149.503906 89.289062 152.558594 89.941406 C 153.449219 90.132812 153.5 89.929688 154.066406 89.519531 C 155.761719 88.289062 157.046875 87.324219 158.773438 86.113281 C 160.59375 84.832031 160.507812 85 160.5 83.886719 L 160.496094 58.984375 C 160.496094 56.636719 160.59375 54.148438 160.480469 51.816406 L 140.53125 52.523438 C 140.71875 51.796875 141.648438 51.324219 142.191406 49.292969 C 142.65625 47.570312 143.21875 46.175781 143.699219 44.535156 C 144.707031 40.914062 143.429688 40.433594 141.167969 37.933594 C 139.246094 35.804688 138.296875 35.722656 136.765625 34.65625 C 133.585938 30.90625 130.8125 28.617188 123.9375 25.09375 C 117.429688 21.328125 114.777344 18.566406 106.875 16.265625 C 105.847656 15.964844 104.777344 15.75 103.71875 15.515625 C 100.636719 14.613281 96.410156 14.332031 93.070312 14.128906 C 86.976562 13.753906 91.816406 14.800781 85.015625 9.921875 C 82.726562 8.277344 82.5625 8.238281 79.925781 6.902344 C 78.699219 6.285156 75.027344 5.027344 73.289062 5.15625 C 72.847656 5.613281 72.679688 6.324219 72.265625 6.925781 C 71.886719 7.480469 71.484375 8.03125 70.9375 8.550781 C 69.835938 9.601562 68.734375 10.25 67.503906 11.109375 C 66.203125 12.019531 64.992188 12.683594 63.730469 13.40625 L 59.910156 15.734375 Z M 55.488281 18.667969 "/>
<path style=" stroke:none;fill-rule:evenodd;fill:rgb(58.039218%,89.411765%,22.745098%);fill-opacity:1;" d="M 92.566406 35.652344 C 92.570312 39.953125 95.222656 43.382812 99.875 44.933594 C 100.816406 45.25 103.539062 45.972656 104.722656 45.957031 C 104.582031 45.730469 103.578125 45.039062 103.171875 44.628906 C 97.296875 38.683594 102.878906 31.886719 104.449219 31.414062 C 104.117188 32.488281 103.472656 33.074219 102.957031 35.171875 C 101.878906 39.554688 103.105469 43.316406 109.027344 44.917969 C 114.617188 46.429688 119.316406 45.03125 123.671875 42.59375 C 124.480469 42.140625 126.746094 40.707031 127.414062 40.4375 C 127.324219 40.792969 126.898438 41.394531 126.691406 41.761719 C 126.484375 42.136719 126.15625 42.769531 126.0625 43.257812 C 126.398438 43.113281 126.128906 43.269531 126.375 43.058594 C 126.414062 43.027344 126.519531 42.910156 126.582031 42.839844 C 126.742188 42.660156 126.867188 42.515625 127.03125 42.371094 C 129.488281 40.171875 132.378906 38.648438 136.515625 38.714844 C 136.25 38.222656 133.386719 37.027344 133.148438 37.007812 C 131.1875 36.859375 128.15625 38.144531 124.449219 35.667969 C 123.417969 34.980469 123.746094 35.503906 122.355469 35.40625 C 118.925781 35.152344 120.367188 34.84375 118.898438 35.796875 C 116.328125 37.46875 112.875 36.179688 112.050781 33.507812 C 111.019531 33.464844 109.886719 33.285156 108.847656 33.367188 C 107.769531 33.457031 107.40625 34 106.867188 34.4375 C 106.683594 32.605469 108.789062 29.460938 111.195312 28.726562 C 112.625 28.292969 113.527344 28.894531 114.566406 28.808594 C 112.421875 27.269531 107.78125 26.847656 104.953125 28.4375 C 104.566406 28.65625 104.269531 28.957031 103.917969 29.078125 C 103.253906 28.589844 103.5 28.339844 102.160156 28.3125 C 99.910156 28.265625 98.183594 29.667969 96.988281 30.886719 C 96.558594 30.292969 98.917969 27.332031 101.039062 26.113281 C 101.15625 26.046875 101.292969 25.96875 101.457031 25.882812 C 101.742188 25.734375 101.726562 25.773438 101.929688 25.59375 C 100.015625 25.597656 96.90625 28.066406 95.691406 29.382812 C 94.371094 30.816406 92.566406 33.421875 92.566406 35.652344 Z M 92.566406 35.652344 "/>
<path style=" stroke:none;fill-rule:evenodd;fill:rgb(100%,100%,100%);fill-opacity:1;" d="M 32.328125 60.394531 C 33.394531 60.207031 35.71875 60.414062 36.253906 60.851562 C 36.921875 61.390625 36.636719 63.300781 36.636719 64.148438 C 36.636719 66.859375 37.347656 68.214844 32.351562 67.863281 Z M 26.238281 64.886719 L 26.230469 82.75 L 32.433594 81.921875 L 32.394531 73.46875 C 36.363281 73.164062 37.726562 73.675781 40.40625 71.714844 C 42.753906 70 42.660156 68.316406 42.660156 65.347656 L 42.660156 61.195312 C 42.660156 57.179688 41.789062 56.261719 37.078125 55.871094 L 25.183594 55.425781 C 25.324219 55.742188 25.203125 55.550781 25.460938 55.875 C 25.960938 56.492188 26.226562 56.523438 26.246094 57.226562 Z M 26.238281 64.886719 "/>
<path style=" stroke:none;fill-rule:evenodd;fill:rgb(100%,100%,100%);fill-opacity:1;" d="M 124.1875 71.742188 L 125.757812 61.597656 L 127.253906 71.773438 Z M 122.828125 79 L 123.34375 75.40625 L 127.835938 75.609375 L 128.289062 79.328125 L 134.160156 79.785156 L 133.070312 74.019531 L 129.910156 56.542969 L 121.765625 56.59375 L 116.957031 78.625 Z M 122.828125 79 "/>
<path style=" stroke:none;fill-rule:evenodd;fill:rgb(100%,100%,100%);fill-opacity:1;" d="M 51.253906 75.164062 L 51.230469 69.898438 L 57.023438 69.910156 L 57.949219 65.523438 L 51.367188 65.527344 L 51.386719 60.792969 L 58.996094 60.773438 L 58.996094 56.464844 L 45.332031 56.203125 L 45.328125 80.453125 L 58.9375 79.273438 L 58.9375 74.855469 Z M 51.253906 75.164062 "/>
<path style=" stroke:none;fill-rule:evenodd;fill:rgb(100%,100%,100%);fill-opacity:1;" d="M 90.53125 77.503906 C 67.367188 77.699219 120.714844 77.246094 90.53125 77.503906 Z M 100.21875 75.613281 C 100.585938 74.929688 100.503906 69.832031 100.164062 69.046875 C 99.761719 68.113281 99.15625 67.605469 98.085938 67.167969 C 96.9375 66.699219 96.277344 66.375 95.199219 65.929688 C 90.992188 64.195312 90.792969 64.519531 90.839844 62.300781 C 90.878906 60.667969 91.683594 60.878906 93.59375 60.902344 C 95.136719 60.925781 94.773438 61.820312 94.84375 63.527344 L 100.292969 62.8125 C 100.261719 60.386719 100.96875 57.203125 95.699219 56.855469 C 94.292969 56.761719 90.988281 56.78125 89.695312 56.941406 C 84.953125 57.527344 85.25 60.503906 85.246094 62.949219 C 85.242188 64.855469 84.878906 65.828125 86.335938 66.898438 C 87.015625 67.398438 89.203125 68.207031 90.195312 68.660156 C 90.65625 68.871094 92.476562 69.585938 93.460938 70.058594 L 94.488281 70.558594 C 94.914062 70.761719 94.941406 70.75 94.90625 72.449219 C 94.882812 73.597656 94.839844 74.085938 93.359375 74.078125 C 92.34375 74.09375 91.109375 74.226562 90.769531 73.488281 C 90.699219 73.335938 90.660156 73.175781 90.660156 73.007812 L 90.640625 71.019531 L 85.183594 71.660156 L 85.140625 74.835938 C 85.132812 75.355469 85.34375 75.835938 85.597656 76.230469 C 86.378906 77.421875 87.804688 78.121094 89.945312 78.109375 L 96.503906 77.984375 C 98.363281 77.949219 99.824219 77.207031 100.21875 75.613281 Z M 100.21875 75.613281 "/>
<path style=" stroke:none;fill-rule:evenodd;fill:rgb(100%,100%,100%);fill-opacity:1;" d="M 102.847656 78.230469 L 115.160156 78.628906 L 115.15625 74.386719 L 108.546875 74.164062 L 108.515625 56.863281 L 102.835938 56.84375 Z M 102.847656 78.230469 "/>
<path style=" stroke:none;fill-rule:evenodd;fill:rgb(58.039218%,89.411765%,22.745098%);fill-opacity:1;" d="M 117.855469 78.074219 L 122.152344 78.375 L 122.773438 74.804688 L 128.496094 75.097656 L 128.980469 78.847656 L 133.3125 79.171875 L 131.671875 70.578125 L 127.792969 70.433594 L 128.074219 72.335938 L 123.34375 72.226562 L 123.65625 70.296875 L 119.515625 70.171875 Z M 117.855469 78.074219 "/>
<path style=" stroke:none;fill-rule:evenodd;fill:rgb(58.039218%,89.411765%,22.745098%);fill-opacity:1;" d="M 94.652344 69.976562 C 95.222656 70.1875 95.40625 70.398438 95.542969 70.90625 C 95.65625 71.316406 95.609375 72.003906 95.605469 72.449219 C 95.605469 73.4375 95.507812 74.359375 94.230469 74.527344 C 93.324219 74.644531 91.351562 74.6875 90.65625 74.28125 C 90.167969 73.996094 90.003906 73.59375 89.988281 73.140625 L 89.933594 71.71875 L 85.828125 72.195312 L 85.871094 75.105469 C 86.011719 75.894531 86.554688 76.535156 87.269531 76.949219 C 88.820312 77.847656 92.308594 77.5 94.289062 77.496094 C 97.066406 77.5 98.640625 77.457031 99.542969 75.554688 C 99.6875 75.253906 99.804688 74.617188 99.804688 73.863281 L 99.804688 69.824219 L 94.140625 69.773438 Z M 94.652344 69.976562 "/>
<path style=" stroke:none;fill-rule:evenodd;fill:rgb(58.039218%,89.411765%,22.745098%);fill-opacity:1;" d="M 93.707031 88.773438 C 93.792969 88.855469 93.941406 89.070312 93.167969 88.832031 L 91.664062 88.246094 C 88.210938 86.804688 85.414062 85.824219 81.859375 84.050781 L 78.210938 82.246094 C 78.328125 82.671875 80.308594 84.125 80.75 84.460938 C 83.179688 86.308594 87.015625 88.484375 89.980469 89.785156 C 89.390625 90.050781 83.476562 87.578125 82.515625 87.140625 C 81.269531 86.578125 80.292969 86.007812 79.121094 85.375 C 78.300781 84.929688 76.28125 83.585938 76.023438 83.554688 C 76.097656 83.988281 78.664062 86.0625 79.160156 86.449219 C 79.738281 86.898438 82.117188 88.632812 82.859375 88.863281 C 82.789062 88.980469 83.152344 88.96875 82.546875 88.949219 C 82.414062 88.867188 79.972656 88.078125 79.613281 87.941406 C 73.523438 85.632812 72.777344 83.871094 72.085938 83.589844 C 72.570312 84.777344 75.242188 86.410156 76.585938 87.1875 C 78.179688 88.113281 80.925781 89.105469 82.648438 89.625 C 85.75 90.558594 90.613281 91.511719 94.054688 91.488281 C 96.175781 91.601562 97.988281 91.417969 97.941406 90.90625 C 97.886719 90.339844 97.148438 89.308594 96.800781 88.828125 C 95.179688 86.574219 81.726562 81.210938 79.964844 80.953125 C 80.3125 81.433594 82.691406 82.578125 83.417969 83.015625 Z M 93.707031 88.773438 "/>
<path style=" stroke:none;fill-rule:evenodd;fill:rgb(58.039218%,89.411765%,22.745098%);fill-opacity:1;" d="M 31.707031 76.597656 L 31.695312 72.960938 L 32.871094 72.910156 C 34.398438 72.773438 36.863281 72.742188 37.972656 72.402344 C 38.601562 72.210938 39.996094 71.519531 40.207031 70.96875 C 35.796875 71.179688 31.398438 71.449219 27.003906 71.8125 L 27.003906 81.984375 L 31.699219 81.40625 Z M 31.707031 76.597656 "/>
<path style=" stroke:none;fill-rule:evenodd;fill:rgb(58.039218%,89.411765%,22.745098%);fill-opacity:1;" d="M 106.136719 22.648438 C 106.457031 22.773438 107.507812 22.917969 108.050781 23.09375 C 112.183594 24.441406 114.777344 26.675781 118.964844 28.714844 C 122.453125 30.414062 125.039062 31.5625 127.890625 33.792969 C 128.476562 34.253906 129.859375 35.390625 130.246094 35.988281 L 131.792969 35.972656 C 131.816406 34.832031 127.972656 31.929688 126.980469 31.277344 C 124.15625 29.40625 118.203125 26.824219 114.246094 24.492188 C 112.558594 23.5 110.929688 22.746094 108.71875 22.589844 C 108.136719 22.546875 106.660156 22.398438 106.136719 22.648438 Z M 106.136719 22.648438 "/>
<path style=" stroke:none;fill-rule:evenodd;fill:rgb(58.039218%,89.411765%,22.745098%);fill-opacity:1;" d="M 41.109375 40.003906 C 39.773438 39.953125 37.378906 40.464844 36.113281 40.5625 L 21.535156 41.609375 C 22.019531 41.828125 32.40625 43.65625 34.730469 44.070312 L 38.570312 45.136719 C 39.238281 43.386719 40.078125 41.660156 41.109375 40.003906 Z M 41.109375 40.003906 "/>
<path style=" stroke:none;fill-rule:evenodd;fill:rgb(58.039218%,89.411765%,22.745098%);fill-opacity:1;" d="M 131.675781 29.742188 C 131.882812 29.902344 135.175781 32.785156 135.503906 33.226562 C 136.089844 33.0625 140.890625 30.480469 141.734375 30.03125 C 142.628906 29.554688 147.3125 27.308594 147.710938 26.882812 C 146.996094 26.875 144.558594 27.386719 143.71875 27.53125 C 140.058594 28.15625 135.109375 29.21875 131.675781 29.742188 Z M 131.675781 29.742188 "/>
<path style=" stroke:none;fill-rule:evenodd;fill:rgb(58.039218%,89.411765%,22.745098%);fill-opacity:1;" d="M 116.089844 20.222656 L 121.140625 23.402344 C 121.484375 23.265625 124.796875 19.144531 125.367188 18.464844 L 129.46875 13.582031 C 128.820312 13.597656 128.285156 14.011719 127.710938 14.277344 L 117.773438 19.289062 C 117.0625 19.613281 116.683594 19.726562 116.089844 20.222656 Z M 116.089844 20.222656 "/>
<path style=" stroke:none;fill-rule:evenodd;fill:rgb(100%,100%,100%);fill-opacity:1;" d="M 67.566406 61.394531 C 67.929688 61.167969 67.476562 60.851562 69.039062 60.867188 C 69.621094 60.875 70.808594 60.761719 71.199219 60.988281 C 71.984375 61.453125 71.730469 63.441406 71.710938 64.28125 L 77.566406 63.132812 C 77.636719 61.621094 77.824219 59.894531 77.046875 58.605469 C 76.335938 57.421875 74.882812 56.777344 73.042969 56.691406 C 70.964844 56.601562 68.785156 56.554688 66.691406 56.589844 C 64.777344 56.621094 63.273438 57.121094 62.328125 58.222656 C 61.195312 59.542969 61.425781 60.761719 61.429688 62.582031 C 61.433594 65.960938 61.429688 69.34375 61.425781 72.726562 C 61.417969 79.050781 62.371094 78.992188 70.574219 78.621094 C 74.335938 78.558594 77.1875 77.835938 77.59375 74.367188 L 77.597656 70.414062 L 77.59375 69.371094 L 70.652344 69.390625 C 70.261719 69.925781 70.292969 70.589844 71.273438 70.640625 C 71.542969 70.65625 71.449219 70.648438 71.710938 70.644531 L 71.710938 73.507812 C 71.554688 74.390625 71.179688 74.332031 69.867188 74.34375 C 67.058594 74.371094 67.519531 74.675781 67.519531 71.34375 C 67.519531 70.234375 67.519531 69.128906 67.519531 68.023438 C 67.519531 66.015625 67.328125 63.316406 67.566406 61.394531 Z M 67.566406 61.394531 "/>
<path style=" stroke:none;fill-rule:evenodd;fill:rgb(58.039218%,89.411765%,22.745098%);fill-opacity:1;" d="M 104.539062 4.839844 C 104.507812 4.859375 104.464844 4.886719 104.445312 4.898438 L 104.265625 5.015625 C 103.722656 5.390625 103.6875 5.5625 103.339844 6.03125 C 101.5 8.507812 98.988281 11.207031 96.96875 13.703125 C 96.875 13.828125 96.390625 14.359375 96.429688 14.359375 C 96.910156 14.386719 103.046875 15.320312 103.320312 15.402344 Z M 104.539062 4.839844 "/>
<path style=" stroke:none;fill-rule:evenodd;fill:rgb(58.039218%,89.411765%,22.745098%);fill-opacity:1;" d="M 127.933594 44.96875 C 127.132812 47.292969 128.695312 48.253906 131.402344 48.449219 C 136.210938 48.800781 136.546875 46.484375 135.738281 45.824219 C 134.980469 46.246094 135.5 46.921875 133.804688 47.316406 C 131.3125 47.898438 126.640625 46.734375 131.269531 43.667969 C 133.890625 41.933594 138.945312 40.828125 138.460938 43.582031 C 138.265625 44.6875 137.183594 45.0625 137.003906 45.539062 C 138.230469 45.265625 141.40625 42.046875 138.597656 40.503906 C 136.238281 39.207031 132.53125 40.46875 130.808594 41.367188 C 129 42.308594 126.914062 44.050781 125.582031 45.292969 C 124.347656 46.4375 124.132812 48.421875 123.792969 49.957031 C 123.660156 50.5625 123.394531 51.09375 123.253906 51.648438 C 125.148438 51.4375 125.140625 49.128906 125.660156 47.828125 C 126.425781 45.925781 126.601562 45.441406 128.191406 44.097656 L 128.535156 43.945312 Z M 127.933594 44.96875 "/>
<path style=" stroke:none;fill-rule:evenodd;fill:rgb(58.039218%,89.411765%,22.745098%);fill-opacity:1;" d="M 58.359375 25.25 C 57.59375 25.167969 55.980469 25.0625 55.410156 24.863281 C 55.714844 24.589844 57.582031 24.164062 58.027344 24.0625 C 59.148438 23.808594 60.101562 23.714844 61.359375 23.675781 C 61.035156 23.371094 60.355469 23.246094 59.679688 23.066406 C 59.09375 22.910156 58.679688 22.628906 58.015625 22.582031 C 58.925781 22.488281 60.109375 22.332031 61.019531 22.3125 C 62.136719 22.285156 63.054688 22.328125 64.140625 22.230469 C 64.121094 22.207031 64.082031 22.148438 64.070312 22.167969 C 64.058594 22.183594 64.019531 22.121094 64 22.105469 L 63.351562 21.777344 C 62.730469 21.503906 61.492188 20.773438 60.90625 20.753906 C 60.160156 20.722656 61.316406 20.449219 61.601562 20.410156 C 62.996094 20.46875 63.574219 20.28125 64.921875 20.539062 C 65.820312 20.710938 66.894531 21.097656 67.65625 21.191406 C 67.167969 20.296875 63.90625 18.753906 63.902344 18.75 C 63.65625 18.558594 63.804688 18.757812 63.683594 18.476562 C 65.289062 18.441406 65.957031 18.484375 67.371094 18.789062 L 70.523438 19.65625 C 70.265625 19.121094 67.667969 17.121094 67.078125 16.949219 L 67.085938 16.71875 C 69.324219 17.066406 69.023438 16.472656 72.574219 17.945312 C 73.152344 18.183594 73.617188 18.519531 74.085938 18.675781 C 73.898438 18.261719 71.636719 16.144531 70.953125 15.621094 C 70.5625 15.320312 70.007812 15.011719 69.691406 14.71875 C 69.832031 14.636719 69.730469 14.660156 69.992188 14.605469 C 70.683594 14.46875 71.710938 14.773438 72.363281 14.964844 C 74.011719 15.449219 78.269531 17.632812 78.433594 17.667969 C 78.253906 17.246094 76.347656 15.292969 75.730469 14.722656 C 75.4375 14.457031 75.300781 14.320312 75.035156 14.070312 C 74.636719 13.691406 73.835938 13.042969 73.675781 12.644531 C 75.28125 12.757812 76.964844 13.621094 78.152344 14.300781 L 81.734375 16.574219 C 81.515625 15.984375 77.144531 11.429688 76.402344 10.863281 L 76.246094 10.351562 C 77.976562 10.824219 81.867188 13.675781 83.359375 14.910156 L 85.476562 16.644531 C 85.28125 15.507812 81.039062 11.804688 79.378906 10.945312 C 78.691406 10.453125 76.59375 9.472656 75.386719 9.390625 L 74.699219 10.210938 C 71.550781 13.664062 62.691406 18.128906 57.964844 21.601562 C 55.9375 23.09375 53.449219 25.3125 51.8125 27.101562 C 51.289062 27.671875 49.398438 29.644531 49.148438 30.265625 C 50.1875 30.023438 52.082031 28.359375 54.140625 27.726562 L 55.636719 27.335938 C 55.867188 27.269531 56.277344 27.203125 55.808594 27.140625 C 50.535156 26.273438 57.546875 26.488281 58.359375 25.25 Z M 55.804688 27.140625 L 58.238281 22.371094 Z M 55.804688 27.140625 "/>
<path style=" stroke:none;fill-rule:evenodd;fill:rgb(58.039218%,89.411765%,22.745098%);fill-opacity:1;" d="M 87.542969 38.195312 C 87.796875 38.027344 87.65625 38.199219 87.8125 37.929688 L 88.402344 35.691406 C 89.40625 32.222656 92.109375 28.273438 95.316406 25.761719 C 95.996094 25.226562 96.566406 24.832031 97.339844 24.3125 L 99.019531 23.335938 C 99.457031 23.128906 99.425781 23.191406 99.660156 22.855469 C 96.058594 23.347656 92.71875 26.328125 90.921875 28.394531 C 88.722656 30.933594 87.320312 34.28125 87.542969 38.195312 Z M 87.542969 38.195312 "/>
<path style=" stroke:none;fill-rule:evenodd;fill:rgb(100%,100%,100%);fill-opacity:1;" d="M 141.082031 65.867188 L 144.371094 76.351562 L 146.890625 76.515625 C 147.222656 75.6875 147.449219 74.652344 147.722656 73.820312 L 149.527344 68.632812 C 149.757812 67.960938 150.160156 66.585938 150.5 66.105469 L 150.488281 81.574219 L 155.617188 82.375 L 155.628906 55.8125 L 148.597656 56.101562 L 145.601562 67.25 C 145.472656 67.09375 143.167969 57.425781 142.867188 56.320312 L 135.386719 56.480469 L 135.390625 79.878906 L 141.003906 80.464844 Z M 141.082031 65.867188 "/>
<path style=" stroke:none;fill-rule:evenodd;fill:rgb(58.039218%,89.411765%,22.745098%);fill-opacity:1;" d="M 72.363281 70.417969 C 72.535156 70.753906 72.511719 73.3125 72.382812 73.800781 C 72.070312 75 70.832031 74.945312 69.28125 74.960938 C 68.277344 74.964844 67.75 75.015625 67.207031 74.542969 C 66.605469 74.019531 66.773438 73.140625 66.773438 72.261719 L 66.761719 69.972656 L 62.148438 70.085938 L 62.1875 74.753906 C 62.089844 78.789062 65.984375 78.101562 70.566406 78.027344 C 72.824219 77.992188 74.171875 77.886719 75.496094 76.777344 C 76.980469 75.527344 76.824219 74.53125 76.824219 72.539062 C 76.824219 71.851562 76.949219 69.769531 76.929688 69.796875 L 71.257812 69.878906 C 70.847656 70.453125 71.867188 70.289062 72.363281 70.417969 Z M 72.363281 70.417969 "/>
<path style="fill-rule:evenodd;fill:rgb(58.039218%,89.411765%,22.745098%);fill-opacity:1;stroke-width:7.62;stroke-linecap:butt;stroke-linejoin:miter;stroke:rgb(58.039218%,89.411765%,22.745098%);stroke-opacity:1;stroke-miterlimit:4;" d="M 45315.143229 40972.442292 C 45500.924479 40893.596606 47121.349826 40331.821093 47536.777344 40203.696853 C 48359.891493 39950.733611 49069.472656 39783.186528 50034.503038 39605.783735 C 50996.953125 39431.666178 51706.534288 39395.528572 52736.072049 39283.830517 C 53326.959635 39221.411016 55334.429253 39326.538597 55693.090278 39135.994856 C 54431.325955 38791.04498 50377.682292 38932.310167 48937.877604 39129.424382 C 47500.653212 39333.109071 44471.386719 39931.02219 43699.878472 40995.43895 C 43449.589844 41810.177705 47301.970486 43994.860254 49441.035156 44277.390629 C 50689.898003 44438.367238 52312.903646 44109.843546 53368.244358 43705.759405 C 53987.515191 43469.222347 56000.145399 42493.506984 56302.039931 42082.852369 L 53347.601997 42759.611174 C 51918.11849 43045.426785 50775.047743 43051.997259 50065.46658 43189.97721 C 49745.509983 43186.691973 49766.152344 43127.557708 49833.240017 43091.420102 L 55143.487413 41218.83506 C 54893.198785 41057.858452 51685.891927 41724.761545 51141.449653 41813.462942 C 50026.762153 41997.436209 48073.478733 42342.386085 46927.827691 42306.248479 C 47258.105469 42063.140948 50669.255642 41120.277953 51425.282118 40939.589923 L 56374.288194 40006.582639 C 54622.267795 39819.324134 48561.154514 40627.492416 46504.659288 40965.871818 L 45516.40625 41113.707479 C 45330.625 41143.274611 45281.599392 41107.137005 45315.143229 40972.442292 Z M 45315.143229 40972.442292 " transform="matrix(0.00151388,0,0,0.00118903,0,0.0012277)"/>
<path style=" stroke:none;fill-rule:evenodd;fill:rgb(58.039218%,89.411765%,22.745098%);fill-opacity:1;" d="M 147.730469 71.289062 L 143.5 71.082031 L 144.957031 75.824219 L 146.1875 75.921875 Z M 147.730469 71.289062 "/>
<path style=" stroke:none;fill-rule:evenodd;fill:rgb(58.039218%,89.411765%,22.745098%);fill-opacity:1;" d="M 142.671875 47.691406 C 145.613281 47.550781 150.734375 46.578125 153.929688 46.183594 C 153.925781 46.054688 144.492188 44.929688 143.617188 44.808594 Z M 142.671875 47.691406 "/>
<path style=" stroke:none;fill-rule:evenodd;fill:rgb(58.039218%,89.411765%,22.745098%);fill-opacity:1;" d="M 93.535156 22.496094 C 94.269531 22.242188 95.050781 19.71875 99.222656 19.546875 C 100.535156 19.492188 102.222656 19.710938 103.457031 19.894531 L 107.351562 20.523438 C 106.871094 20.195312 106.148438 20.058594 105.535156 19.894531 C 103.585938 19.371094 101.203125 18.730469 99.109375 18.585938 C 97.15625 18.449219 96.113281 18.75 94.988281 19.507812 C 94.09375 20.101562 93.144531 21.359375 93.535156 22.496094 Z M 93.535156 22.496094 "/>
<path style=" stroke:none;fill-rule:evenodd;fill:rgb(58.039218%,89.411765%,22.745098%);fill-opacity:1;" d="M 97.800781 47.921875 C 99.175781 48.382812 103.320312 49.234375 105.128906 48.746094 C 104.625 48.578125 102.324219 48.480469 99.523438 47.308594 C 95.109375 45.457031 92.242188 43.25 90.839844 39.285156 C 90.6875 38.855469 90.558594 38.472656 90.507812 38.050781 C 90.453125 37.609375 90.613281 36.949219 90.414062 36.597656 C 89.847656 37.300781 90.035156 40.367188 90.3125 41.253906 C 91.398438 44.710938 93.621094 46.527344 97.800781 47.921875 Z M 97.800781 47.921875 "/>
<path style=" stroke:none;fill-rule:evenodd;fill:rgb(58.039218%,89.411765%,22.745098%);fill-opacity:1;" d="M 58.316406 78.75 L 58.316406 75.464844 L 50.75 75.875 L 50.714844 70.476562 L 46.0625 70.679688 L 46.023438 79.808594 Z M 58.316406 78.75 "/>
<path style=" stroke:none;fill-rule:evenodd;fill:rgb(58.039218%,89.411765%,22.745098%);fill-opacity:1;" d="M 71.828125 26.957031 C 70.09375 27.339844 68.796875 28.328125 67.902344 29.507812 C 65.808594 32.273438 67.929688 35.195312 68.625 34.125 C 68.957031 33.613281 68.074219 32.558594 69.03125 30.472656 C 70.121094 28.089844 71.613281 27.589844 71.828125 26.957031 Z M 71.828125 26.957031 "/>
<path style=" stroke:none;fill-rule:evenodd;fill:rgb(58.039218%,89.411765%,22.745098%);fill-opacity:1;" d="M 74.210938 31.660156 C 75.976562 31.164062 73.324219 28.574219 77.761719 25.160156 C 78.054688 24.9375 78.507812 24.785156 78.6875 24.488281 C 77.761719 24.554688 76.71875 25.042969 76.066406 25.402344 C 75.394531 25.769531 74.710938 26.445312 74.273438 27.039062 C 73.175781 28.515625 72.832031 30.898438 74.210938 31.660156 Z M 74.210938 31.660156 "/>
<path style=" stroke:none;fill-rule:evenodd;fill:rgb(58.039218%,89.411765%,22.745098%);fill-opacity:1;" d="M 43.539062 31.699219 C 43.664062 31.410156 46.296875 27.523438 46.546875 27.175781 C 44.582031 27.21875 34.171875 23.886719 30.285156 23.648438 C 30.464844 23.90625 43.1875 31.601562 43.539062 31.699219 Z M 43.539062 31.699219 "/>
<path style=" stroke:none;fill-rule:evenodd;fill:rgb(58.039218%,89.411765%,22.745098%);fill-opacity:1;" d="M 63.234375 37.253906 C 63.375 36.921875 62.898438 35.699219 62.90625 35.003906 C 62.945312 32.011719 65.601562 29.917969 65.78125 29.464844 C 64.203125 29.820312 62.480469 31.453125 61.90625 32.734375 C 61.285156 34.113281 61.277344 36.027344 62.492188 37.113281 C 62.601562 37.210938 62.601562 37.242188 62.757812 37.285156 C 63.03125 37.359375 63.15625 37.285156 63.234375 37.253906 Z M 63.234375 37.253906 "/>
<path style=" stroke:none;fill-rule:evenodd;fill:rgb(58.039218%,89.411765%,22.745098%);fill-opacity:1;" d="M 107.820312 74.710938 L 107.820312 69.898438 L 103.605469 69.839844 L 103.585938 77.59375 L 114.460938 78 L 114.453125 74.921875 Z M 107.820312 74.710938 "/>
<path style=" stroke:none;fill-rule:evenodd;fill:rgb(58.039218%,89.411765%,22.745098%);fill-opacity:1;" d="M 57.695312 40.121094 C 57.945312 39.410156 56.886719 38.132812 57.976562 35.695312 C 58.882812 33.667969 60.078125 33.011719 60.320312 32.527344 C 58.90625 32.632812 57.109375 34.496094 56.507812 35.695312 C 55.910156 36.882812 55.859375 38.464844 56.667969 39.65625 C 56.976562 40.113281 57.03125 40.320312 57.695312 40.121094 Z M 57.695312 40.121094 "/>
<path style=" stroke:none;fill-rule:evenodd;fill:rgb(58.039218%,89.411765%,22.745098%);fill-opacity:1;" d="M 88.066406 22.332031 C 88.753906 21.4375 88.609375 20.503906 90.96875 19.316406 C 93.214844 18.183594 95.234375 18.234375 95.742188 18.09375 C 96.03125 18.011719 95.949219 18.039062 96.117188 17.925781 C 93.339844 17.875 91.820312 17.542969 89.550781 18.566406 C 87.453125 19.511719 86.816406 22.160156 88.066406 22.332031 Z M 88.066406 22.332031 "/>
<path style=" stroke:none;fill-rule:evenodd;fill:rgb(58.039218%,89.411765%,22.745098%);fill-opacity:1;" d="M 110.617188 50.601562 C 110.355469 50.472656 109.308594 50.679688 108.730469 50.75 C 108 50.832031 107.339844 50.863281 106.574219 50.929688 C 105.0625 51.070312 103.472656 50.945312 102.089844 50.765625 C 100.058594 50.5 98.335938 50.179688 96.617188 49.414062 C 96.085938 49.175781 95.519531 48.832031 95.078125 48.675781 C 95.328125 49.1875 97.015625 50.144531 97.824219 50.484375 C 101.902344 52.207031 106.566406 51.800781 110.617188 50.601562 Z M 110.617188 50.601562 "/>
<path style=" stroke:none;fill-rule:evenodd;fill:rgb(58.039218%,89.411765%,22.745098%);fill-opacity:1;" d="M 81.632812 28.371094 C 82.074219 27.597656 81.183594 25.847656 83.742188 23.308594 C 84.125 22.933594 84.914062 22.378906 85.140625 22.101562 C 82.652344 22.238281 79.414062 25.335938 80.714844 27.863281 C 80.925781 28.28125 81.058594 28.480469 81.632812 28.371094 Z M 81.632812 28.371094 "/>
<path style=" stroke:none;fill-rule:evenodd;fill:rgb(58.039218%,89.411765%,22.745098%);fill-opacity:1;" d="M 112.902344 32.464844 C 113.390625 31.199219 116.351562 30.695312 118.285156 31.65625 C 119.847656 32.4375 120.683594 34.285156 122.976562 34 C 122.578125 33.734375 121.707031 33.6875 120.539062 32.464844 C 119.078125 30.929688 117.347656 29.761719 114.699219 30.574219 C 113.941406 30.804688 113.234375 31.234375 112.894531 31.738281 C 112.417969 32.433594 112.902344 32.464844 112.902344 32.464844 Z M 112.902344 32.464844 "/>
<path style=" stroke:none;fill-rule:evenodd;fill:rgb(58.039218%,89.411765%,22.745098%);fill-opacity:1;" d="M 111.117188 48.378906 C 111.320312 48.632812 113.578125 49.035156 114.035156 49.09375 C 115.289062 49.253906 116.339844 49.253906 117.605469 49.070312 C 119 48.867188 122.296875 47.789062 122.800781 47.089844 C 122.566406 47.011719 120.890625 47.523438 120.378906 47.648438 C 118.457031 48.117188 116.460938 48.382812 114.367188 48.398438 C 113.789062 48.40625 111.3125 48.308594 111.117188 48.378906 Z M 111.117188 48.378906 "/>
<path style=" stroke:none;fill-rule:evenodd;fill:rgb(58.039218%,89.411765%,22.745098%);fill-opacity:1;" d="M 52.996094 42.96875 C 53.324219 42.171875 51.929688 40.933594 53.210938 37.964844 C 53.4375 37.449219 54.066406 36.542969 54.183594 36.089844 C 52.996094 36.457031 51.8125 38.101562 51.496094 39.144531 C 51.125 40.375 51.429688 42.980469 52.996094 42.96875 Z M 52.996094 42.96875 "/>
<path style=" stroke:none;fill-rule:evenodd;fill:rgb(58.039218%,89.411765%,22.745098%);fill-opacity:1;" d="M 61.914062 29.382812 C 61.820312 30.097656 61.847656 30.496094 62.078125 30.382812 C 62.5 30.382812 62.671875 30.296875 63.011719 30.121094 C 63.875 26.027344 65.976562 25.875 66.777344 24.523438 C 64.964844 24.902344 63.113281 26.308594 62.421875 27.574219 C 62.226562 27.929688 61.835938 28.964844 61.914062 29.382812 Z M 61.914062 29.382812 "/>
<path style=" stroke:none;fill-rule:evenodd;fill:rgb(58.039218%,89.411765%,22.745098%);fill-opacity:1;" d="M 55.675781 18.546875 C 55.816406 18.542969 59.863281 15.804688 59.878906 15.753906 C 58.53125 15.121094 51.125 11.023438 50.664062 10.972656 Z M 55.675781 18.546875 "/>
<path style=" stroke:none;fill-rule:evenodd;fill:rgb(58.039218%,89.411765%,22.745098%);fill-opacity:1;" d="M 65.121094 44.011719 C 64.609375 43.847656 63.4375 43.257812 63.175781 43.242188 C 62.828125 43.640625 62.464844 44.980469 62.339844 45.511719 C 59.800781 44.527344 59.320312 42.222656 60.269531 40.09375 C 60.609375 39.328125 61.027344 38.933594 61.375 38.347656 C 60.289062 38.558594 58.902344 39.9375 58.429688 40.773438 C 57.640625 42.160156 57.71875 43.496094 58.441406 44.8125 C 58.753906 45.480469 59.492188 46.101562 60.105469 46.414062 C 59.300781 46.402344 58.9375 45.992188 58.359375 45.988281 L 57.652344 47.96875 C 56.449219 47.507812 55.542969 46.402344 55.261719 45.191406 C 55.082031 44.433594 55.238281 43.730469 55.480469 43.058594 C 55.699219 42.4375 56.15625 41.777344 56.34375 41.199219 C 55.484375 41.40625 54.78125 42.25 54.316406 42.8125 C 52.582031 44.914062 53.351562 48.179688 56.636719 49.191406 C 56.449219 49.367188 56.664062 49.25 56.308594 49.304688 C 55.898438 49.214844 55.496094 49.113281 55.136719 48.980469 C 54.753906 48.835938 54.402344 48.613281 54.015625 48.546875 C 53.683594 48.945312 53.621094 49.679688 53.46875 50.046875 L 53.3125 50.328125 C 52.230469 49.867188 51.394531 49.023438 51.042969 47.871094 C 50.445312 45.914062 51.414062 44.984375 51.492188 44.269531 C 50.605469 44.5625 49.4375 46.304688 49.46875 47.828125 C 49.492188 49.261719 50.941406 50.789062 52.105469 51.054688 C 52.253906 51.230469 52.210938 51.128906 52.136719 51.230469 C 51.074219 51.171875 50.605469 50.609375 49.789062 50.363281 L 49.609375 50.742188 C 49.566406 50.871094 49.53125 51.058594 49.503906 51.238281 C 49.464844 51.53125 49.480469 51.835938 49.4375 52.128906 C 48.394531 52.242188 47.410156 51.117188 47.042969 50.535156 C 46.175781 49.15625 46.710938 48.730469 46.535156 47.328125 C 45.296875 47.753906 44.441406 51.027344 47.128906 52.316406 L 47.734375 52.589844 C 47.90625 52.691406 47.804688 52.609375 47.929688 52.730469 L 46.160156 52.523438 L 46.191406 53.910156 C 46.558594 54.019531 53.390625 54.152344 54.367188 54.160156 C 56.847656 54.175781 60.046875 54.207031 62.46875 54.414062 L 62.644531 54.816406 C 62.660156 54.839844 62.679688 54.875 62.703125 54.902344 C 64.960938 54.507812 67.8125 54.367188 70.222656 54.453125 C 71.457031 54.5 72.746094 54.535156 73.949219 54.683594 C 74.933594 54.808594 76.449219 54.96875 77.460938 54.789062 C 79.554688 54.414062 81.625 53.894531 83.351562 53.171875 C 84.859375 52.539062 85.742188 52.082031 86.949219 51.28125 C 87.125 51.164062 87.914062 50.578125 87.992188 50.554688 C 87.726562 50.574219 85.914062 51.613281 85.523438 51.824219 C 82.894531 53.226562 79.519531 54.214844 76.253906 54.53125 C 72.367188 54.90625 66.523438 52.511719 64.324219 50.605469 C 62.28125 48.835938 64.007812 47.480469 65.871094 46.640625 C 67.640625 45.84375 70.035156 45.28125 72.363281 44.980469 C 74.980469 44.640625 77.425781 44.558594 80.199219 44.566406 C 84.667969 44.574219 84.714844 44.933594 87.910156 45.121094 C 87.875 44.109375 84.898438 41.0625 85.953125 34.257812 C 85.226562 34.398438 84.730469 35.214844 84.074219 35.378906 C 83.457031 35.070312 82.84375 34.21875 82.648438 33.625 C 81.554688 30.328125 85.078125 28 85.464844 27.441406 C 82.339844 27.703125 78 32.546875 82.042969 35.21875 C 82.378906 35.441406 83.15625 35.773438 83.320312 36.074219 C 82.125 36.148438 81.554688 35.546875 80.621094 35.4375 C 79.902344 36.421875 79.425781 37.03125 79.464844 38.605469 C 79.511719 40.457031 80.277344 40.644531 80.886719 41.527344 C 79.796875 41.433594 78.726562 40.457031 78.289062 39.648438 C 77.535156 38.269531 78.335938 37.695312 77.648438 37.105469 C 76.070312 35.753906 76.097656 33.34375 77.445312 31.730469 C 77.679688 31.449219 78.410156 30.855469 78.410156 30.523438 C 76.398438 30.523438 72.585938 33.941406 74.839844 36.910156 C 75.714844 38.0625 76.503906 38.273438 76.933594 38.800781 C 75.507812 38.777344 74.6875 37.90625 73.859375 37.863281 C 73.421875 38.566406 73.167969 40.105469 72.917969 40.441406 C 70.457031 39.375 69.742188 36.78125 70.960938 34.667969 C 71.222656 34.214844 72.257812 33.171875 72.328125 32.898438 C 70.589844 33.160156 68.816406 35.078125 68.378906 36.632812 C 68.097656 37.628906 68.289062 38.816406 68.796875 39.621094 C 69.621094 40.921875 70.578125 41.070312 70.921875 41.472656 C 69.878906 41.394531 69.023438 40.746094 68.457031 40.730469 L 67.554688 43.058594 C 65.90625 42.886719 63.917969 40.109375 65.515625 37.300781 C 65.804688 36.792969 66.71875 35.757812 66.769531 35.597656 C 64.902344 35.804688 61.425781 39.390625 63.382812 42.222656 C 63.84375 42.886719 64.714844 43.746094 65.496094 43.984375 Z M 65.121094 44.011719 "/>
<path style=" stroke:none;fill-rule:evenodd;fill:rgb(58.039218%,89.411765%,22.745098%);fill-opacity:1;" d="M 85.53125 80.777344 C 85.730469 80.886719 85.457031 80.902344 86.21875 81.191406 C 86.484375 81.296875 86.652344 81.355469 86.910156 81.476562 C 88.949219 82.449219 92.835938 84.59375 94.347656 85.953125 L 94.953125 86.308594 C 94.84375 85.855469 94.433594 85.597656 94.085938 85.242188 C 93.164062 84.28125 92.46875 83.65625 91.144531 82.847656 C 89.976562 82.136719 87.117188 80.953125 85.53125 80.777344 Z M 85.53125 80.777344 "/>
<path style=" stroke:none;fill-rule:evenodd;fill:rgb(58.039218%,89.411765%,22.745098%);fill-opacity:1;" d="M 57.445312 33.488281 C 57.621094 33.4375 57.945312 33.5625 58.078125 32.804688 C 58.324219 31.363281 58.800781 30.191406 59.703125 28.953125 C 60.046875 28.484375 60.566406 28.054688 60.777344 27.570312 C 59.703125 27.851562 58.484375 29.085938 57.945312 29.894531 C 57.3125 30.84375 56.75 33.34375 57.445312 33.488281 Z M 57.445312 33.488281 "/>
<path style=" stroke:none;fill-rule:evenodd;fill:rgb(58.039218%,89.411765%,22.745098%);fill-opacity:1;" d="M 53.253906 36.441406 C 53.671875 35.964844 53.027344 35.328125 53.945312 33.273438 C 54.5 32.039062 55.195312 31.464844 55.515625 30.863281 C 54.542969 30.992188 52.289062 33.117188 52.253906 35.007812 C 52.242188 35.722656 52.140625 36.726562 53.253906 36.441406 Z M 53.253906 36.441406 "/>
<path style=" stroke:none;fill-rule:evenodd;fill:rgb(58.039218%,89.411765%,22.745098%);fill-opacity:1;" d="M 50.574219 34.78125 C 49.703125 35.058594 48.703125 36.246094 48.332031 36.917969 C 47.183594 39.019531 48.273438 41.101562 48.960938 40.347656 C 49.160156 40.128906 49.023438 39.695312 48.988281 39.433594 C 48.847656 38.328125 49.308594 37.222656 49.78125 36.207031 C 49.992188 35.757812 50.398438 35.261719 50.574219 34.78125 Z M 50.574219 34.78125 "/>
<path style=" stroke:none;fill-rule:evenodd;fill:rgb(58.039218%,89.411765%,22.745098%);fill-opacity:1;" d="M 48.207031 46.398438 C 48.390625 45.710938 47.324219 44.886719 48.101562 42.421875 C 48.234375 42 48.527344 41.605469 48.542969 41.148438 C 46.121094 42.054688 46.195312 46.773438 48.207031 46.398438 Z M 48.207031 46.398438 "/>
<path style=" stroke:none;fill-rule:evenodd;fill:rgb(58.039218%,89.411765%,22.745098%);fill-opacity:1;" d="M 75.109375 25.160156 L 75.28125 24.765625 C 76.738281 21.527344 80.601562 20.792969 80.980469 20.292969 C 78.515625 20.023438 75.398438 21.472656 74.285156 23.371094 C 73.625 24.492188 73.832031 24.691406 73.929688 25.835938 C 74.429688 25.726562 74.792969 25.453125 75.109375 25.160156 Z M 75.109375 25.160156 "/>
<path style=" stroke:none;fill-rule:evenodd;fill:rgb(58.039218%,89.411765%,22.745098%);fill-opacity:1;" d="M 87.910156 28.433594 C 88.109375 28.042969 88.050781 26.964844 88.214844 26.359375 C 88.6875 24.605469 90.019531 23.378906 91.792969 22.28125 C 91.074219 21.917969 88.542969 23.101562 87.464844 24.390625 C 85.910156 26.246094 86.871094 28.402344 87.910156 28.433594 Z M 87.910156 28.433594 "/>
<path style=" stroke:none;fill-rule:evenodd;fill:rgb(58.039218%,89.411765%,22.745098%);fill-opacity:1;" d="M 68.339844 27.804688 C 69.101562 27.167969 68.484375 25.160156 73.210938 22.425781 L 73.65625 22.074219 C 71.535156 22.054688 68.492188 23.714844 67.71875 25.753906 C 67.4375 26.507812 67.152344 27.765625 68.339844 27.804688 Z M 68.339844 27.804688 "/>
<path style=" stroke:none;fill-rule:evenodd;fill:rgb(58.039218%,89.411765%,22.745098%);fill-opacity:1;" d="M 80.996094 23.125 C 81.558594 22.992188 82.082031 22.304688 82.433594 21.910156 C 83.273438 20.964844 84.183594 20.25 85.386719 19.625 C 85.890625 19.363281 86.824219 19.058594 87.320312 18.777344 C 85.5 17.933594 80.054688 20.726562 80.996094 23.125 Z M 80.996094 23.125 "/>
<path style=" stroke:none;fill-rule:evenodd;fill:rgb(100%,100%,100%);fill-opacity:1;" d="M 115.121094 34.765625 C 114.964844 33.710938 115.648438 32.875 116.996094 33.035156 C 116.992188 33.640625 116.652344 33.09375 116.621094 33.714844 C 117.125 33.925781 117.15625 33.730469 117.453125 33.433594 C 117.476562 33.410156 117.507812 33.382812 117.523438 33.367188 C 117.542969 33.347656 117.570312 33.316406 117.597656 33.296875 C 117.703125 33.546875 117.601562 33.558594 117.847656 33.707031 C 117.980469 32.535156 116.710938 32.136719 115.609375 32.582031 C 114.949219 32.851562 114.417969 33.589844 114.542969 34.28125 C 114.605469 34.644531 114.679688 34.652344 115.121094 34.765625 Z M 115.121094 34.765625 "/>
<path style=" stroke:none;fill-rule:evenodd;fill:rgb(58.039218%,89.411765%,22.745098%);fill-opacity:1;" d="M 93.816406 50.851562 C 93.007812 50.390625 91.394531 50.160156 90.351562 48.714844 C 90.089844 48.347656 89.929688 47.90625 89.710938 47.574219 C 89.09375 48.308594 91.355469 51.074219 93.816406 50.851562 Z M 93.816406 50.851562 "/>
<path style=" stroke:none;fill-rule:evenodd;fill:rgb(58.039218%,89.411765%,22.745098%);fill-opacity:1;" d="M 125.070312 33.636719 L 125.027344 33.804688 C 125.058594 34.332031 125.867188 34.984375 126.949219 35.097656 C 126.863281 34.78125 125.757812 33.667969 125.28125 33.621094 Z M 125.070312 33.636719 "/>
<path style=" stroke:none;fill-rule:evenodd;fill:rgb(58.039218%,89.411765%,22.745098%);fill-opacity:1;" d="M 137.96875 50.121094 C 138.332031 49.28125 138.339844 47.902344 137.734375 47.265625 C 137.609375 47.390625 137.609375 47.285156 137.601562 47.53125 L 137.828125 48.5625 C 137.910156 49.277344 137.679688 49.835938 137.96875 50.121094 Z M 137.96875 50.121094 "/>
<path style=" stroke:none;fill-rule:evenodd;fill:rgb(58.039218%,89.411765%,22.745098%);fill-opacity:1;" d="M 136.171875 79.363281 L 140.140625 79.742188 L 140.164062 70.929688 L 136.183594 70.757812 Z M 136.171875 79.363281 "/>
<path style=" stroke:none;fill-rule:evenodd;fill:rgb(58.039218%,89.411765%,22.745098%);fill-opacity:1;" d="M 151.207031 71.464844 L 151.242188 80.96875 L 154.886719 81.492188 L 154.851562 71.664062 Z M 151.207031 71.464844 "/>
<path style=" stroke:none;fill-rule:nonzero;fill:rgb(100%,100%,100%);fill-opacity:1;" d="M 31.394531 90.636719 C 31.316406 91.25 31.238281 91.859375 31.167969 92.464844 C 31.09375 93.0625 31.019531 93.660156 30.945312 94.25 C 30.527344 94.253906 30.109375 94.253906 29.695312 94.253906 C 29.640625 94 29.582031 93.730469 29.53125 93.445312 C 29.484375 93.160156 29.4375 92.859375 29.394531 92.542969 C 29.371094 92.683594 29.335938 92.898438 29.289062 93.1875 C 29.246094 93.472656 29.183594 93.828125 29.109375 94.257812 C 28.695312 94.257812 28.28125 94.261719 27.867188 94.261719 C 27.792969 93.765625 27.714844 93.273438 27.640625 92.789062 C 27.570312 92.308594 27.492188 91.828125 27.425781 91.355469 C 27.746094 91.296875 28.066406 91.234375 28.394531 91.175781 C 28.410156 91.351562 28.429688 91.53125 28.445312 91.707031 C 28.460938 91.882812 28.480469 92.0625 28.5 92.242188 C 28.515625 92.414062 28.535156 92.585938 28.546875 92.761719 C 28.566406 92.933594 28.582031 93.109375 28.601562 93.28125 C 28.621094 93.007812 28.652344 92.6875 28.695312 92.324219 C 28.742188 91.960938 28.804688 91.546875 28.878906 91.085938 C 29.226562 91.023438 29.570312 90.960938 29.917969 90.898438 C 29.921875 90.949219 29.941406 91.0625 29.957031 91.246094 C 29.972656 91.425781 30 91.675781 30.027344 91.996094 C 30.046875 92.207031 30.0625 92.417969 30.078125 92.632812 C 30.09375 92.84375 30.117188 93.058594 30.136719 93.273438 C 30.167969 92.859375 30.207031 92.449219 30.25 92.039062 C 30.292969 91.628906 30.351562 91.21875 30.417969 90.808594 C 30.738281 90.75 31.066406 90.695312 31.394531 90.636719 Z M 35.367188 89.964844 C 35.289062 90.683594 35.210938 91.40625 35.136719 92.117188 C 35.0625 92.828125 34.988281 93.535156 34.914062 94.238281 C 34.496094 94.238281 34.078125 94.238281 33.664062 94.242188 C 33.609375 93.933594 33.550781 93.609375 33.503906 93.265625 C 33.460938 92.917969 33.40625 92.554688 33.359375 92.171875 C 33.339844 92.339844 33.304688 92.597656 33.261719 92.945312 C 33.21875 93.289062 33.152344 93.722656 33.078125 94.242188 C 32.664062 94.242188 32.253906 94.246094 31.839844 94.246094 C 31.765625 93.636719 31.683594 93.027344 31.613281 92.425781 C 31.542969 91.824219 31.460938 91.230469 31.390625 90.636719 C 31.710938 90.582031 32.039062 90.523438 32.363281 90.46875 C 32.382812 90.683594 32.402344 90.902344 32.417969 91.121094 C 32.433594 91.335938 32.453125 91.558594 32.472656 91.777344 C 32.488281 91.988281 32.503906 92.199219 32.519531 92.410156 C 32.535156 92.625 32.554688 92.839844 32.574219 93.050781 C 32.59375 92.714844 32.625 92.328125 32.667969 91.886719 C 32.710938 91.445312 32.777344 90.941406 32.851562 90.382812 C 33.199219 90.324219 33.542969 90.265625 33.890625 90.207031 C 33.894531 90.265625 33.90625 90.40625 33.921875 90.625 C 33.941406 90.84375 33.96875 91.144531 33.992188 91.527344 C 34.011719 91.78125 34.035156 92.039062 34.050781 92.296875 C 34.066406 92.550781 34.085938 92.804688 34.105469 93.0625 C 34.136719 92.570312 34.179688 92.078125 34.222656 91.589844 C 34.265625 91.097656 34.324219 90.609375 34.390625 90.125 C 34.710938 90.070312 35.039062 90.015625 35.367188 89.964844 Z M 39.335938 89.335938 C 39.261719 90.160156 39.179688 90.980469 39.105469 91.796875 C 39.03125 92.609375 38.957031 93.417969 38.882812 94.222656 C 38.464844 94.222656 38.046875 94.226562 37.632812 94.226562 C 37.574219 93.871094 37.519531 93.496094 37.472656 93.09375 C 37.425781 92.695312 37.375 92.269531 37.332031 91.824219 C 37.308594 92.019531 37.273438 92.316406 37.230469 92.722656 C 37.183594 93.121094 37.121094 93.625 37.050781 94.230469 C 36.636719 94.230469 36.222656 94.230469 35.808594 94.234375 C 35.730469 93.511719 35.652344 92.792969 35.582031 92.082031 C 35.515625 91.371094 35.433594 90.667969 35.359375 89.964844 C 35.683594 89.910156 36.011719 89.859375 36.335938 89.804688 C 36.351562 90.0625 36.371094 90.316406 36.390625 90.570312 C 36.402344 90.828125 36.425781 91.082031 36.445312 91.339844 C 36.460938 91.589844 36.476562 91.835938 36.488281 92.085938 C 36.503906 92.335938 36.519531 92.585938 36.539062 92.835938 C 36.558594 92.445312 36.597656 91.992188 36.640625 91.476562 C 36.683594 90.957031 36.746094 90.375 36.824219 89.726562 C 37.171875 89.671875 37.515625 89.617188 37.863281 89.5625 C 37.867188 89.632812 37.878906 89.792969 37.894531 90.046875 C 37.910156 90.300781 37.941406 90.652344 37.964844 91.09375 C 37.984375 91.386719 38.003906 91.683594 38.019531 91.980469 C 38.035156 92.273438 38.058594 92.570312 38.078125 92.867188 C 38.105469 92.296875 38.148438 91.730469 38.195312 91.167969 C 38.238281 90.605469 38.296875 90.042969 38.363281 89.488281 C 38.683594 89.4375 39.007812 89.386719 39.335938 89.335938 Z M 39.976562 93.207031 C 39.976562 93.542969 39.976562 93.882812 39.976562 94.21875 C 39.734375 94.21875 39.492188 94.222656 39.253906 94.222656 C 39.253906 93.890625 39.253906 93.5625 39.253906 93.230469 C 39.492188 93.222656 39.734375 93.214844 39.976562 93.207031 Z M 40.273438 89.199219 C 40.609375 89.148438 40.941406 89.101562 41.28125 89.050781 C 41.554688 89.011719 41.761719 89.007812 41.910156 89.046875 C 42.058594 89.085938 42.167969 89.15625 42.242188 89.257812 C 42.316406 89.359375 42.363281 89.488281 42.394531 89.640625 C 42.421875 89.796875 42.429688 90.042969 42.429688 90.375 C 42.429688 90.53125 42.429688 90.683594 42.429688 90.839844 C 42.429688 91.179688 42.402344 91.429688 42.351562 91.585938 C 42.300781 91.746094 42.207031 91.871094 42.074219 91.960938 C 41.9375 92.050781 41.757812 92.105469 41.539062 92.117188 C 41.449219 92.121094 41.359375 92.128906 41.273438 92.132812 C 41.269531 92.480469 41.269531 92.828125 41.269531 93.171875 C 41.269531 93.519531 41.269531 93.871094 41.269531 94.214844 C 40.933594 94.214844 40.597656 94.21875 40.265625 94.21875 C 40.265625 93.382812 40.269531 92.542969 40.269531 91.707031 C 40.269531 90.871094 40.273438 90.035156 40.273438 89.199219 Z M 41.277344 89.933594 C 41.273438 90.371094 41.273438 90.808594 41.273438 91.246094 C 41.300781 91.246094 41.324219 91.246094 41.34375 91.246094 C 41.4375 91.238281 41.5 91.199219 41.535156 91.136719 C 41.570312 91.074219 41.585938 90.945312 41.585938 90.75 C 41.585938 90.609375 41.585938 90.464844 41.585938 90.324219 C 41.589844 90.144531 41.570312 90.03125 41.53125 89.980469 C 41.492188 89.933594 41.40625 89.917969 41.277344 89.933594 Z M 42.71875 88.847656 C 43.277344 88.769531 43.835938 88.695312 44.394531 88.621094 C 44.394531 88.992188 44.394531 89.363281 44.394531 89.734375 C 44.167969 89.757812 43.945312 89.78125 43.722656 89.808594 C 43.71875 90.160156 43.71875 90.507812 43.71875 90.859375 C 43.925781 90.839844 44.132812 90.824219 44.34375 90.804688 C 44.34375 91.160156 44.339844 91.511719 44.339844 91.863281 C 44.128906 91.875 43.921875 91.886719 43.714844 91.898438 C 43.714844 92.304688 43.714844 92.707031 43.714844 93.109375 C 43.957031 93.101562 44.207031 93.09375 44.453125 93.089844 C 44.453125 93.460938 44.449219 93.832031 44.449219 94.207031 C 43.867188 94.207031 43.285156 94.210938 42.707031 94.210938 C 42.710938 93.316406 42.714844 92.421875 42.714844 91.53125 C 42.71875 90.636719 42.71875 89.742188 42.71875 88.847656 Z M 47.039062 90.464844 C 46.703125 90.492188 46.367188 90.519531 46.035156 90.546875 C 46.035156 90.371094 46.03125 90.199219 46.035156 90.023438 C 46.035156 89.6875 46.03125 89.480469 46.007812 89.402344 C 45.988281 89.320312 45.945312 89.285156 45.878906 89.289062 C 45.816406 89.296875 45.777344 89.335938 45.753906 89.410156 C 45.734375 89.484375 45.714844 89.667969 45.714844 89.960938 C 45.714844 90.421875 45.714844 90.882812 45.710938 91.339844 C 45.707031 91.800781 45.714844 92.261719 45.710938 92.722656 C 45.710938 92.976562 45.71875 93.148438 45.742188 93.226562 C 45.765625 93.308594 45.808594 93.351562 45.871094 93.347656 C 45.941406 93.347656 45.992188 93.300781 46.015625 93.207031 C 46.042969 93.113281 46.054688 92.929688 46.058594 92.660156 C 46.058594 92.433594 46.058594 92.203125 46.058594 91.972656 C 45.988281 91.976562 45.925781 91.980469 45.863281 91.984375 C 45.863281 91.691406 45.863281 91.402344 45.867188 91.109375 C 46.257812 91.082031 46.648438 91.054688 47.039062 91.027344 C 47.03125 91.558594 47.035156 92.085938 47.03125 92.613281 C 47.03125 93.144531 47.03125 93.671875 47.03125 94.199219 C 46.816406 94.199219 46.609375 94.199219 46.398438 94.199219 C 46.367188 94.0625 46.335938 93.921875 46.304688 93.785156 C 46.238281 93.964844 46.152344 94.101562 46.050781 94.191406 C 45.945312 94.28125 45.820312 94.324219 45.679688 94.324219 C 45.511719 94.324219 45.355469 94.265625 45.207031 94.144531 C 45.0625 94.023438 44.949219 93.878906 44.875 93.703125 C 44.796875 93.527344 44.75 93.34375 44.730469 93.148438 C 44.710938 92.957031 44.707031 92.664062 44.707031 92.28125 C 44.707031 92 44.703125 91.722656 44.707031 91.445312 C 44.710938 91.164062 44.710938 90.886719 44.710938 90.609375 C 44.710938 90.070312 44.734375 89.679688 44.773438 89.429688 C 44.816406 89.179688 44.929688 88.945312 45.117188 88.714844 C 45.304688 88.488281 45.550781 88.351562 45.851562 88.316406 C 46.140625 88.277344 46.378906 88.339844 46.574219 88.496094 C 46.769531 88.660156 46.894531 88.863281 46.953125 89.109375 C 47.011719 89.359375 47.039062 89.726562 47.039062 90.210938 C 47.039062 90.296875 47.039062 90.382812 47.039062 90.464844 Z M 49.550781 89.855469 C 49.242188 89.882812 48.929688 89.910156 48.621094 89.9375 C 48.621094 89.789062 48.621094 89.636719 48.621094 89.488281 C 48.621094 89.277344 48.609375 89.140625 48.582031 89.085938 C 48.558594 89.03125 48.519531 89.007812 48.464844 89.011719 C 48.40625 89.019531 48.359375 89.0625 48.328125 89.144531 C 48.296875 89.226562 48.285156 89.339844 48.285156 89.5 C 48.285156 89.699219 48.300781 89.851562 48.335938 89.953125 C 48.371094 90.050781 48.464844 90.164062 48.621094 90.296875 C 49.0625 90.6875 49.339844 91.019531 49.457031 91.285156 C 49.570312 91.550781 49.625 91.992188 49.625 92.601562 C 49.625 93.046875 49.589844 93.371094 49.523438 93.585938 C 49.457031 93.796875 49.335938 93.972656 49.152344 94.113281 C 48.96875 94.253906 48.753906 94.324219 48.511719 94.324219 C 48.242188 94.324219 48.011719 94.246094 47.820312 94.089844 C 47.632812 93.929688 47.511719 93.734375 47.457031 93.488281 C 47.398438 93.246094 47.367188 92.902344 47.367188 92.457031 C 47.367188 92.328125 47.367188 92.199219 47.367188 92.066406 C 47.679688 92.054688 47.988281 92.039062 48.300781 92.023438 C 48.300781 92.269531 48.300781 92.515625 48.300781 92.761719 C 48.300781 92.988281 48.3125 93.136719 48.335938 93.199219 C 48.363281 93.265625 48.414062 93.296875 48.476562 93.292969 C 48.542969 93.292969 48.59375 93.25 48.628906 93.167969 C 48.660156 93.082031 48.675781 92.960938 48.675781 92.796875 C 48.675781 92.4375 48.644531 92.199219 48.582031 92.09375 C 48.519531 91.988281 48.363281 91.8125 48.117188 91.566406 C 47.871094 91.324219 47.703125 91.144531 47.625 91.035156 C 47.542969 90.925781 47.476562 90.769531 47.421875 90.570312 C 47.371094 90.371094 47.347656 90.113281 47.347656 89.796875 C 47.347656 89.339844 47.386719 89.003906 47.464844 88.785156 C 47.542969 88.566406 47.660156 88.386719 47.832031 88.242188 C 48 88.101562 48.203125 88.015625 48.441406 87.984375 C 48.703125 87.949219 48.917969 87.988281 49.101562 88.101562 C 49.285156 88.210938 49.40625 88.367188 49.464844 88.570312 C 49.519531 88.765625 49.550781 89.113281 49.550781 89.609375 C 49.550781 89.691406 49.550781 89.773438 49.550781 89.855469 Z M 50.960938 87.789062 C 50.957031 88.644531 50.957031 89.496094 50.953125 90.351562 C 50.949219 91.203125 50.949219 92.058594 50.945312 92.914062 C 51.144531 92.90625 51.34375 92.902344 51.546875 92.894531 C 51.546875 93.324219 51.546875 93.757812 51.546875 94.1875 C 51.007812 94.1875 50.472656 94.191406 49.9375 94.191406 C 49.941406 93.144531 49.941406 92.097656 49.945312 91.054688 C 49.949219 90.007812 49.949219 88.960938 49.953125 87.914062 C 50.289062 87.871094 50.621094 87.832031 50.960938 87.789062 Z M 53.664062 87.453125 C 53.753906 88.5625 53.851562 89.679688 53.941406 90.800781 C 54.03125 91.921875 54.125 93.050781 54.214844 94.179688 C 53.871094 94.179688 53.53125 94.183594 53.191406 94.183594 C 53.171875 93.785156 53.15625 93.386719 53.140625 92.984375 C 53.015625 92.988281 52.898438 92.992188 52.777344 92.996094 C 52.757812 93.390625 52.734375 93.789062 52.71875 94.183594 C 52.371094 94.1875 52.027344 94.1875 51.6875 94.1875 C 51.769531 93.105469 51.859375 92.015625 51.945312 90.925781 C 52.035156 89.832031 52.121094 88.734375 52.210938 87.632812 C 52.695312 87.570312 53.175781 87.511719 53.664062 87.453125 Z M 53.117188 91.804688 C 53.09375 91.429688 53.066406 91.007812 53.042969 90.542969 C 53.023438 90.078125 53 89.570312 52.972656 89.011719 C 52.921875 89.65625 52.875 90.214844 52.847656 90.679688 C 52.816406 91.144531 52.789062 91.527344 52.777344 91.824219 C 52.890625 91.816406 53 91.8125 53.117188 91.804688 Z M 57.5 87.007812 C 57.496094 88.203125 57.492188 89.398438 57.488281 90.589844 C 57.484375 91.785156 57.480469 92.980469 57.472656 94.171875 C 57.183594 94.171875 56.894531 94.171875 56.601562 94.175781 C 56.597656 93.378906 56.597656 92.582031 56.601562 91.789062 C 56.605469 90.992188 56.609375 90.199219 56.609375 89.402344 C 56.550781 90.199219 56.488281 91 56.425781 91.796875 C 56.367188 92.589844 56.308594 93.382812 56.253906 94.175781 C 56.046875 94.175781 55.835938 94.175781 55.636719 94.175781 C 55.574219 93.414062 55.507812 92.648438 55.453125 91.886719 C 55.394531 91.128906 55.339844 90.367188 55.277344 89.613281 C 55.277344 90.371094 55.269531 91.132812 55.269531 91.894531 C 55.265625 92.65625 55.269531 93.417969 55.265625 94.179688 C 54.96875 94.179688 54.679688 94.179688 54.386719 94.179688 C 54.390625 93.042969 54.394531 91.90625 54.398438 90.769531 C 54.402344 89.636719 54.402344 88.5 54.40625 87.363281 C 54.835938 87.3125 55.269531 87.261719 55.703125 87.210938 C 55.742188 87.625 55.777344 88.121094 55.816406 88.683594 C 55.859375 89.269531 55.910156 89.859375 55.957031 90.445312 C 55.992188 89.898438 56.035156 89.351562 56.074219 88.804688 C 56.109375 88.253906 56.152344 87.703125 56.191406 87.152344 C 56.625 87.105469 57.0625 87.054688 57.5 87.007812 Z M 58.5 92.691406 C 58.5 93.183594 58.496094 93.679688 58.496094 94.171875 C 58.25 94.171875 58.007812 94.171875 57.765625 94.171875 C 57.765625 93.683594 57.769531 93.195312 57.769531 92.707031 C 58.011719 92.703125 58.253906 92.695312 58.5 92.691406 Z M 61.132812 89.925781 C 60.796875 89.941406 60.460938 89.960938 60.128906 89.976562 C 60.128906 89.546875 60.128906 89.117188 60.132812 88.6875 C 60.132812 88.3125 60.125 88.078125 60.105469 87.988281 C 60.082031 87.898438 60.03125 87.855469 59.960938 87.859375 C 59.882812 87.867188 59.828125 87.925781 59.804688 88.039062 C 59.78125 88.15625 59.769531 88.398438 59.769531 88.777344 C 59.769531 89.347656 59.761719 89.917969 59.761719 90.492188 C 59.761719 91.0625 59.761719 91.636719 59.761719 92.207031 C 59.761719 92.566406 59.769531 92.800781 59.789062 92.910156 C 59.8125 93.019531 59.863281 93.070312 59.9375 93.070312 C 60.011719 93.070312 60.058594 93.015625 60.085938 92.902344 C 60.109375 92.792969 60.121094 92.53125 60.125 92.125 C 60.125 91.8125 60.125 91.503906 60.125 91.1875 C 60.457031 91.175781 60.792969 91.164062 61.128906 91.152344 C 61.128906 91.25 61.125 91.347656 61.125 91.445312 C 61.121094 92.226562 61.09375 92.777344 61.035156 93.101562 C 60.976562 93.429688 60.855469 93.714844 60.664062 93.960938 C 60.46875 94.207031 60.230469 94.324219 59.949219 94.324219 C 59.65625 94.324219 59.414062 94.226562 59.21875 94.023438 C 59.027344 93.820312 58.90625 93.542969 58.847656 93.1875 C 58.785156 92.832031 58.753906 92.296875 58.757812 91.582031 C 58.757812 91.226562 58.761719 90.871094 58.761719 90.515625 C 58.761719 90.160156 58.765625 89.808594 58.765625 89.449219 C 58.765625 88.925781 58.777344 88.53125 58.796875 88.265625 C 58.816406 88 58.875 87.742188 58.972656 87.488281 C 59.070312 87.238281 59.195312 87.03125 59.363281 86.875 C 59.53125 86.714844 59.730469 86.625 59.945312 86.605469 C 60.238281 86.578125 60.484375 86.664062 60.671875 86.871094 C 60.867188 87.074219 60.992188 87.339844 61.046875 87.667969 C 61.105469 87.996094 61.140625 88.511719 61.136719 89.210938 C 61.136719 89.449219 61.132812 89.6875 61.132812 89.925781 Z M 63.773438 90.96875 C 63.769531 91.742188 63.757812 92.289062 63.738281 92.613281 C 63.714844 92.9375 63.660156 93.230469 63.5625 93.5 C 63.464844 93.765625 63.335938 93.96875 63.171875 94.113281 C 63.007812 94.253906 62.820312 94.324219 62.601562 94.324219 C 62.394531 94.324219 62.214844 94.257812 62.050781 94.128906 C 61.890625 93.996094 61.757812 93.796875 61.65625 93.53125 C 61.558594 93.269531 61.503906 92.984375 61.484375 92.671875 C 61.464844 92.363281 61.457031 91.816406 61.457031 91.042969 C 61.460938 90.613281 61.460938 90.179688 61.464844 89.75 C 61.464844 88.992188 61.476562 88.457031 61.496094 88.140625 C 61.515625 87.820312 61.574219 87.53125 61.667969 87.261719 C 61.769531 86.992188 61.894531 86.777344 62.058594 86.625 C 62.222656 86.472656 62.417969 86.382812 62.632812 86.367188 C 62.839844 86.351562 63.019531 86.40625 63.1875 86.53125 C 63.351562 86.652344 63.484375 86.84375 63.582031 87.105469 C 63.679688 87.371094 63.738281 87.660156 63.757812 87.976562 C 63.773438 88.296875 63.78125 88.851562 63.777344 89.644531 C 63.777344 90.085938 63.773438 90.527344 63.773438 90.96875 Z M 62.777344 88.484375 C 62.777344 88.128906 62.765625 87.902344 62.75 87.804688 C 62.730469 87.707031 62.695312 87.660156 62.628906 87.664062 C 62.582031 87.667969 62.542969 87.707031 62.515625 87.789062 C 62.488281 87.871094 62.472656 88.109375 62.46875 88.5 C 62.46875 89.09375 62.46875 89.6875 62.46875 90.28125 C 62.464844 90.875 62.460938 91.46875 62.457031 92.0625 C 62.457031 92.503906 62.460938 92.777344 62.476562 92.878906 C 62.496094 92.984375 62.539062 93.035156 62.605469 93.03125 C 62.671875 93.03125 62.714844 92.972656 62.734375 92.851562 C 62.753906 92.734375 62.765625 92.445312 62.765625 91.996094 C 62.765625 91.414062 62.769531 90.828125 62.773438 90.242188 C 62.773438 89.65625 62.773438 89.070312 62.777344 88.484375 Z M 67.257812 86.277344 C 67.253906 87.589844 67.253906 88.90625 67.246094 90.21875 C 67.242188 91.53125 67.234375 92.84375 67.230469 94.15625 C 66.9375 94.15625 66.640625 94.15625 66.351562 94.15625 C 66.355469 93.273438 66.355469 92.390625 66.359375 91.507812 C 66.363281 90.625 66.367188 89.742188 66.371094 88.859375 C 66.304688 89.742188 66.238281 90.625 66.179688 91.511719 C 66.121094 92.390625 66.058594 93.277344 66 94.160156 C 65.792969 94.160156 65.589844 94.160156 65.386719 94.160156 C 65.328125 93.300781 65.261719 92.441406 65.207031 91.585938 C 65.152344 90.730469 65.09375 89.871094 65.035156 89.015625 C 65.03125 89.871094 65.027344 90.730469 65.023438 91.585938 C 65.019531 92.445312 65.019531 93.300781 65.015625 94.160156 C 64.722656 94.160156 64.429688 94.160156 64.140625 94.160156 C 64.144531 92.871094 64.148438 91.578125 64.15625 90.289062 C 64.160156 89 64.164062 87.707031 64.167969 86.417969 C 64.597656 86.390625 65.027344 86.367188 65.460938 86.347656 C 65.496094 86.816406 65.535156 87.371094 65.578125 88.007812 C 65.621094 88.667969 65.664062 89.324219 65.710938 89.988281 C 65.75 89.378906 65.792969 88.765625 65.832031 88.15625 C 65.871094 87.546875 65.914062 86.933594 65.953125 86.324219 C 66.386719 86.308594 66.820312 86.292969 67.257812 86.277344 Z M 67.257812 86.277344 "/>
</g>
</svg>
