<?xml version="1.0" encoding="UTF-8"?>
<svg xmlns="http://www.w3.org/2000/svg" xmlns:xlink="http://www.w3.org/1999/xlink" width="280px" height="150px" viewBox="0 0 280 150" version="1.1">
<g id="surface1">
<path style="fill-rule:evenodd;fill:rgb(0%,0%,0%);fill-opacity:1;stroke-width:20;stroke-linecap:butt;stroke-linejoin:miter;stroke:rgb(0%,0%,0%);stroke-opacity:1;stroke-miterlimit:4;" d="M 1164.450335 1120.328349 L 117737.208426 1120.328349 L 117737.208426 82981.861809 L 1164.450335 82981.861809 Z M 1164.450335 1120.328349 " transform="matrix(0.00235492,0,0,0.00178355,0,0.00184155)"/>
<path style=" stroke:none;fill-rule:evenodd;fill:rgb(92.156863%,29.019609%,70.588237%);fill-opacity:1;" d="M 175.96875 81.867188 C 178.039062 81.5 180.179688 80.527344 182.253906 80.339844 C 182.394531 81.648438 177.554688 101.40625 176.847656 105.011719 C 176.558594 106.488281 176.558594 106.121094 176.078125 106.15625 C 175.765625 105.664062 175.828125 84.15625 175.96875 81.867188 Z M 198.5625 79.460938 C 198.652344 78.953125 199.015625 78.792969 199.339844 78.421875 C 200.652344 76.9375 200.171875 77.691406 204.203125 77.699219 L 208.976562 77.65625 C 209.003906 78.011719 208.964844 79.019531 208.40625 79.210938 Z M 179.234375 108.121094 L 182.105469 94.84375 C 182.6875 92.714844 184.261719 83.226562 184.917969 82.132812 C 203.195312 81.164062 227.828125 81.53125 244.886719 79.902344 C 245.617188 79.8125 246.507812 79.839844 246.546875 80.289062 C 246.867188 83.925781 246.757812 119.054688 246.761719 124.582031 C 246.765625 126.546875 246.90625 126.238281 245.382812 127.269531 L 240.222656 130.832031 C 239.871094 131.085938 238.226562 132.371094 237.8125 132.554688 C 237.636719 132.832031 222.914062 130.246094 221.410156 129.914062 L 221.589844 125.410156 C 220.578125 125.527344 219.304688 126.949219 218.589844 127.589844 C 216.210938 129.394531 217.113281 129.292969 213.804688 128.898438 C 208.757812 128.292969 203.855469 127.917969 198.664062 127.367188 C 190.28125 126.480469 181.46875 126.394531 173.078125 125.753906 L 157.816406 125.152344 C 153.289062 125.082031 152.9375 125.617188 150.542969 122.605469 C 149.4375 122.53125 148.425781 122.75 147.253906 122.835938 C 147.765625 123.277344 148.148438 123.929688 148.601562 124.363281 C 151.515625 127.171875 156.007812 132.105469 156.636719 135.660156 C 156.957031 137.472656 156.242188 138.515625 154.699219 139.21875 C 150.191406 141.277344 142.179688 140.507812 137.460938 139.816406 C 127.425781 138.347656 118.140625 134.566406 111.148438 129.632812 C 108.902344 128.050781 106.578125 126.339844 104.824219 124.480469 L 98.410156 124.578125 C 98.328125 125.40625 98.363281 126.070312 98.195312 126.859375 C 90.429688 127.347656 81.097656 128.410156 72.867188 129.402344 C 72.160156 128.558594 70.972656 127.714844 70.066406 126.847656 C 65.773438 122.71875 65.882812 124.277344 65.816406 120.984375 C 65.789062 119.71875 65.765625 118.457031 65.757812 117.191406 C 65.75 115.859375 64.632812 116.332031 62.953125 116.59375 C 59.054688 117.203125 59.769531 116.308594 59.777344 120.570312 C 59.78125 121.675781 59.773438 122.78125 59.777344 123.890625 C 59.785156 126.117188 59.808594 128.367188 59.769531 130.59375 L 42.199219 133.8125 C 41.253906 133.019531 37.851562 130.960938 36.660156 130.296875 C 32.832031 128.15625 33.394531 128.957031 33.390625 125.132812 L 33.457031 79.355469 C 42.15625 79.007812 53.089844 79.972656 61.796875 80.773438 C 61.648438 77.558594 61.308594 74.699219 61.992188 71.503906 C 63.550781 64.175781 73.785156 51.96875 73.828125 51.398438 L 69.621094 51.363281 C 69.640625 49.9375 72.515625 45.753906 73.261719 44.632812 C 74.527344 42.722656 76.585938 40.320312 78.121094 38.769531 C 86.3125 30.484375 92.984375 26.839844 104.007812 20.484375 C 104.625 20.128906 105.265625 19.789062 105.859375 19.382812 C 107.382812 18.335938 109.335938 17.285156 110.898438 16.152344 C 114.445312 13.59375 113.914062 13.089844 115.988281 10.589844 C 119.742188 10.382812 126.746094 14.359375 128.933594 15.867188 C 130.71875 17.101562 132.140625 18.34375 133.804688 19.652344 C 135.363281 20.871094 136.691406 22.328125 138.269531 23.679688 C 141.644531 23.859375 145.097656 23.664062 148.5 23.902344 C 156.460938 24.460938 165.976562 26.375 172.734375 29.171875 C 175.089844 30.148438 176.898438 31.097656 178.914062 32.378906 L 196.515625 42.707031 C 201.320312 45.46875 203.558594 46.890625 207.304688 50.300781 C 208.960938 51.804688 209.847656 53.5625 212.152344 54.53125 C 216.527344 56.367188 216.644531 58.496094 218.421875 59.449219 C 220.003906 60.300781 221.320312 61.339844 221.386719 63.019531 C 221.476562 65.191406 220.316406 67.570312 218.910156 69.042969 C 218.007812 69.984375 219.105469 72.746094 217.367188 75.757812 C 216.414062 77.410156 214.175781 79.191406 211.617188 79.121094 C 211.851562 77.710938 212.835938 76.332031 211.511719 74.484375 C 210.804688 74.496094 209.351562 75.027344 208.082031 75.1875 C 203.0625 75.832031 199.476562 73.90625 197.519531 76.511719 C 194.863281 80.050781 191.6875 80.3125 185.359375 79.921875 C 187.167969 78.738281 188.398438 78.363281 188.605469 76.097656 C 185.558594 76.234375 176.753906 78.929688 173.171875 79.96875 C 172.09375 80.28125 169.507812 81.230469 168.902344 81.964844 L 172.757812 81.988281 C 173 85.390625 172.574219 106.757812 173.097656 107.734375 C 173.542969 108.144531 178.746094 108.15625 179.234375 108.121094 Z M 86.316406 28 C 86.203125 28.078125 86.039062 28.210938 85.609375 28.535156 C 85.234375 28.824219 84.992188 28.960938 84.585938 29.28125 C 83.960938 29.765625 83.113281 30.363281 82.511719 30.890625 C 79.265625 33.722656 77.902344 34.71875 74.890625 37.84375 C 73.050781 39.75 68.476562 45.679688 67.726562 47.546875 C 67.457031 48.285156 66.371094 49.9375 65.882812 51.65625 C 65.648438 52.480469 65.257812 53.347656 66.71875 53.480469 C 67.089844 53.515625 67.59375 53.515625 68.398438 53.554688 C 67.023438 56.300781 57.101562 66.480469 58.710938 78.027344 C 51.375 77.390625 38.96875 76.6875 30.28125 77.089844 L 30.390625 129.558594 L 36.828125 133.355469 C 41.835938 136.234375 40.515625 136.546875 44.066406 135.863281 C 47.0625 135.285156 50.375 134.695312 53.347656 134.132812 L 62.667969 132.488281 C 62.847656 127.976562 62.523438 123.328125 62.875 118.921875 C 63.507812 120.097656 62.964844 122.054688 63.128906 123.484375 C 63.210938 124.222656 63.816406 124.550781 64.308594 124.980469 L 68.703125 128.984375 C 69.636719 129.839844 70.636719 130.925781 71.605469 131.648438 C 72.535156 131.011719 101.027344 128.191406 101.433594 128.636719 L 101.488281 127.28125 C 104.164062 127.0625 103.300781 127.21875 105.597656 128.851562 L 108.867188 131.355469 C 113.101562 134.3125 119.371094 137.496094 124.617188 139.089844 C 128.140625 140.160156 130.457031 140.769531 134.382812 141.53125 C 140.757812 142.773438 151.335938 143.617188 156.683594 141.160156 C 162.609375 138.433594 159.101562 132.609375 156.519531 128.890625 C 156.175781 128.398438 155.570312 127.769531 155.351562 127.402344 C 170.738281 127.75 196.40625 129.152344 211.335938 130.796875 C 212.609375 130.929688 213.925781 131.023438 215.148438 131.25 C 217.625 131.707031 216.945312 131.09375 218.429688 130.695312 C 219.210938 132.304688 217.300781 131.207031 223.179688 132.320312 C 227.917969 133.214844 232.5625 133.933594 237.316406 134.914062 C 238.703125 135.199219 238.78125 134.898438 239.660156 134.28125 C 242.296875 132.433594 244.292969 130.988281 246.980469 129.167969 C 249.8125 127.246094 249.679688 127.5 249.667969 125.828125 L 249.660156 88.476562 C 249.660156 84.957031 249.808594 81.222656 249.636719 77.726562 L 218.605469 78.785156 C 218.898438 77.695312 220.339844 76.984375 221.1875 73.9375 C 221.910156 71.351562 222.78125 69.261719 223.535156 66.800781 C 225.101562 61.367188 223.113281 60.652344 219.597656 56.902344 C 216.605469 53.707031 215.128906 53.582031 212.746094 51.984375 C 207.800781 46.363281 203.484375 42.925781 192.792969 37.640625 C 182.671875 31.992188 178.539062 27.851562 166.253906 24.398438 C 164.648438 23.945312 162.988281 23.625 161.339844 23.273438 C 156.542969 21.917969 149.972656 21.5 144.777344 21.191406 C 135.296875 20.628906 142.824219 22.199219 132.246094 14.882812 C 128.683594 12.417969 128.429688 12.355469 124.332031 10.355469 C 122.421875 9.425781 116.707031 7.542969 114.003906 7.734375 C 113.316406 8.421875 113.054688 9.484375 112.414062 10.390625 C 111.824219 11.21875 111.195312 12.050781 110.347656 12.824219 C 108.632812 14.402344 106.921875 15.378906 105.007812 16.664062 C 102.980469 18.027344 101.097656 19.027344 99.136719 20.109375 L 93.191406 23.605469 Z M 86.316406 28 "/>
<path style=" stroke:none;fill-rule:evenodd;fill:rgb(58.039218%,89.411765%,22.745098%);fill-opacity:1;" d="M 143.992188 53.476562 C 143.996094 59.929688 148.125 65.074219 155.359375 67.398438 C 156.828125 67.871094 161.058594 68.960938 162.898438 68.9375 C 162.683594 68.597656 161.121094 67.5625 160.488281 66.945312 C 151.351562 58.027344 160.035156 47.828125 162.476562 47.125 C 161.957031 48.730469 160.957031 49.613281 160.15625 52.753906 C 158.480469 59.328125 160.390625 64.976562 169.597656 67.378906 C 178.289062 69.644531 185.605469 67.546875 192.378906 63.890625 C 193.636719 63.210938 197.160156 61.058594 198.203125 60.65625 C 198.058594 61.1875 197.394531 62.089844 197.078125 62.640625 C 196.753906 63.207031 196.242188 64.152344 196.097656 64.886719 C 196.621094 64.667969 196.199219 64.902344 196.585938 64.589844 C 196.644531 64.542969 196.808594 64.363281 196.902344 64.257812 C 197.15625 63.988281 197.351562 63.773438 197.605469 63.554688 C 201.421875 60.253906 205.921875 57.96875 212.359375 58.074219 C 211.945312 57.332031 207.488281 55.539062 207.121094 55.511719 C 204.066406 55.289062 199.355469 57.214844 193.589844 53.503906 C 191.984375 52.46875 192.492188 53.257812 190.332031 53.105469 C 184.996094 52.726562 187.238281 52.265625 184.957031 53.695312 C 180.953125 56.203125 175.582031 54.273438 174.300781 50.265625 C 172.695312 50.199219 170.9375 49.925781 169.320312 50.054688 C 167.644531 50.1875 167.078125 51.003906 166.242188 51.65625 C 165.953125 48.910156 169.230469 44.191406 172.96875 43.09375 C 175.191406 42.441406 176.597656 43.34375 178.214844 43.210938 C 174.882812 40.90625 167.660156 40.269531 163.261719 42.660156 C 162.660156 42.988281 162.195312 43.433594 161.648438 43.613281 C 160.617188 42.886719 161 42.507812 158.914062 42.464844 C 155.414062 42.398438 152.726562 44.5 150.871094 46.328125 C 150.203125 45.4375 153.871094 41 157.171875 39.171875 C 157.355469 39.070312 157.566406 38.953125 157.824219 38.824219 C 158.265625 38.597656 158.238281 38.660156 158.554688 38.394531 C 155.578125 38.394531 150.742188 42.097656 148.855469 44.074219 C 146.796875 46.226562 143.992188 50.128906 143.992188 53.476562 Z M 143.992188 53.476562 "/>
<path style=" stroke:none;fill-rule:evenodd;fill:rgb(100%,100%,100%);fill-opacity:1;" d="M 50.289062 90.589844 C 51.945312 90.308594 55.5625 90.621094 56.398438 91.277344 C 57.433594 92.089844 56.992188 94.949219 56.992188 96.222656 C 56.992188 100.289062 58.09375 102.320312 50.324219 101.792969 Z M 40.816406 97.328125 L 40.804688 124.125 L 50.453125 122.882812 L 50.394531 110.203125 C 56.5625 109.746094 58.6875 110.515625 62.851562 107.574219 C 66.503906 104.996094 66.363281 102.472656 66.363281 98.019531 L 66.363281 91.796875 C 66.359375 85.769531 65.003906 84.390625 57.675781 83.808594 L 39.175781 83.136719 C 39.394531 83.613281 39.203125 83.328125 39.605469 83.8125 C 40.382812 84.738281 40.800781 84.785156 40.824219 85.839844 Z M 40.816406 97.328125 "/>
<path style=" stroke:none;fill-rule:evenodd;fill:rgb(100%,100%,100%);fill-opacity:1;" d="M 193.179688 107.617188 L 195.621094 92.394531 L 197.953125 107.660156 Z M 191.066406 118.5 L 191.867188 113.109375 L 198.855469 113.414062 L 199.5625 118.988281 L 208.691406 119.679688 L 206.996094 111.027344 L 202.085938 84.8125 L 189.410156 84.890625 L 181.933594 117.9375 Z M 191.066406 118.5 "/>
<path style=" stroke:none;fill-rule:evenodd;fill:rgb(100%,100%,100%);fill-opacity:1;" d="M 79.726562 112.746094 L 79.691406 104.847656 L 88.703125 104.863281 L 90.140625 98.28125 L 79.90625 98.292969 L 79.933594 91.191406 L 91.769531 91.160156 L 91.773438 84.695312 L 70.519531 84.304688 L 70.511719 120.679688 L 91.679688 118.914062 L 91.679688 112.28125 Z M 79.726562 112.746094 "/>
<path style=" stroke:none;fill-rule:evenodd;fill:rgb(100%,100%,100%);fill-opacity:1;" d="M 140.828125 116.253906 C 104.796875 116.546875 187.777344 115.867188 140.828125 116.253906 Z M 155.898438 113.417969 C 156.464844 112.390625 156.339844 104.746094 155.8125 103.570312 C 155.183594 102.171875 154.246094 101.410156 152.574219 100.75 C 150.792969 100.046875 149.765625 99.5625 148.085938 98.894531 C 141.542969 96.292969 141.230469 96.78125 141.308594 93.449219 C 141.367188 91 142.617188 91.316406 145.589844 91.355469 C 147.992188 91.386719 147.425781 92.730469 147.535156 95.292969 L 156.011719 94.222656 C 155.960938 90.582031 157.0625 85.804688 148.863281 85.28125 C 146.679688 85.140625 141.539062 85.167969 139.523438 85.410156 C 132.148438 86.292969 132.613281 90.757812 132.605469 94.425781 C 132.601562 97.285156 132.03125 98.742188 134.296875 100.347656 C 135.355469 101.09375 138.757812 102.308594 140.304688 102.992188 C 141.023438 103.308594 143.855469 104.378906 145.382812 105.089844 L 146.980469 105.835938 C 147.640625 106.140625 147.683594 106.125 147.628906 108.671875 C 147.59375 110.394531 147.527344 111.128906 145.222656 111.117188 C 143.648438 111.136719 141.726562 111.339844 141.195312 110.230469 C 141.089844 110.003906 141.027344 109.765625 141.023438 109.511719 L 140.992188 106.53125 L 132.507812 107.488281 L 132.4375 112.25 C 132.425781 113.035156 132.753906 113.753906 133.152344 114.34375 C 134.367188 116.132812 136.582031 117.183594 139.914062 117.167969 L 150.117188 116.980469 C 153.007812 116.925781 155.285156 115.8125 155.898438 113.417969 Z M 155.898438 113.417969 "/>
<path style=" stroke:none;fill-rule:evenodd;fill:rgb(100%,100%,100%);fill-opacity:1;" d="M 159.984375 117.34375 L 179.140625 117.941406 L 179.132812 111.582031 L 168.851562 111.242188 L 168.804688 85.296875 L 159.964844 85.269531 Z M 159.984375 117.34375 "/>
<path style=" stroke:none;fill-rule:evenodd;fill:rgb(58.039218%,89.411765%,22.745098%);fill-opacity:1;" d="M 183.332031 117.113281 L 190.015625 117.5625 L 190.980469 112.207031 L 199.882812 112.644531 L 200.640625 118.273438 L 207.375 118.757812 L 204.824219 105.867188 L 198.789062 105.652344 L 199.226562 108.503906 L 191.871094 108.339844 L 192.351562 105.445312 L 185.917969 105.257812 Z M 183.332031 117.113281 "/>
<path style=" stroke:none;fill-rule:evenodd;fill:rgb(58.039218%,89.411765%,22.745098%);fill-opacity:1;" d="M 147.234375 104.96875 C 148.125 105.277344 148.410156 105.59375 148.621094 106.355469 C 148.796875 106.976562 148.726562 108.007812 148.722656 108.671875 C 148.71875 110.15625 148.566406 111.539062 146.582031 111.789062 C 145.171875 111.96875 142.101562 112.03125 141.019531 111.421875 C 140.265625 110.992188 140.007812 110.390625 139.980469 109.714844 L 139.894531 107.578125 L 133.511719 108.296875 L 133.574219 112.65625 C 133.792969 113.84375 134.636719 114.800781 135.75 115.421875 C 138.164062 116.769531 143.589844 116.25 146.671875 116.246094 C 150.992188 116.25 153.441406 116.1875 154.84375 113.332031 C 155.070312 112.878906 155.253906 111.925781 155.253906 110.792969 L 155.253906 104.734375 L 146.441406 104.664062 Z M 147.234375 104.96875 "/>
<path style=" stroke:none;fill-rule:evenodd;fill:rgb(58.039218%,89.411765%,22.745098%);fill-opacity:1;" d="M 145.765625 133.15625 C 145.902344 133.28125 146.132812 133.605469 144.929688 133.246094 L 142.585938 132.371094 C 137.21875 130.203125 132.863281 128.738281 127.335938 126.074219 L 121.660156 123.371094 C 121.84375 124.011719 124.921875 126.1875 125.613281 126.695312 C 129.390625 129.460938 135.355469 132.726562 139.96875 134.679688 C 139.050781 135.078125 129.851562 131.367188 128.355469 130.710938 C 126.421875 129.867188 124.902344 129.011719 123.078125 128.058594 C 121.800781 127.394531 118.660156 125.378906 118.257812 125.328125 C 118.375 125.984375 122.363281 129.09375 123.140625 129.675781 C 124.039062 130.347656 127.742188 132.949219 128.890625 133.296875 C 128.78125 133.472656 129.347656 133.453125 128.410156 133.421875 C 128.199219 133.300781 124.402344 132.113281 123.839844 131.910156 C 114.367188 128.449219 113.210938 125.804688 112.132812 125.382812 C 112.886719 127.167969 117.042969 129.613281 119.128906 130.78125 C 121.613281 132.167969 125.882812 133.660156 128.566406 134.4375 C 133.390625 135.835938 140.957031 137.265625 146.308594 137.234375 C 149.605469 137.402344 152.425781 137.125 152.355469 136.359375 C 152.265625 135.507812 151.117188 133.960938 150.578125 133.238281 C 148.054688 129.863281 127.128906 121.816406 124.390625 121.429688 C 124.929688 122.148438 128.628906 123.867188 129.757812 124.527344 Z M 145.765625 133.15625 "/>
<path style=" stroke:none;fill-rule:evenodd;fill:rgb(58.039218%,89.411765%,22.745098%);fill-opacity:1;" d="M 49.324219 114.898438 L 49.304688 109.441406 L 51.128906 109.367188 C 53.511719 109.160156 57.34375 109.113281 59.066406 108.605469 C 60.046875 108.316406 62.214844 107.28125 62.542969 106.453125 C 55.6875 106.765625 48.839844 107.171875 42.007812 107.722656 L 42.007812 122.980469 L 49.308594 122.109375 Z M 49.324219 114.898438 "/>
<path style=" stroke:none;fill-rule:evenodd;fill:rgb(58.039218%,89.411765%,22.745098%);fill-opacity:1;" d="M 165.097656 33.972656 C 165.601562 34.160156 167.234375 34.378906 168.078125 34.640625 C 174.507812 36.664062 178.542969 40.015625 185.058594 43.074219 C 190.484375 45.621094 194.503906 47.347656 198.9375 50.691406 C 199.851562 51.378906 202.003906 53.085938 202.609375 53.980469 L 205.011719 53.957031 C 205.050781 52.25 199.066406 47.898438 197.527344 46.914062 C 193.128906 44.109375 183.875 40.238281 177.71875 36.742188 C 175.089844 35.25 172.558594 34.117188 169.117188 33.882812 C 168.214844 33.820312 165.917969 33.597656 165.097656 33.972656 Z M 165.097656 33.972656 "/>
<path style=" stroke:none;fill-rule:evenodd;fill:rgb(58.039218%,89.411765%,22.745098%);fill-opacity:1;" d="M 63.949219 60.003906 C 61.871094 59.929688 58.144531 60.699219 56.175781 60.847656 L 33.5 62.410156 C 34.253906 62.738281 50.410156 65.484375 54.027344 66.105469 L 60 67.707031 C 61.039062 65.078125 62.347656 62.488281 63.949219 60.003906 Z M 63.949219 60.003906 "/>
<path style=" stroke:none;fill-rule:evenodd;fill:rgb(58.039218%,89.411765%,22.745098%);fill-opacity:1;" d="M 204.828125 44.617188 C 205.152344 44.851562 210.277344 49.179688 210.78125 49.839844 C 211.695312 49.59375 219.164062 45.722656 220.476562 45.050781 C 221.867188 44.332031 229.15625 40.960938 229.773438 40.324219 C 228.65625 40.3125 224.871094 41.082031 223.5625 41.296875 C 217.871094 42.234375 210.171875 43.824219 204.828125 44.617188 Z M 204.828125 44.617188 "/>
<path style=" stroke:none;fill-rule:evenodd;fill:rgb(58.039218%,89.411765%,22.745098%);fill-opacity:1;" d="M 180.582031 30.335938 L 188.4375 35.105469 C 188.972656 34.902344 194.125 28.714844 195.019531 27.699219 L 201.398438 20.375 C 200.386719 20.398438 199.554688 21.015625 198.660156 21.417969 L 183.199219 28.9375 C 182.09375 29.417969 181.503906 29.589844 180.582031 30.335938 Z M 180.582031 30.335938 "/>
<path style=" stroke:none;fill-rule:evenodd;fill:rgb(100%,100%,100%);fill-opacity:1;" d="M 105.105469 92.089844 C 105.671875 91.75 104.964844 91.28125 107.394531 91.304688 C 108.296875 91.308594 110.148438 91.140625 110.75 91.484375 C 111.972656 92.179688 111.582031 95.160156 111.546875 96.421875 L 120.660156 94.699219 C 120.769531 92.433594 121.058594 89.839844 119.855469 87.910156 C 118.742188 86.132812 116.484375 85.164062 113.621094 85.039062 C 110.390625 84.902344 107 84.832031 103.742188 84.882812 C 100.765625 84.929688 98.425781 85.683594 96.953125 87.335938 C 95.195312 89.3125 95.554688 91.140625 95.554688 93.871094 C 95.5625 98.941406 95.554688 104.015625 95.550781 109.085938 C 95.539062 118.578125 97.023438 118.488281 109.78125 117.933594 C 115.632812 117.835938 120.070312 116.753906 120.703125 111.550781 L 120.707031 105.621094 L 120.703125 104.054688 L 109.90625 104.085938 C 109.292969 104.890625 109.34375 105.886719 110.871094 105.960938 C 111.292969 105.984375 111.140625 105.976562 111.550781 105.964844 L 111.550781 110.261719 C 111.304688 111.585938 110.726562 111.5 108.683594 111.519531 C 104.3125 111.558594 105.03125 112.015625 105.03125 107.011719 C 105.03125 105.351562 105.03125 103.691406 105.03125 102.035156 C 105.03125 99.027344 104.730469 94.976562 105.105469 92.089844 Z M 105.105469 92.089844 "/>
<path style=" stroke:none;fill-rule:evenodd;fill:rgb(58.039218%,89.411765%,22.745098%);fill-opacity:1;" d="M 162.617188 7.261719 C 162.566406 7.292969 162.503906 7.328125 162.46875 7.351562 L 162.191406 7.523438 C 161.34375 8.082031 161.292969 8.34375 160.75 9.050781 C 157.890625 12.761719 153.980469 16.8125 150.835938 20.550781 C 150.695312 20.742188 149.941406 21.539062 150 21.542969 C 150.746094 21.578125 160.292969 22.984375 160.722656 23.105469 Z M 162.617188 7.261719 "/>
<path style=" stroke:none;fill-rule:evenodd;fill:rgb(58.039218%,89.411765%,22.745098%);fill-opacity:1;" d="M 199.007812 67.449219 C 197.757812 70.9375 200.195312 72.382812 204.40625 72.675781 C 211.886719 73.199219 212.410156 69.726562 211.148438 68.738281 C 209.96875 69.371094 210.777344 70.382812 208.140625 70.972656 C 204.265625 71.84375 196.996094 70.101562 204.195312 65.503906 C 208.273438 62.898438 216.140625 61.238281 215.382812 65.375 C 215.082031 67.03125 213.394531 67.59375 213.117188 68.308594 C 215.027344 67.898438 219.964844 63.070312 215.59375 60.753906 C 211.929688 58.808594 206.160156 60.703125 203.480469 62.050781 C 200.667969 63.464844 197.425781 66.078125 195.347656 67.9375 C 193.429688 69.65625 193.097656 72.632812 192.570312 74.9375 C 192.363281 75.84375 191.945312 76.640625 191.726562 77.476562 C 194.675781 77.15625 194.664062 73.691406 195.472656 71.746094 C 196.660156 68.886719 196.933594 68.160156 199.40625 66.144531 L 199.941406 65.917969 Z M 199.007812 67.449219 "/>
<path style=" stroke:none;fill-rule:evenodd;fill:rgb(58.039218%,89.411765%,22.745098%);fill-opacity:1;" d="M 90.78125 37.875 C 89.589844 37.753906 87.082031 37.59375 86.195312 37.292969 C 86.664062 36.886719 89.570312 36.246094 90.265625 36.09375 C 92.011719 35.714844 93.492188 35.574219 95.449219 35.515625 C 94.941406 35.054688 93.882812 34.871094 92.835938 34.601562 C 91.921875 34.363281 91.28125 33.941406 90.246094 33.875 C 91.664062 33.730469 93.503906 33.5 94.917969 33.464844 C 96.65625 33.429688 98.082031 33.492188 99.777344 33.34375 C 99.742188 33.3125 99.6875 33.222656 99.667969 33.25 C 99.644531 33.277344 99.585938 33.179688 99.554688 33.160156 L 98.542969 32.664062 C 97.582031 32.253906 95.65625 31.164062 94.746094 31.128906 C 93.582031 31.085938 95.382812 30.671875 95.828125 30.613281 C 97.992188 30.703125 98.894531 30.421875 100.988281 30.808594 C 102.386719 31.066406 104.058594 31.648438 105.242188 31.785156 C 104.480469 30.445312 99.410156 28.128906 99.40625 28.125 C 99.023438 27.835938 99.25 28.136719 99.0625 27.714844 C 101.5625 27.664062 102.597656 27.726562 104.800781 28.183594 L 109.703125 29.484375 C 109.304688 28.683594 105.261719 25.679688 104.34375 25.425781 L 104.355469 25.082031 C 107.835938 25.597656 107.367188 24.707031 112.894531 26.917969 C 113.792969 27.277344 114.511719 27.78125 115.246094 28.011719 C 114.949219 27.394531 111.4375 24.214844 110.371094 23.429688 C 109.765625 22.984375 108.898438 22.515625 108.410156 22.078125 C 108.625 21.957031 108.46875 21.988281 108.875 21.910156 C 109.953125 21.703125 111.550781 22.164062 112.5625 22.449219 C 115.128906 23.175781 121.753906 26.449219 122.007812 26.5 C 121.726562 25.871094 118.761719 22.941406 117.800781 22.085938 C 117.347656 21.683594 117.136719 21.480469 116.722656 21.105469 C 116.101562 20.535156 114.855469 19.566406 114.605469 18.964844 C 117.105469 19.136719 119.722656 20.433594 121.574219 21.449219 L 127.140625 24.863281 C 126.804688 23.976562 120.003906 17.144531 118.851562 16.292969 L 118.601562 15.53125 C 121.296875 16.234375 127.347656 20.511719 129.671875 22.367188 L 132.964844 24.964844 C 132.660156 23.265625 126.0625 17.707031 123.476562 16.417969 C 122.40625 15.675781 119.148438 14.210938 117.265625 14.089844 L 116.195312 15.316406 C 111.300781 20.496094 97.515625 27.195312 90.167969 32.402344 C 87.015625 34.640625 83.144531 37.96875 80.59375 40.652344 C 79.78125 41.507812 76.839844 44.464844 76.453125 45.398438 C 78.066406 45.035156 81.015625 42.542969 84.222656 41.589844 L 86.542969 41.003906 C 86.90625 40.902344 87.542969 40.800781 86.8125 40.710938 C 78.605469 39.410156 89.515625 39.730469 90.78125 37.875 Z M 86.808594 40.710938 L 90.589844 33.558594 Z M 86.808594 40.710938 "/>
<path style=" stroke:none;fill-rule:evenodd;fill:rgb(58.039218%,89.411765%,22.745098%);fill-opacity:1;" d="M 136.179688 57.292969 C 136.574219 57.039062 136.355469 57.300781 136.59375 56.898438 L 137.511719 53.535156 C 139.078125 48.335938 143.28125 42.414062 148.269531 38.644531 C 149.332031 37.839844 150.214844 37.246094 151.417969 36.464844 L 154.03125 35.003906 C 154.707031 34.691406 154.664062 34.785156 155.027344 34.28125 C 149.425781 35.023438 144.226562 39.492188 141.433594 42.59375 C 138.011719 46.398438 135.828125 51.417969 136.179688 57.292969 Z M 136.179688 57.292969 "/>
<path style=" stroke:none;fill-rule:evenodd;fill:rgb(100%,100%,100%);fill-opacity:1;" d="M 219.460938 98.800781 L 224.574219 114.523438 L 228.496094 114.773438 C 229.011719 113.53125 229.367188 111.976562 229.789062 110.730469 L 232.601562 102.949219 C 232.957031 101.941406 233.578125 99.875 234.109375 99.160156 L 234.09375 122.363281 L 242.074219 123.5625 L 242.089844 83.722656 L 231.152344 84.15625 L 226.488281 100.875 C 226.289062 100.640625 222.707031 86.140625 222.242188 84.480469 L 210.601562 84.71875 L 210.609375 119.820312 L 219.339844 120.699219 Z M 219.460938 98.800781 "/>
<path style=" stroke:none;fill-rule:evenodd;fill:rgb(58.039218%,89.411765%,22.745098%);fill-opacity:1;" d="M 112.566406 105.628906 C 112.832031 106.132812 112.796875 109.96875 112.597656 110.703125 C 112.109375 112.496094 110.183594 112.421875 107.769531 112.441406 C 106.210938 112.445312 105.390625 112.527344 104.542969 111.8125 C 103.609375 111.027344 103.871094 109.710938 103.867188 108.394531 L 103.855469 104.957031 L 96.675781 105.132812 L 96.738281 112.132812 C 96.585938 118.183594 102.644531 117.152344 109.769531 117.039062 C 113.285156 116.988281 115.378906 116.832031 117.4375 115.164062 C 119.746094 113.289062 119.503906 111.796875 119.503906 108.8125 C 119.503906 107.78125 119.699219 104.65625 119.667969 104.695312 L 110.847656 104.820312 C 110.210938 105.675781 111.796875 105.4375 112.566406 105.628906 Z M 112.566406 105.628906 "/>
<path style="fill-rule:evenodd;fill:rgb(58.039218%,89.411765%,22.745098%);fill-opacity:1;stroke-width:7.62;stroke-linecap:butt;stroke-linejoin:miter;stroke:rgb(58.039218%,89.411765%,22.745098%);stroke-opacity:1;stroke-miterlimit:4;" d="M 45315.69615 40972.442292 C 45501.4774 40891.406448 47122.087054 40332.916172 47538.436105 40205.887011 C 48359.522879 39951.82869 49069.472656 39783.186528 50033.212891 39607.973893 C 50995.294364 39430.571099 51706.902902 39393.338414 52735.334821 39283.830517 C 53325.853795 39220.315937 55334.61356 39327.633676 55692.905971 39137.089935 C 54430.588728 38791.04498 50378.235212 38931.215088 48938.430525 39130.519461 C 47500.284598 39332.013992 44471.386719 39932.117268 43700.062779 40996.534029 C 43449.589844 41811.272784 47301.233259 43994.860254 49441.035156 44275.200471 C 50690.08231 44439.462317 52312.350725 44110.938625 53367.322824 43707.949563 C 53987.699498 43469.222347 56001.435547 42494.602063 56301.671317 42085.042527 L 53347.41769 42757.421016 C 51919.22433 43046.521864 50774.679129 43053.092338 50064.729353 43188.882131 C 49746.24721 43186.691973 49766.152344 43127.557708 49832.50279 43090.325023 L 55143.856027 41219.930139 C 54893.383092 41060.048609 51685.339007 41723.666466 51141.265346 41813.462942 C 50026.577846 41995.246051 48074.21596 42343.481164 46928.011998 42304.058321 C 47256.446708 42060.95079 50668.518415 41119.182874 51426.572266 40941.780081 L 56374.656808 40006.582639 C 54621.346261 39818.229055 48561.891741 40628.587495 46503.369141 40965.871818 L 45516.40625 41112.6124 C 45330.625 41143.274611 45282.520926 41108.232084 45315.69615 40972.442292 Z M 45315.69615 40972.442292 " transform="matrix(0.00235492,0,0,0.00178355,0,0.00184155)"/>
<path style=" stroke:none;fill-rule:evenodd;fill:rgb(58.039218%,89.411765%,22.745098%);fill-opacity:1;" d="M 229.804688 106.933594 L 223.222656 106.625 L 225.488281 113.738281 L 227.402344 113.886719 Z M 229.804688 106.933594 "/>
<path style=" stroke:none;fill-rule:evenodd;fill:rgb(58.039218%,89.411765%,22.745098%);fill-opacity:1;" d="M 221.933594 71.535156 C 226.507812 71.328125 234.476562 69.863281 239.445312 69.277344 C 239.441406 69.082031 224.769531 67.394531 223.40625 67.210938 Z M 221.933594 71.535156 "/>
<path style=" stroke:none;fill-rule:evenodd;fill:rgb(58.039218%,89.411765%,22.745098%);fill-opacity:1;" d="M 145.5 33.746094 C 146.636719 33.363281 147.859375 29.578125 154.347656 29.320312 C 156.386719 29.238281 159.015625 29.5625 160.929688 29.84375 L 166.992188 30.789062 C 166.246094 30.292969 165.121094 30.089844 164.167969 29.84375 C 161.128906 29.058594 157.429688 28.097656 154.167969 27.875 C 151.132812 27.671875 149.507812 28.125 147.757812 29.257812 C 146.367188 30.15625 144.890625 32.042969 145.5 33.746094 Z M 145.5 33.746094 "/>
<path style=" stroke:none;fill-rule:evenodd;fill:rgb(58.039218%,89.411765%,22.745098%);fill-opacity:1;" d="M 152.136719 71.882812 C 154.273438 72.574219 160.722656 73.851562 163.535156 73.121094 C 162.75 72.867188 159.167969 72.71875 154.8125 70.960938 C 147.949219 68.1875 143.488281 64.875 141.304688 58.925781 C 141.070312 58.28125 140.871094 57.707031 140.792969 57.074219 C 140.707031 56.414062 140.953125 55.421875 140.644531 54.898438 C 139.761719 55.949219 140.054688 60.550781 140.488281 61.882812 C 142.175781 67.066406 145.628906 69.789062 152.136719 71.882812 Z M 152.136719 71.882812 "/>
<path style=" stroke:none;fill-rule:evenodd;fill:rgb(58.039218%,89.411765%,22.745098%);fill-opacity:1;" d="M 90.714844 118.125 L 90.714844 113.195312 L 78.945312 113.8125 L 78.890625 105.714844 L 71.652344 106.019531 L 71.59375 119.710938 Z M 90.714844 118.125 "/>
<path style=" stroke:none;fill-rule:evenodd;fill:rgb(58.039218%,89.411765%,22.745098%);fill-opacity:1;" d="M 111.730469 40.433594 C 109.039062 41.007812 107.015625 42.492188 105.621094 44.261719 C 102.367188 48.40625 105.671875 52.792969 106.75 51.1875 C 107.265625 50.421875 105.894531 48.835938 107.382812 45.707031 C 109.078125 42.136719 111.398438 41.386719 111.730469 40.433594 Z M 111.730469 40.433594 "/>
<path style=" stroke:none;fill-rule:evenodd;fill:rgb(58.039218%,89.411765%,22.745098%);fill-opacity:1;" d="M 115.4375 47.492188 C 118.1875 46.746094 114.0625 42.863281 120.964844 37.738281 C 121.417969 37.40625 122.125 37.179688 122.402344 36.734375 C 120.960938 36.832031 119.339844 37.566406 118.328125 38.101562 C 117.28125 38.652344 116.21875 39.667969 115.535156 40.554688 C 113.828125 42.773438 113.296875 46.34375 115.4375 47.492188 Z M 115.4375 47.492188 "/>
<path style=" stroke:none;fill-rule:evenodd;fill:rgb(58.039218%,89.411765%,22.745098%);fill-opacity:1;" d="M 67.726562 47.546875 C 67.921875 47.117188 72.019531 41.289062 72.40625 40.765625 C 69.351562 40.832031 53.15625 35.828125 47.113281 35.472656 C 47.390625 35.859375 67.179688 47.402344 67.726562 47.546875 Z M 67.726562 47.546875 "/>
<path style=" stroke:none;fill-rule:evenodd;fill:rgb(58.039218%,89.411765%,22.745098%);fill-opacity:1;" d="M 98.367188 55.882812 C 98.582031 55.382812 97.839844 53.546875 97.855469 52.507812 C 97.917969 48.015625 102.046875 44.875 102.324219 44.195312 C 99.875 44.730469 97.195312 47.179688 96.300781 49.097656 C 95.335938 51.167969 95.324219 54.042969 97.210938 55.671875 C 97.378906 55.816406 97.382812 55.863281 97.625 55.929688 C 98.050781 56.039062 98.242188 55.929688 98.367188 55.882812 Z M 98.367188 55.882812 "/>
<path style=" stroke:none;fill-rule:evenodd;fill:rgb(58.039218%,89.411765%,22.745098%);fill-opacity:1;" d="M 167.722656 112.070312 L 167.722656 104.847656 L 161.164062 104.757812 L 161.132812 116.390625 L 178.046875 117.003906 L 178.039062 112.382812 Z M 167.722656 112.070312 "/>
<path style=" stroke:none;fill-rule:evenodd;fill:rgb(58.039218%,89.411765%,22.745098%);fill-opacity:1;" d="M 89.75 60.179688 C 90.136719 59.113281 88.492188 57.199219 90.1875 53.542969 C 91.597656 50.5 93.457031 49.515625 93.832031 48.789062 C 91.632812 48.949219 88.835938 51.746094 87.898438 53.542969 C 86.972656 55.324219 86.890625 57.695312 88.148438 59.484375 C 88.632812 60.171875 88.714844 60.480469 89.75 60.179688 Z M 89.75 60.179688 "/>
<path style=" stroke:none;fill-rule:evenodd;fill:rgb(58.039218%,89.411765%,22.745098%);fill-opacity:1;" d="M 136.992188 33.496094 C 138.0625 32.15625 137.835938 30.753906 141.507812 28.972656 C 145 27.277344 148.140625 27.355469 148.929688 27.136719 C 149.378906 27.015625 149.253906 27.058594 149.515625 26.890625 C 145.199219 26.8125 142.832031 26.3125 139.304688 27.847656 C 136.035156 29.269531 135.046875 33.238281 136.992188 33.496094 Z M 136.992188 33.496094 "/>
<path style=" stroke:none;fill-rule:evenodd;fill:rgb(58.039218%,89.411765%,22.745098%);fill-opacity:1;" d="M 172.070312 75.902344 C 171.667969 75.710938 170.035156 76.023438 169.136719 76.125 C 168.003906 76.25 166.976562 76.292969 165.78125 76.398438 C 163.429688 76.601562 160.957031 76.417969 158.808594 76.148438 C 155.644531 75.75 152.96875 75.265625 150.296875 74.121094 C 149.464844 73.765625 148.589844 73.25 147.902344 73.015625 C 148.285156 73.78125 150.914062 75.21875 152.171875 75.730469 C 158.515625 78.3125 165.769531 77.703125 172.070312 75.902344 Z M 172.070312 75.902344 "/>
<path style=" stroke:none;fill-rule:evenodd;fill:rgb(58.039218%,89.411765%,22.745098%);fill-opacity:1;" d="M 126.980469 42.554688 C 127.671875 41.394531 126.285156 38.769531 130.265625 34.964844 C 130.859375 34.398438 132.085938 33.566406 132.441406 33.152344 C 128.570312 33.355469 123.535156 38.003906 125.554688 41.796875 C 125.886719 42.421875 126.09375 42.722656 126.980469 42.554688 Z M 126.980469 42.554688 "/>
<path style=" stroke:none;fill-rule:evenodd;fill:rgb(58.039218%,89.411765%,22.745098%);fill-opacity:1;" d="M 175.621094 48.699219 C 176.386719 46.800781 180.992188 46.042969 183.996094 47.484375 C 186.433594 48.652344 187.726562 51.425781 191.292969 51 C 190.675781 50.601562 189.320312 50.53125 187.507812 48.699219 C 185.230469 46.394531 182.539062 44.640625 178.421875 45.859375 C 177.242188 46.207031 176.144531 46.851562 175.609375 47.605469 C 174.875 48.648438 175.621094 48.699219 175.621094 48.699219 Z M 175.621094 48.699219 "/>
<path style=" stroke:none;fill-rule:evenodd;fill:rgb(58.039218%,89.411765%,22.745098%);fill-opacity:1;" d="M 172.847656 72.566406 C 173.164062 72.945312 176.675781 73.554688 177.386719 73.644531 C 179.335938 73.882812 180.972656 73.882812 182.941406 73.605469 C 185.109375 73.300781 190.242188 71.679688 191.023438 70.632812 C 190.660156 70.515625 188.050781 71.285156 187.257812 71.472656 C 184.269531 72.175781 181.164062 72.574219 177.90625 72.597656 C 177.003906 72.605469 173.152344 72.460938 172.847656 72.566406 Z M 172.847656 72.566406 "/>
<path style=" stroke:none;fill-rule:evenodd;fill:rgb(58.039218%,89.411765%,22.745098%);fill-opacity:1;" d="M 82.441406 64.453125 C 82.949219 63.253906 80.777344 61.402344 82.777344 56.949219 C 83.125 56.171875 84.105469 54.8125 84.289062 54.132812 C 82.4375 54.683594 80.597656 57.152344 80.105469 58.714844 C 79.527344 60.5625 80 64.46875 82.441406 64.453125 Z M 82.441406 64.453125 "/>
<path style=" stroke:none;fill-rule:evenodd;fill:rgb(58.039218%,89.411765%,22.745098%);fill-opacity:1;" d="M 96.3125 44.070312 C 96.164062 45.144531 96.207031 45.742188 96.566406 45.578125 C 97.226562 45.574219 97.492188 45.441406 98.019531 45.179688 C 99.363281 39.042969 102.628906 38.808594 103.875 36.785156 C 101.054688 37.355469 98.175781 39.460938 97.101562 41.359375 C 96.796875 41.890625 96.1875 43.449219 96.3125 44.070312 Z M 96.3125 44.070312 "/>
<path style=" stroke:none;fill-rule:evenodd;fill:rgb(58.039218%,89.411765%,22.745098%);fill-opacity:1;" d="M 86.605469 27.816406 C 86.828125 27.8125 93.121094 23.707031 93.148438 23.632812 C 91.050781 22.683594 79.527344 16.535156 78.808594 16.457031 Z M 86.605469 27.816406 "/>
<path style=" stroke:none;fill-rule:evenodd;fill:rgb(58.039218%,89.411765%,22.745098%);fill-opacity:1;" d="M 101.296875 66.019531 C 100.503906 65.773438 98.683594 64.890625 98.269531 64.867188 C 97.734375 65.464844 97.167969 67.46875 96.972656 68.269531 C 93.023438 66.789062 92.277344 63.332031 93.75 60.136719 C 94.277344 58.992188 94.929688 58.398438 95.472656 57.519531 C 93.785156 57.835938 91.625 59.90625 90.886719 61.15625 C 89.660156 63.242188 89.785156 65.242188 90.90625 67.214844 C 91.390625 68.21875 92.542969 69.148438 93.496094 69.621094 C 92.246094 69.601562 91.683594 68.988281 90.78125 68.980469 L 89.683594 71.953125 C 87.808594 71.261719 86.402344 69.605469 85.960938 67.789062 C 85.6875 66.652344 85.929688 65.597656 86.300781 64.585938 C 86.644531 63.65625 87.355469 62.664062 87.644531 61.800781 C 86.308594 62.109375 85.214844 63.375 84.496094 64.214844 C 81.796875 67.371094 82.992188 72.269531 88.101562 73.789062 C 87.8125 74.054688 88.140625 73.871094 87.589844 73.957031 C 86.953125 73.820312 86.324219 73.667969 85.765625 73.46875 C 85.171875 73.253906 84.628906 72.917969 84.023438 72.820312 C 83.511719 73.417969 83.410156 74.519531 83.175781 75.066406 L 82.929688 75.492188 C 81.25 74.796875 79.945312 73.539062 79.398438 71.804688 C 78.46875 68.867188 79.980469 67.476562 80.097656 66.402344 C 78.722656 66.84375 76.90625 69.457031 76.949219 71.738281 C 76.988281 73.890625 79.242188 76.1875 81.054688 76.582031 C 81.28125 76.84375 81.21875 76.695312 81.101562 76.847656 C 79.449219 76.757812 78.722656 75.917969 77.449219 75.542969 L 77.171875 76.113281 C 77.105469 76.308594 77.046875 76.585938 77.007812 76.855469 C 76.945312 77.300781 76.96875 77.753906 76.898438 78.195312 C 75.28125 78.363281 73.75 76.675781 73.179688 75.800781 C 71.828125 73.738281 72.660156 73.097656 72.386719 70.996094 C 70.460938 71.632812 69.128906 76.542969 73.3125 78.472656 L 74.253906 78.882812 C 74.523438 79.035156 74.359375 78.914062 74.558594 79.097656 L 71.804688 78.785156 L 71.855469 80.867188 C 72.425781 81.03125 83.054688 81.230469 84.570312 81.238281 C 88.429688 81.261719 93.40625 81.308594 97.171875 81.617188 L 97.449219 82.226562 C 97.46875 82.261719 97.5 82.3125 97.539062 82.355469 C 101.050781 81.761719 105.484375 81.550781 109.234375 81.679688 C 111.15625 81.746094 113.160156 81.800781 115.03125 82.027344 C 116.566406 82.210938 118.921875 82.453125 120.496094 82.183594 C 123.75 81.621094 126.96875 80.84375 129.660156 79.757812 C 132.003906 78.8125 133.375 78.125 135.253906 76.921875 C 135.53125 76.746094 136.753906 75.867188 136.878906 75.832031 C 136.460938 75.859375 133.644531 77.421875 133.039062 77.734375 C 128.945312 79.839844 123.699219 81.324219 118.617188 81.796875 C 112.570312 82.359375 103.480469 78.765625 100.058594 75.910156 C 96.878906 73.253906 99.570312 71.21875 102.464844 69.960938 C 105.21875 68.765625 108.941406 67.917969 112.566406 67.46875 C 116.640625 66.960938 120.441406 66.839844 124.753906 66.847656 C 131.707031 66.859375 131.78125 67.398438 136.75 67.683594 C 136.695312 66.164062 132.0625 61.589844 133.707031 51.386719 C 132.574219 51.597656 131.800781 52.820312 130.78125 53.070312 C 129.820312 52.605469 128.867188 51.328125 128.5625 50.4375 C 126.863281 45.492188 132.347656 42 132.945312 41.164062 C 128.085938 41.554688 121.332031 48.820312 127.621094 52.828125 C 128.148438 53.164062 129.355469 53.660156 129.609375 54.109375 C 127.753906 54.21875 126.863281 53.320312 125.410156 53.15625 C 124.292969 54.628906 123.546875 55.546875 123.613281 57.90625 C 123.683594 60.6875 124.875 60.964844 125.824219 62.289062 C 124.125 62.148438 122.464844 60.683594 121.78125 59.472656 C 120.609375 57.40625 121.859375 56.546875 120.785156 55.660156 C 118.332031 53.632812 118.375 50.019531 120.472656 47.597656 C 120.839844 47.175781 121.972656 46.285156 121.972656 45.785156 C 118.84375 45.789062 112.914062 50.910156 116.421875 55.363281 C 117.78125 57.09375 119.003906 57.410156 119.675781 58.199219 C 117.457031 58.167969 116.183594 56.859375 114.890625 56.796875 C 114.207031 57.851562 113.816406 60.15625 113.429688 60.664062 C 109.601562 59.0625 108.488281 55.175781 110.382812 52.003906 C 110.789062 51.320312 112.402344 49.757812 112.511719 49.347656 C 109.808594 49.738281 107.046875 52.621094 106.367188 54.949219 C 105.929688 56.445312 106.226562 58.226562 107.015625 59.429688 C 108.296875 61.382812 109.792969 61.605469 110.324219 62.207031 C 108.699219 62.089844 107.371094 61.117188 106.488281 61.09375 L 105.085938 64.585938 C 102.519531 64.332031 99.425781 60.167969 101.914062 55.949219 C 102.359375 55.191406 103.785156 53.636719 103.867188 53.398438 C 100.957031 53.707031 95.546875 59.085938 98.597656 63.332031 C 99.3125 64.328125 100.667969 65.617188 101.882812 65.976562 Z M 101.296875 66.019531 "/>
<path style=" stroke:none;fill-rule:evenodd;fill:rgb(58.039218%,89.411765%,22.745098%);fill-opacity:1;" d="M 133.050781 121.167969 C 133.355469 121.332031 132.933594 121.351562 134.121094 121.789062 C 134.535156 121.941406 134.789062 122.035156 135.191406 122.21875 C 138.367188 123.671875 144.410156 126.890625 146.761719 128.929688 L 147.707031 129.464844 C 147.535156 128.785156 146.894531 128.394531 146.359375 127.859375 C 144.917969 126.421875 143.839844 125.480469 141.777344 124.273438 C 139.960938 123.207031 135.519531 121.429688 133.050781 121.167969 Z M 133.050781 121.167969 "/>
<path style=" stroke:none;fill-rule:evenodd;fill:rgb(58.039218%,89.411765%,22.745098%);fill-opacity:1;" d="M 89.359375 50.234375 C 89.632812 50.160156 90.140625 50.34375 90.34375 49.203125 C 90.726562 47.046875 91.46875 45.285156 92.875 43.429688 C 93.40625 42.726562 94.214844 42.082031 94.546875 41.355469 C 92.867188 41.777344 90.976562 43.628906 90.136719 44.839844 C 89.152344 46.265625 88.277344 50.019531 89.359375 50.234375 Z M 89.359375 50.234375 "/>
<path style=" stroke:none;fill-rule:evenodd;fill:rgb(58.039218%,89.411765%,22.745098%);fill-opacity:1;" d="M 82.839844 54.660156 C 83.488281 53.945312 82.484375 52.996094 83.914062 49.914062 C 84.777344 48.054688 85.859375 47.195312 86.355469 46.296875 C 84.84375 46.488281 81.339844 49.675781 81.285156 52.507812 C 81.261719 53.582031 81.105469 55.09375 82.839844 54.660156 Z M 82.839844 54.660156 "/>
<path style=" stroke:none;fill-rule:evenodd;fill:rgb(58.039218%,89.411765%,22.745098%);fill-opacity:1;" d="M 78.671875 52.171875 C 77.3125 52.589844 75.757812 54.371094 75.183594 55.378906 C 73.398438 58.53125 75.09375 61.648438 76.164062 60.519531 C 76.46875 60.191406 76.257812 59.542969 76.207031 59.148438 C 75.984375 57.492188 76.703125 55.832031 77.4375 54.3125 C 77.765625 53.636719 78.398438 52.890625 78.671875 52.171875 Z M 78.671875 52.171875 "/>
<path style=" stroke:none;fill-rule:evenodd;fill:rgb(58.039218%,89.411765%,22.745098%);fill-opacity:1;" d="M 74.988281 69.597656 C 75.273438 68.570312 73.617188 67.328125 74.824219 63.628906 C 75.03125 63 75.488281 62.40625 75.511719 61.722656 C 71.746094 63.082031 71.859375 70.160156 74.988281 69.597656 Z M 74.988281 69.597656 "/>
<path style=" stroke:none;fill-rule:evenodd;fill:rgb(58.039218%,89.411765%,22.745098%);fill-opacity:1;" d="M 116.835938 37.742188 L 117.105469 37.152344 C 119.371094 32.292969 125.378906 31.191406 125.96875 30.441406 C 122.136719 30.035156 117.285156 32.210938 115.554688 35.054688 C 114.527344 36.734375 114.851562 37.039062 115.003906 38.753906 C 115.78125 38.589844 116.34375 38.175781 116.835938 37.742188 Z M 116.835938 37.742188 "/>
<path style=" stroke:none;fill-rule:evenodd;fill:rgb(58.039218%,89.411765%,22.745098%);fill-opacity:1;" d="M 136.75 42.648438 C 137.0625 42.066406 136.96875 40.445312 137.222656 39.542969 C 137.960938 36.910156 140.03125 35.066406 142.789062 33.421875 C 141.667969 32.878906 137.730469 34.65625 136.054688 36.585938 C 133.640625 39.371094 135.132812 42.605469 136.75 42.648438 Z M 136.75 42.648438 "/>
<path style=" stroke:none;fill-rule:evenodd;fill:rgb(58.039218%,89.411765%,22.745098%);fill-opacity:1;" d="M 106.304688 41.707031 C 107.492188 40.753906 106.53125 37.742188 113.882812 33.636719 L 114.578125 33.113281 C 111.273438 33.085938 106.542969 35.574219 105.34375 38.632812 C 104.898438 39.757812 104.460938 41.648438 106.304688 41.707031 Z M 106.304688 41.707031 "/>
<path style=" stroke:none;fill-rule:evenodd;fill:rgb(58.039218%,89.411765%,22.745098%);fill-opacity:1;" d="M 125.996094 34.6875 C 126.867188 34.488281 127.679688 33.457031 128.230469 32.867188 C 129.539062 31.449219 130.949219 30.378906 132.824219 29.4375 C 133.609375 29.042969 135.0625 28.589844 135.832031 28.164062 C 133 26.902344 124.527344 31.089844 125.996094 34.6875 Z M 125.996094 34.6875 "/>
<path style=" stroke:none;fill-rule:evenodd;fill:rgb(100%,100%,100%);fill-opacity:1;" d="M 179.078125 52.144531 C 178.835938 50.566406 179.894531 49.316406 181.996094 49.550781 C 181.988281 50.460938 181.457031 49.636719 181.414062 50.574219 C 182.191406 50.890625 182.246094 50.597656 182.707031 50.152344 C 182.738281 50.117188 182.789062 50.074219 182.816406 50.046875 C 182.84375 50.019531 182.886719 49.976562 182.933594 49.941406 C 183.09375 50.320312 182.933594 50.339844 183.320312 50.558594 C 183.527344 48.804688 181.546875 48.203125 179.835938 48.875 C 178.808594 49.277344 177.984375 50.386719 178.175781 51.417969 C 178.277344 51.96875 178.390625 51.980469 179.078125 52.144531 Z M 179.078125 52.144531 "/>
<path style=" stroke:none;fill-rule:evenodd;fill:rgb(58.039218%,89.411765%,22.745098%);fill-opacity:1;" d="M 145.9375 76.277344 C 144.675781 75.585938 142.171875 75.242188 140.546875 73.070312 C 140.140625 72.523438 139.890625 71.855469 139.546875 71.363281 C 138.589844 72.460938 142.109375 76.609375 145.9375 76.277344 Z M 145.9375 76.277344 "/>
<path style=" stroke:none;fill-rule:evenodd;fill:rgb(58.039218%,89.411765%,22.745098%);fill-opacity:1;" d="M 194.550781 50.453125 L 194.488281 50.710938 C 194.53125 51.5 195.789062 52.480469 197.476562 52.644531 C 197.34375 52.175781 195.625 50.5 194.882812 50.429688 Z M 194.550781 50.453125 "/>
<path style=" stroke:none;fill-rule:evenodd;fill:rgb(58.039218%,89.411765%,22.745098%);fill-opacity:1;" d="M 214.617188 75.179688 C 215.183594 73.921875 215.199219 71.851562 214.25 70.898438 C 214.058594 71.089844 214.058594 70.925781 214.046875 71.296875 L 214.398438 72.84375 C 214.527344 73.917969 214.167969 74.753906 214.617188 75.179688 Z M 214.617188 75.179688 "/>
<path style=" stroke:none;fill-rule:evenodd;fill:rgb(58.039218%,89.411765%,22.745098%);fill-opacity:1;" d="M 211.824219 119.046875 L 217.996094 119.613281 L 218.03125 106.394531 L 211.839844 106.136719 Z M 211.824219 119.046875 "/>
<path style=" stroke:none;fill-rule:evenodd;fill:rgb(58.039218%,89.411765%,22.745098%);fill-opacity:1;" d="M 235.210938 107.199219 L 235.265625 121.457031 L 240.933594 122.234375 L 240.878906 107.496094 Z M 235.210938 107.199219 "/>
<path style=" stroke:none;fill-rule:nonzero;fill:rgb(100%,100%,100%);fill-opacity:1;" d="M 48.832031 135.957031 C 48.714844 136.875 48.59375 137.789062 48.480469 138.695312 C 48.371094 139.59375 48.253906 140.488281 48.140625 141.375 C 47.488281 141.378906 46.839844 141.378906 46.195312 141.382812 C 46.105469 141 46.015625 140.597656 45.941406 140.167969 C 45.867188 139.742188 45.792969 139.289062 45.722656 138.816406 C 45.683594 139.027344 45.632812 139.347656 45.5625 139.777344 C 45.496094 140.207031 45.394531 140.742188 45.28125 141.386719 C 44.640625 141.386719 43.996094 141.390625 43.347656 141.390625 C 43.230469 140.652344 43.109375 139.914062 42.996094 139.183594 C 42.886719 138.460938 42.769531 137.742188 42.660156 137.03125 C 43.160156 136.941406 43.660156 136.851562 44.167969 136.765625 C 44.191406 137.03125 44.222656 137.292969 44.25 137.558594 C 44.273438 137.824219 44.304688 138.09375 44.335938 138.359375 C 44.359375 138.617188 44.386719 138.878906 44.410156 139.140625 C 44.433594 139.398438 44.457031 139.664062 44.488281 139.921875 C 44.523438 139.511719 44.570312 139.03125 44.640625 138.488281 C 44.707031 137.941406 44.808594 137.320312 44.925781 136.628906 C 45.464844 136.539062 46 136.441406 46.539062 136.347656 C 46.546875 136.421875 46.574219 136.59375 46.597656 136.867188 C 46.621094 137.140625 46.664062 137.515625 46.710938 137.992188 C 46.738281 138.308594 46.765625 138.628906 46.789062 138.949219 C 46.8125 139.269531 46.851562 139.585938 46.882812 139.910156 C 46.925781 139.289062 46.988281 138.671875 47.054688 138.058594 C 47.125 137.445312 47.214844 136.828125 47.316406 136.214844 C 47.816406 136.128906 48.324219 136.042969 48.832031 135.957031 Z M 55.011719 134.945312 C 54.894531 136.027344 54.773438 137.105469 54.660156 138.175781 C 54.542969 139.242188 54.425781 140.304688 54.3125 141.355469 C 53.660156 141.355469 53.011719 141.359375 52.367188 141.359375 C 52.277344 140.902344 52.191406 140.414062 52.117188 139.894531 C 52.046875 139.378906 51.964844 138.832031 51.894531 138.253906 C 51.863281 138.511719 51.808594 138.898438 51.738281 139.417969 C 51.671875 139.933594 51.566406 140.585938 51.453125 141.363281 C 50.8125 141.367188 50.175781 141.367188 49.527344 141.371094 C 49.410156 140.453125 49.285156 139.542969 49.175781 138.636719 C 49.066406 137.734375 48.941406 136.84375 48.828125 135.957031 C 49.332031 135.871094 49.835938 135.785156 50.347656 135.703125 C 50.371094 136.027344 50.402344 136.355469 50.425781 136.679688 C 50.453125 137.007812 50.484375 137.335938 50.511719 137.664062 C 50.539062 137.980469 50.5625 138.296875 50.589844 138.617188 C 50.613281 138.9375 50.636719 139.257812 50.667969 139.578125 C 50.699219 139.074219 50.75 138.496094 50.816406 137.828125 C 50.886719 137.164062 50.984375 136.414062 51.101562 135.578125 C 51.640625 135.488281 52.179688 135.398438 52.71875 135.3125 C 52.726562 135.398438 52.746094 135.609375 52.769531 135.9375 C 52.796875 136.269531 52.839844 136.71875 52.878906 137.292969 C 52.90625 137.675781 52.941406 138.058594 52.96875 138.441406 C 52.992188 138.824219 53.023438 139.210938 53.054688 139.59375 C 53.101562 138.851562 53.167969 138.117188 53.234375 137.386719 C 53.300781 136.648438 53.394531 135.914062 53.496094 135.1875 C 53.996094 135.105469 54.503906 135.023438 55.011719 134.945312 Z M 61.191406 134.003906 C 61.074219 135.242188 60.945312 136.472656 60.832031 137.695312 C 60.71875 138.914062 60.597656 140.128906 60.484375 141.335938 C 59.832031 141.335938 59.183594 141.339844 58.539062 141.339844 C 58.453125 140.808594 58.363281 140.242188 58.292969 139.640625 C 58.214844 139.039062 58.136719 138.40625 58.074219 137.734375 C 58.035156 138.027344 57.980469 138.476562 57.914062 139.082031 C 57.84375 139.683594 57.746094 140.4375 57.632812 141.34375 C 56.988281 141.347656 56.34375 141.347656 55.699219 141.351562 C 55.582031 140.265625 55.460938 139.191406 55.351562 138.121094 C 55.242188 137.058594 55.117188 136 55.007812 134.945312 C 55.507812 134.867188 56.015625 134.789062 56.523438 134.707031 C 56.546875 135.089844 56.578125 135.476562 56.605469 135.859375 C 56.628906 136.242188 56.660156 136.625 56.691406 137.011719 C 56.714844 137.382812 56.738281 137.757812 56.761719 138.128906 C 56.78125 138.503906 56.808594 138.878906 56.839844 139.253906 C 56.871094 138.664062 56.929688 137.988281 56.996094 137.214844 C 57.0625 136.4375 57.164062 135.5625 57.28125 134.59375 C 57.820312 134.507812 58.359375 134.425781 58.898438 134.347656 C 58.902344 134.449219 58.921875 134.691406 58.949219 135.070312 C 58.972656 135.453125 59.019531 135.976562 59.058594 136.640625 C 59.085938 137.082031 59.117188 137.527344 59.140625 137.96875 C 59.164062 138.414062 59.203125 138.859375 59.234375 139.300781 C 59.277344 138.445312 59.339844 137.59375 59.414062 136.75 C 59.484375 135.90625 59.574219 135.066406 59.671875 134.230469 C 60.175781 134.15625 60.679688 134.078125 61.191406 134.003906 Z M 62.1875 139.808594 C 62.1875 140.316406 62.1875 140.824219 62.1875 141.328125 C 61.808594 141.332031 61.433594 141.332031 61.0625 141.332031 C 61.0625 140.835938 61.0625 140.34375 61.0625 139.84375 C 61.433594 139.832031 61.808594 139.820312 62.1875 139.808594 Z M 62.648438 133.796875 C 63.167969 133.722656 63.6875 133.648438 64.214844 133.574219 C 64.640625 133.515625 64.964844 133.515625 65.195312 133.570312 C 65.421875 133.628906 65.59375 133.734375 65.710938 133.886719 C 65.824219 134.039062 65.898438 134.230469 65.945312 134.464844 C 65.988281 134.695312 66.003906 135.0625 66 135.5625 C 66 135.796875 66 136.027344 66 136.257812 C 66 136.769531 65.957031 137.144531 65.882812 137.378906 C 65.804688 137.617188 65.65625 137.804688 65.449219 137.941406 C 65.238281 138.078125 64.957031 138.15625 64.617188 138.175781 C 64.476562 138.183594 64.339844 138.191406 64.203125 138.199219 C 64.199219 138.722656 64.199219 139.238281 64.199219 139.761719 C 64.199219 140.28125 64.199219 140.804688 64.199219 141.324219 C 63.675781 141.324219 63.152344 141.328125 62.632812 141.328125 C 62.632812 140.074219 62.636719 138.816406 62.640625 137.5625 C 62.644531 136.308594 62.648438 135.050781 62.648438 133.796875 Z M 64.210938 134.898438 C 64.203125 135.558594 64.203125 136.214844 64.203125 136.871094 C 64.246094 136.871094 64.28125 136.871094 64.3125 136.867188 C 64.457031 136.855469 64.554688 136.800781 64.613281 136.707031 C 64.667969 136.609375 64.691406 136.417969 64.691406 136.128906 C 64.691406 135.914062 64.691406 135.699219 64.691406 135.484375 C 64.695312 135.21875 64.667969 135.042969 64.605469 134.972656 C 64.542969 134.902344 64.40625 134.875 64.210938 134.898438 Z M 66.449219 133.269531 C 67.320312 133.15625 68.1875 133.042969 69.054688 132.929688 C 69.054688 133.488281 69.054688 134.046875 69.054688 134.605469 C 68.707031 134.636719 68.359375 134.675781 68.015625 134.710938 C 68.007812 135.238281 68.007812 135.761719 68.007812 136.285156 C 68.332031 136.257812 68.652344 136.234375 68.980469 136.207031 C 68.980469 136.738281 68.972656 137.265625 68.972656 137.796875 C 68.644531 137.8125 68.324219 137.832031 68 137.851562 C 68 138.453125 68 139.0625 68 139.667969 C 68.378906 139.652344 68.761719 139.644531 69.148438 139.632812 C 69.148438 140.191406 69.140625 140.75 69.140625 141.308594 C 68.234375 141.3125 67.332031 141.3125 66.433594 141.316406 C 66.4375 139.976562 66.445312 138.632812 66.445312 137.292969 C 66.449219 135.953125 66.449219 134.613281 66.449219 133.269531 Z M 73.167969 135.699219 C 72.648438 135.742188 72.128906 135.78125 71.609375 135.820312 C 71.609375 135.558594 71.605469 135.296875 71.609375 135.03125 C 71.609375 134.53125 71.601562 134.222656 71.570312 134.101562 C 71.539062 133.980469 71.472656 133.925781 71.367188 133.933594 C 71.265625 133.945312 71.207031 134.003906 71.175781 134.117188 C 71.140625 134.222656 71.113281 134.5 71.113281 134.941406 C 71.109375 135.632812 71.109375 136.320312 71.105469 137.011719 C 71.101562 137.703125 71.109375 138.390625 71.105469 139.082031 C 71.105469 139.464844 71.121094 139.722656 71.15625 139.84375 C 71.1875 139.960938 71.253906 140.023438 71.355469 140.023438 C 71.464844 140.019531 71.542969 139.949219 71.582031 139.808594 C 71.621094 139.667969 71.640625 139.394531 71.644531 138.988281 C 71.648438 138.648438 71.644531 138.304688 71.644531 137.960938 C 71.539062 137.964844 71.441406 137.972656 71.34375 137.976562 C 71.34375 137.539062 71.34375 137.101562 71.347656 136.664062 C 71.953125 136.621094 72.5625 136.582031 73.167969 136.542969 C 73.164062 137.335938 73.164062 138.128906 73.164062 138.921875 C 73.160156 139.714844 73.15625 140.507812 73.15625 141.300781 C 72.828125 141.300781 72.5 141.300781 72.179688 141.300781 C 72.128906 141.09375 72.078125 140.882812 72.03125 140.675781 C 71.925781 140.945312 71.792969 141.148438 71.632812 141.289062 C 71.472656 141.421875 71.277344 141.488281 71.058594 141.488281 C 70.796875 141.488281 70.554688 141.398438 70.324219 141.21875 C 70.097656 141.039062 69.921875 140.816406 69.804688 140.550781 C 69.6875 140.289062 69.609375 140.015625 69.582031 139.726562 C 69.550781 139.433594 69.542969 139 69.542969 138.421875 C 69.542969 138.003906 69.539062 137.582031 69.542969 137.164062 C 69.546875 136.75 69.550781 136.332031 69.550781 135.910156 C 69.550781 135.105469 69.585938 134.515625 69.648438 134.144531 C 69.710938 133.769531 69.890625 133.417969 70.183594 133.074219 C 70.472656 132.730469 70.855469 132.53125 71.324219 132.472656 C 71.777344 132.417969 72.148438 132.507812 72.453125 132.746094 C 72.753906 132.988281 72.945312 133.296875 73.039062 133.667969 C 73.132812 134.039062 73.167969 134.589844 73.167969 135.316406 C 73.167969 135.445312 73.167969 135.574219 73.167969 135.699219 Z M 77.078125 134.78125 C 76.597656 134.824219 76.113281 134.867188 75.628906 134.90625 C 75.628906 134.679688 75.628906 134.453125 75.628906 134.230469 C 75.628906 133.914062 75.613281 133.710938 75.574219 133.628906 C 75.535156 133.546875 75.476562 133.511719 75.386719 133.519531 C 75.296875 133.53125 75.226562 133.59375 75.175781 133.71875 C 75.128906 133.835938 75.109375 134.011719 75.109375 134.246094 C 75.109375 134.550781 75.136719 134.777344 75.191406 134.925781 C 75.242188 135.074219 75.390625 135.246094 75.628906 135.449219 C 76.316406 136.03125 76.75 136.527344 76.929688 136.925781 C 77.109375 137.324219 77.195312 137.984375 77.195312 138.902344 C 77.195312 139.566406 77.140625 140.058594 77.035156 140.378906 C 76.933594 140.695312 76.746094 140.960938 76.460938 141.171875 C 76.175781 141.382812 75.839844 141.488281 75.464844 141.488281 C 75.042969 141.488281 74.6875 141.371094 74.390625 141.132812 C 74.097656 140.898438 73.910156 140.597656 73.820312 140.234375 C 73.730469 139.871094 73.683594 139.355469 73.683594 138.6875 C 73.683594 138.492188 73.683594 138.296875 73.683594 138.101562 C 74.167969 138.082031 74.652344 138.058594 75.132812 138.035156 C 75.132812 138.40625 75.132812 138.773438 75.132812 139.144531 C 75.132812 139.484375 75.148438 139.707031 75.191406 139.800781 C 75.230469 139.898438 75.308594 139.941406 75.40625 139.941406 C 75.511719 139.9375 75.59375 139.875 75.640625 139.75 C 75.691406 139.625 75.714844 139.441406 75.714844 139.195312 C 75.714844 138.65625 75.667969 138.300781 75.574219 138.144531 C 75.476562 137.980469 75.234375 137.714844 74.847656 137.347656 C 74.464844 136.984375 74.203125 136.71875 74.082031 136.550781 C 73.957031 136.386719 73.851562 136.152344 73.769531 135.855469 C 73.691406 135.554688 73.652344 135.167969 73.652344 134.695312 C 73.652344 134.011719 73.710938 133.503906 73.832031 133.175781 C 73.953125 132.847656 74.140625 132.578125 74.402344 132.363281 C 74.664062 132.152344 74.984375 132.023438 75.351562 131.976562 C 75.761719 131.925781 76.09375 131.984375 76.378906 132.148438 C 76.664062 132.316406 76.851562 132.554688 76.945312 132.851562 C 77.03125 133.152344 77.078125 133.671875 77.078125 134.414062 C 77.078125 134.535156 77.078125 134.660156 77.078125 134.78125 Z M 79.273438 131.683594 C 79.265625 132.964844 79.265625 134.242188 79.261719 135.523438 C 79.257812 136.804688 79.253906 138.085938 79.246094 139.367188 C 79.558594 139.359375 79.867188 139.351562 80.183594 139.34375 C 80.183594 139.988281 80.183594 140.632812 80.183594 141.28125 C 79.347656 141.285156 78.511719 141.285156 77.683594 141.289062 C 77.6875 139.71875 77.6875 138.148438 77.695312 136.582031 C 77.699219 135.011719 77.699219 133.441406 77.707031 131.875 C 78.226562 131.808594 78.746094 131.746094 79.273438 131.683594 Z M 83.476562 131.179688 C 83.617188 132.847656 83.769531 134.519531 83.90625 136.199219 C 84.046875 137.882812 84.191406 139.574219 84.335938 141.269531 C 83.800781 141.269531 83.269531 141.273438 82.746094 141.273438 C 82.710938 140.675781 82.6875 140.078125 82.664062 139.480469 C 82.472656 139.484375 82.285156 139.488281 82.097656 139.492188 C 82.070312 140.085938 82.03125 140.683594 82.003906 141.277344 C 81.464844 141.277344 80.933594 141.28125 80.402344 141.28125 C 80.53125 139.65625 80.667969 138.023438 80.804688 136.386719 C 80.941406 134.746094 81.078125 133.101562 81.21875 131.449219 C 81.96875 131.359375 82.71875 131.269531 83.476562 131.179688 Z M 82.628906 137.710938 C 82.589844 137.144531 82.550781 136.515625 82.515625 135.816406 C 82.480469 135.117188 82.445312 134.351562 82.402344 133.519531 C 82.324219 134.488281 82.25 135.320312 82.207031 136.019531 C 82.160156 136.71875 82.117188 137.292969 82.097656 137.734375 C 82.273438 137.726562 82.445312 137.71875 82.628906 137.710938 Z M 89.441406 130.511719 C 89.4375 132.304688 89.429688 134.097656 89.421875 135.886719 C 89.417969 137.675781 89.410156 139.46875 89.40625 141.257812 C 88.953125 141.261719 88.5 141.261719 88.046875 141.261719 C 88.042969 140.066406 88.042969 138.875 88.046875 137.683594 C 88.054688 136.488281 88.058594 135.296875 88.058594 134.101562 C 87.96875 135.300781 87.867188 136.5 87.773438 137.695312 C 87.683594 138.886719 87.589844 140.078125 87.503906 141.265625 C 87.179688 141.265625 86.859375 141.265625 86.542969 141.265625 C 86.449219 140.117188 86.347656 138.972656 86.257812 137.832031 C 86.167969 136.691406 86.085938 135.550781 85.988281 134.417969 C 85.984375 135.558594 85.976562 136.699219 85.972656 137.84375 C 85.96875 138.984375 85.972656 140.125 85.964844 141.269531 C 85.507812 141.269531 85.054688 141.269531 84.601562 141.269531 C 84.609375 139.566406 84.613281 137.859375 84.621094 136.15625 C 84.625 134.453125 84.625 132.746094 84.632812 131.042969 C 85.300781 130.964844 85.972656 130.890625 86.648438 130.8125 C 86.710938 131.4375 86.765625 132.179688 86.828125 133.023438 C 86.894531 133.90625 86.96875 134.785156 87.042969 135.667969 C 87.097656 134.847656 87.164062 134.027344 87.222656 133.203125 C 87.28125 132.378906 87.347656 131.554688 87.410156 130.730469 C 88.085938 130.65625 88.761719 130.582031 89.441406 130.511719 Z M 91 139.035156 C 91 139.777344 90.992188 140.515625 90.992188 141.253906 C 90.613281 141.257812 90.234375 141.257812 89.855469 141.257812 C 89.855469 140.527344 89.863281 139.792969 89.863281 139.0625 C 90.242188 139.050781 90.621094 139.042969 91 139.035156 Z M 95.09375 134.886719 C 94.574219 134.914062 94.054688 134.941406 93.53125 134.964844 C 93.53125 134.324219 93.535156 133.679688 93.539062 133.03125 C 93.542969 132.46875 93.527344 132.121094 93.496094 131.984375 C 93.460938 131.84375 93.382812 131.78125 93.269531 131.789062 C 93.148438 131.800781 93.0625 131.886719 93.03125 132.0625 C 92.996094 132.234375 92.976562 132.601562 92.972656 133.164062 C 92.972656 134.019531 92.964844 134.878906 92.960938 135.738281 C 92.960938 136.59375 92.964844 137.453125 92.960938 138.308594 C 92.960938 138.847656 92.972656 139.199219 93.003906 139.363281 C 93.039062 139.527344 93.117188 139.605469 93.234375 139.605469 C 93.355469 139.605469 93.425781 139.523438 93.464844 139.355469 C 93.503906 139.191406 93.523438 138.800781 93.527344 138.1875 C 93.527344 137.71875 93.527344 137.253906 93.527344 136.785156 C 94.046875 136.765625 94.566406 136.746094 95.085938 136.730469 C 95.085938 136.875 95.082031 137.019531 95.082031 137.167969 C 95.078125 138.335938 95.039062 139.164062 94.945312 139.652344 C 94.851562 140.144531 94.664062 140.574219 94.363281 140.941406 C 94.0625 141.308594 93.691406 141.488281 93.253906 141.488281 C 92.796875 141.488281 92.417969 141.339844 92.121094 141.035156 C 91.824219 140.734375 91.628906 140.316406 91.539062 139.78125 C 91.445312 139.25 91.398438 138.445312 91.402344 137.371094 C 91.402344 136.839844 91.40625 136.308594 91.40625 135.773438 C 91.40625 135.242188 91.410156 134.710938 91.414062 134.175781 C 91.414062 133.386719 91.433594 132.796875 91.460938 132.398438 C 91.492188 132.003906 91.582031 131.613281 91.734375 131.234375 C 91.886719 130.855469 92.082031 130.546875 92.34375 130.3125 C 92.601562 130.074219 92.914062 129.9375 93.246094 129.910156 C 93.707031 129.867188 94.082031 129.996094 94.378906 130.304688 C 94.679688 130.609375 94.875 131.007812 94.964844 131.5 C 95.054688 131.992188 95.105469 132.765625 95.101562 133.816406 C 95.097656 134.175781 95.09375 134.53125 95.09375 134.886719 Z M 99.203125 136.449219 C 99.199219 137.613281 99.179688 138.433594 99.148438 138.917969 C 99.113281 139.402344 99.027344 139.847656 98.875 140.246094 C 98.722656 140.648438 98.519531 140.957031 98.265625 141.167969 C 98.011719 141.382812 97.722656 141.488281 97.378906 141.488281 C 97.058594 141.488281 96.78125 141.390625 96.527344 141.191406 C 96.273438 140.992188 96.066406 140.695312 95.910156 140.300781 C 95.757812 139.90625 95.671875 139.476562 95.640625 139.007812 C 95.609375 138.542969 95.597656 137.726562 95.601562 136.5625 C 95.605469 135.917969 95.605469 135.269531 95.609375 134.625 C 95.613281 133.488281 95.628906 132.683594 95.660156 132.210938 C 95.691406 131.730469 95.78125 131.292969 95.929688 130.890625 C 96.082031 130.488281 96.285156 130.167969 96.539062 129.9375 C 96.792969 129.707031 97.097656 129.578125 97.429688 129.554688 C 97.753906 129.527344 98.03125 129.609375 98.292969 129.792969 C 98.546875 129.976562 98.753906 130.265625 98.902344 130.660156 C 99.058594 131.054688 99.148438 131.492188 99.175781 131.964844 C 99.207031 132.441406 99.210938 133.277344 99.207031 134.46875 C 99.207031 135.128906 99.207031 135.789062 99.203125 136.449219 Z M 97.652344 132.722656 C 97.65625 132.191406 97.636719 131.855469 97.609375 131.707031 C 97.582031 131.558594 97.523438 131.492188 97.425781 131.496094 C 97.351562 131.5 97.289062 131.5625 97.242188 131.6875 C 97.203125 131.804688 97.179688 132.164062 97.175781 132.75 C 97.171875 133.640625 97.171875 134.53125 97.171875 135.421875 C 97.167969 136.3125 97.160156 137.203125 97.15625 138.089844 C 97.15625 138.753906 97.160156 139.164062 97.1875 139.316406 C 97.214844 139.476562 97.28125 139.550781 97.386719 139.546875 C 97.488281 139.546875 97.554688 139.457031 97.585938 139.277344 C 97.617188 139.097656 97.632812 138.671875 97.636719 137.996094 C 97.636719 137.121094 97.644531 136.238281 97.648438 135.359375 C 97.648438 134.484375 97.648438 133.605469 97.652344 132.722656 Z M 104.625 129.417969 C 104.621094 131.386719 104.613281 133.359375 104.605469 135.328125 C 104.597656 137.296875 104.589844 139.265625 104.582031 141.234375 C 104.121094 141.234375 103.664062 141.234375 103.210938 141.234375 C 103.21875 139.914062 103.21875 138.585938 103.226562 137.261719 C 103.230469 135.9375 103.238281 134.613281 103.242188 133.285156 C 103.144531 134.613281 103.039062 135.941406 102.945312 137.265625 C 102.851562 138.589844 102.757812 139.914062 102.667969 141.238281 C 102.34375 141.238281 102.027344 141.238281 101.714844 141.238281 C 101.621094 139.953125 101.519531 138.664062 101.433594 137.378906 C 101.347656 136.09375 101.253906 134.808594 101.167969 133.523438 C 101.160156 134.808594 101.15625 136.097656 101.148438 137.382812 C 101.140625 138.667969 101.140625 139.953125 101.136719 141.238281 C 100.675781 141.238281 100.226562 141.242188 99.773438 141.242188 C 99.777344 139.304688 99.789062 137.367188 99.796875 135.433594 C 99.804688 133.5 99.8125 131.5625 99.816406 129.625 C 100.484375 129.585938 101.15625 129.550781 101.828125 129.519531 C 101.886719 130.222656 101.941406 131.058594 102.011719 132.007812 C 102.078125 133 102.148438 133.988281 102.21875 134.980469 C 102.277344 134.066406 102.347656 133.152344 102.40625 132.234375 C 102.464844 131.320312 102.53125 130.402344 102.59375 129.484375 C 103.269531 129.460938 103.945312 129.4375 104.625 129.417969 Z M 104.625 129.417969 "/>
</g>
</svg>
